<svg width="76" height="79" viewBox="0 0 76 79" fill="none" xmlns="http://www.w3.org/2000/svg">
<g clip-path="url(#clip0_1026_4166)">
<path d="M75.8318 0H0V78.9269H75.8318V0Z" fill="#005CAF"/>
<path d="M22.7881 37.2454H25.6102V25.4763H28.4323V37.2454H31.264V25.4763H34.0861V37.2454H36.9082V22.5391H22.7881V37.2454Z" fill="white"/>
<path d="M6.63281 37.2454H20.7625V34.2982H9.4645V25.4763H20.7625V22.5391H6.63281V37.2454Z" fill="white"/>
<path fill-rule="evenodd" clip-rule="evenodd" d="M32.55 51.2126L33.7403 50.7231C34.2586 52.0119 34.5754 52.8611 34.6906 53.2607L33.4523 53.6404C33.1451 52.6713 32.838 51.862 32.55 51.2126ZM30.7166 51.4424L32.0221 51.1327C32.3772 52.3915 32.6172 53.4805 32.7612 54.3997L31.4365 54.6095C31.2637 53.6304 31.0238 52.5714 30.7166 51.4424ZM28.9984 51.4724L30.3518 51.4224C30.4862 53.0609 30.5438 54.3797 30.5342 55.3887L29.2096 55.3288C29.2384 53.8102 29.1712 52.5214 28.9984 51.4724ZM27.165 52.7911C26.1667 53.5005 24.9956 54.1898 23.6614 54.8692L22.9798 53.4405C23.5462 53.1908 24.0357 52.971 24.4389 52.7812V48.8548H23.4118V47.3462H24.4389V44.0393H23.4118V42.5307H26.8962V44.0393H25.8403V47.3462H26.781V48.8548H25.8403V51.9319C26.0611 51.7721 26.2531 51.6222 26.4259 51.4923L27.2322 52.5713C27.3378 52.1617 27.4338 51.7221 27.5201 51.2626L28.9408 51.6722C28.5472 53.3906 27.9329 54.8293 27.1074 55.9882C26.7234 55.5386 26.3587 55.2389 26.0131 55.079C26.4355 54.4796 26.7714 53.8801 27.0018 53.2907C27.0402 53.1208 27.0978 52.951 27.165 52.7911ZM30.9662 46.8866H28.8544V46.0774H30.9662V46.8866ZM30.9662 44.7486H28.8544V44.0492C28.8544 43.9493 28.9024 43.8894 29.008 43.8794H30.9662V44.7486ZM28.8544 49.0246V48.2154H30.9662V49.0246H28.8544ZM27.4434 49.5841V50.1936C27.4434 50.3834 27.5201 50.4733 27.6833 50.4733H34.6138C34.7386 50.4733 34.7962 50.5133 34.7962 50.5932C34.8346 52.2516 34.825 53.3207 34.7482 53.8102C34.6906 54.1799 34.5562 54.4796 34.3354 54.7293C34.2394 54.8293 34.0666 54.8892 33.8267 54.8992C33.6155 54.8992 33.0971 54.8193 32.2524 54.6594L32.3964 56.2579C33.9322 56.3778 34.9113 56.2479 35.3529 55.8583C35.7369 55.5186 35.9576 55.089 36.0344 54.5495C36.188 53.6603 36.2552 51.9319 36.236 49.3843C36.2456 49.1645 36.1592 49.0446 35.9672 49.0346H32.3772V48.2254H35.5353V46.8966H32.3772V46.0874H35.4777V44.7586H32.3772V43.8894H35.8136V42.4407H27.7601C27.5489 42.4407 27.4434 42.5506 27.4434 42.7804V49.5841V49.5841ZM13.2177 51.2925V56.138H14.6863V51.2925H17.4124C17.4988 51.2925 17.5372 51.3325 17.5372 51.4124V53.8801C17.5372 54.07 17.4124 54.2298 17.1533 54.3397C16.7981 54.4696 16.1262 54.3797 15.1375 54.08L15.1759 55.8183C16.6061 56.1081 17.6524 56.0681 18.3147 55.7284C18.7659 55.4886 18.9963 55.139 18.9963 54.6794V50.1636C18.9963 49.9138 18.8715 49.7839 18.6315 49.7839H14.6863V48.625H13.2177V49.7839H11.2115C11.6435 49.3743 12.133 48.8448 12.6706 48.1954C12.6802 48.1654 12.6994 48.1355 12.7282 48.1155H19.841V46.6069H13.7936C13.9376 46.3671 14.0912 46.1173 14.264 45.8576L13.2369 45.1382C13.4577 45.0483 13.7264 44.9584 14.0336 44.8685C15.3775 45.2781 16.8269 45.7876 18.3819 46.4071L18.7755 44.9384C17.8924 44.5987 17.0381 44.269 16.2222 43.9593C16.6925 43.7395 17.1917 43.4898 17.7292 43.23L17.0765 41.8313C16.0686 42.3908 15.0895 42.8703 14.12 43.26C12.1906 42.6505 10.4148 42.2209 8.79258 41.9812L8.46621 43.4798C9.34932 43.6097 10.3092 43.8195 11.3555 44.0892C10.098 44.3789 8.71579 44.5388 7.21835 44.5788L7.54471 46.0874C8.85977 46.0973 10.3956 45.8875 12.133 45.448C12.3826 45.378 12.6706 45.2981 12.9873 45.2182C12.661 45.7377 12.3634 46.1973 12.0946 46.6069H7.10316V48.1155H10.8948C9.97325 49.0346 8.98456 49.8139 7.93827 50.4633C7.50632 50.6831 7.06477 50.9129 6.63281 51.1427L7.43913 52.4714C7.95747 52.1917 8.48541 51.872 9.00376 51.5423V55.6885H10.4628V51.4024C10.4628 51.3325 10.5012 51.2925 10.578 51.2825H13.2177V51.2925Z" fill="white"/>
<path fill-rule="evenodd" clip-rule="evenodd" d="M66.4533 52.771L61.1547 53.6202L60.8283 52.0816L66.4533 51.1725V42.2208H67.922V50.9427L68.9875 50.7629L69.1986 52.3214L67.922 52.5512V56.1479H66.4533V52.771ZM61.8458 47.7856L62.8729 46.6866C63.6984 47.396 64.5431 48.2752 65.3974 49.3142L64.3128 50.3133C63.5448 49.4241 62.7289 48.5749 61.8458 47.7856ZM62.345 43.9592C63.4296 45.0282 64.3128 46.0272 65.0135 46.9664L66.1462 45.9873C65.4262 45.0382 64.5143 44.0191 63.4009 42.9101L62.345 43.9592ZM59.7341 49.8237C60.2236 50.4631 60.6652 51.0626 61.0587 51.6221L62.153 50.583C61.3851 49.6039 60.5788 48.6548 59.7341 47.7656V47.5958H61.6059V46.0272H59.7341V43.9092C60.3964 43.7793 61.0107 43.6195 61.5771 43.4396L61.2891 41.8711C60.0604 42.2707 58.3902 42.5605 56.288 42.7603L56.4896 44.3288C57.0943 44.2889 57.6895 44.2289 58.2654 44.159V46.0372H56.0768V47.6058H58.1982C57.5743 49.3142 56.7008 50.8228 55.5969 52.1316L56.9504 52.771C57.3631 52.2115 57.7951 51.4822 58.275 50.593V56.0879H59.7437V49.8237H59.7341ZM46.2379 45.178V44.3088C46.2283 44.0691 46.3435 43.9492 46.5835 43.9492H50.3559C50.567 43.9492 50.6726 44.0591 50.6822 44.2889V45.188H46.2379V45.178ZM50.6822 46.6267V47.406C50.6822 47.6557 50.5574 47.7956 50.3175 47.8056H46.2379V46.6367H50.6822V46.6267ZM42.4175 43.7893C42.5711 43.7893 42.6479 43.8692 42.6479 44.0191V46.1172H41.1025V44.0191C41.1025 43.8692 41.1697 43.7893 41.3137 43.7893H42.4175ZM42.6479 53.5203C42.6479 53.7101 42.5615 53.81 42.3791 53.81H41.1025V51.2924H42.6479V53.5203ZM42.6479 49.9036H41.1025V47.5059H42.6479V49.9036ZM41.1025 55.1987H43.5502C43.6174 55.1987 43.6846 55.1888 43.7518 55.1688L43.8766 56.3876C45.8636 56.048 47.505 55.5884 48.7912 54.9989L48.1961 53.6901C47.5146 54.0098 46.929 54.2396 46.4299 54.3895C46.3627 54.3995 46.3051 54.4195 46.2475 54.4494V49.2443H47.169C47.8025 51.8518 48.8584 53.79 50.3367 55.0888C50.759 55.4685 51.287 55.8781 51.9013 56.3277L53.0244 55.1588C51.6613 54.3495 50.6726 53.5403 50.0583 52.7011C51.0566 51.9917 51.8725 51.2924 52.5156 50.613L51.6517 49.474C51.1046 50.0635 50.3271 50.7329 49.3192 51.4722C48.9736 50.7329 48.7145 49.9936 48.5321 49.2642H51.6613C51.9493 49.2642 52.1029 49.1044 52.1029 48.7947V42.9501C52.1029 42.6704 51.9589 42.5205 51.6709 42.5105H45.2492C44.9901 42.5105 44.8461 42.6604 44.8365 42.9501V54.7492C44.5677 54.7791 44.2797 54.8291 43.9726 54.899C43.9822 54.8391 43.9918 54.7791 44.0014 54.7092V42.8602C44.0014 42.5505 43.8574 42.4006 43.5598 42.4006H40.1618C39.893 42.4006 39.7586 42.5505 39.749 42.8402V56.0779H41.1025V55.1987V55.1987Z" fill="white"/>
<path d="M38.9336 37.2454H53.0537V34.2982H41.7557V31.3609H53.0537V28.4236H41.7557V25.4763H53.0537V22.5391H38.9336V37.2454Z" fill="white"/>
<path d="M69.199 22.5391H55.0693V25.4763H66.3673V28.4236H55.0693V37.2454H57.901V31.3609H60.7231L65.4938 37.2454H69.199L64.4187 31.3609H69.199V22.5391Z" fill="white"/>
</g>
<defs>
<clipPath id="clip0_1026_4166">
<rect width="75.8318" height="78.9269" fill="white"/>
</clipPath>
</defs>
</svg>
