<svg xmlns="http://www.w3.org/2000/svg" xmlns:xlink="http://www.w3.org/1999/xlink" width="210" height="68.438" viewBox="0 0 210 68.438"><defs><clipPath id="a"><rect width="210" height="68.438" fill="rgba(0,0,0,0)"/></clipPath></defs><g clip-path="url(#a)"><path d="M1.2,106.349l1.179.032a7.594,7.594,0,0,0,1.164-.047c.175.637.3,1.1.51,1.674l.271.765,1.833,5.739,2.439-6.377a18.425,18.425,0,0,0,.606-1.8l1.355.047h.367c.255,0,.637,0,.94-.032l.159-.016v.382h-.685c-.622,0-.765.224-.765,1.18,0,1.132.032,2.694.1,4.7.016.239.032.622.048,1.116.016.286.032.494.032.654.032.876.143,1.036.637,1.036h.59v.4l-.765-.032-.8-.016h-.239c-.446,0-1.2,0-1.8.031l-.351.017v-.4h.686c.574,0,.749-.239.749-1.052v-.128l-.143-4.67c0-.064,0-.351-.048-.876v-.527l.016-.781-.175.606c-.064.175-.191.622-.494,1.339l-.048.111-.048.128-.908,2.439-.925,2.694-.447,1.259H5.342c-.431-1.435-.51-1.786-.909-2.9l-.845-2.36-.112-.3c-.064-.159-.128-.446-.287-.876a16.021,16.021,0,0,1-.621-1.93c-.032,1.052-.032,1.259-.064,1.912l-.191,4.353c0,.143-.016.287-.016.462,0,.956.127,1.1.893,1.1h.351v.4c-.478-.032-.941-.048-1.627-.048a11.51,11.51,0,0,0-1.291.048v-.4h.526c.478,0,.606-.351.67-1.85l.208-5.261v-.319c0-1.1-.064-1.26-.51-1.26H.687v-.382Z" transform="translate(-0.288 -49.23)" fill="#734f24"/><path d="M25.757,106.38h1.2c.558,0,1.5-.016,1.977-.032l.462-.016-.048.462c-.1.861-.08,1.546-.1,2.407H28.8c0-1.195-.1-1.609-.478-1.976a2.531,2.531,0,0,0-1.881-.511,6.271,6.271,0,0,0-1.164.1c0,.351-.016.621-.032.8-.016.318-.016.51-.016.606v2.63h1.243c1.116,0,1.324-.207,1.324-1.164h.51c-.048.813-.064,1.2-.064,1.754,0,.367.016.557.032,1.02H27.8v-.223c0-.86-.24-.989-2.057-.989h-.51V113.7c0,1.609.048,1.691,1,1.691a3.775,3.775,0,0,0,2.344-.431c.4-.383.526-.861.542-2.088h.446v.478c0,.876.032,1.609.1,2.454l-3.826-.047H24.4c-.669,0-1.068.016-1.546.047v-.4H23.4c.446,0,.542-.176.542-.989V107.56c0-.654-.143-.845-.621-.845H22.9v-.382Z" transform="translate(-10.581 -49.23)" fill="#734f24"/><path d="M37.417,106.364c.7.033,1,.017,1.339.017.542,0,1.069,0,1.738-.032.335-.016.478-.016.638-.016a3.98,3.98,0,0,1,3.029,1.051,4.4,4.4,0,0,1,1.18,3.173c0,3.444-1.69,5.245-4.926,5.245-.223,0-.558-.016-1.02-.032-.542-.016-.8-.016-1.036-.016h-.271a9.451,9.451,0,0,0-1.372.047v-.4h.255c.781,0,.909-.159.909-1.148v-6.727c0-.638-.159-.814-.749-.814h-.415v-.382Zm1.769,8.179c0,.686.176.876.829.876a3.769,3.769,0,0,0,2.79-.924,5.165,5.165,0,0,0,1.148-3.6,5.323,5.323,0,0,0-1.068-3.427,3.457,3.457,0,0,0-2.535-.83c-.367,0-.781.016-1.1.048a10.148,10.148,0,0,0-.064,1.275Z" transform="translate(-16.998 -49.23)" fill="#734f24"/><path d="M54.158,106.333c1.036.047,1.244.047,1.977.047h.207c.574,0,1.132-.016,1.833-.047v.382H57.33c-.574,0-.7.24-.7,1.148v6.122c0,1.339.048,1.419.877,1.419h.59v.4l-2.025-.048h-.239c-.94,0-1.116.016-1.754.048v-.4H54.7c.542,0,.637-.223.637-1.547v-6.281c0-.686-.143-.861-.717-.861h-.462Z" transform="translate(-25.037 -49.23)" fill="#734f24"/><path d="M70.9,112.811a3.152,3.152,0,0,1-1.036,2.152,3.572,3.572,0,0,1-2.423.86c-2.471,0-3.89-1.578-3.89-4.3,0-2.471,1.052-4.256,2.949-5.07a6.137,6.137,0,0,1,2.439-.415,7.731,7.731,0,0,1,1.865.224c-.111,1.179-.175,1.881-.223,3.092h-.4a3.336,3.336,0,0,0-.734-2.231,2.127,2.127,0,0,0-1.514-.654c-1.817,0-3.061,1.85-3.061,4.56,0,2.439,1.292,4.241,3.093,4.241a2.713,2.713,0,0,0,1.85-.717,2.643,2.643,0,0,0,.845-1.738Z" transform="translate(-29.421 -49.092)" fill="#734f24"/><path d="M84.113,106.035c.239.861.319,1.164.462,1.626l.255.8.271.829.893,2.583c.08.208.207.559.4,1.053.144.367.351.924.622,1.626.207.542.415.717.877.717h.223v.4l-.3-.017c-.749-.031-1.227-.031-1.865-.031-.829,0-1.132,0-1.786.048v-.4h.622c.526,0,.813-.191.813-.575a1.46,1.46,0,0,0-.079-.494l-.861-2.55c-.781-.048-1.132-.064-1.738-.064-.526,0-.781.016-1.418.047l-1,2.567a1.413,1.413,0,0,0-.111.511c0,.382.287.557.829.557h.478v.4l-.749-.032-.8-.016a14.794,14.794,0,0,0-1.579.048v-.4a.886.886,0,0,0,.734-.287,2.918,2.918,0,0,0,.558-.924c.845-1.9,1.419-3.157,1.674-3.778l.319-.781.255-.558c.367-.8.637-1.514.845-2.04.064-.176.175-.462.3-.861Zm-.925,1.323c-.733,1.865-.893,2.3-1.5,3.795.542.032.8.032,1.275.032.446,0,.829,0,1.514-.032Z" transform="translate(-36.374 -49.092)" fill="#734f24"/><path d="M97.488,106.333c.606.047.973.047,2.121.047h.143c.989,0,1.323,0,1.945-.047v.382h-.829c-.829,0-.924.144-.924,1.4v6.393c0,.749.176.893,1.164.893,1.18,0,1.69-.112,2.072-.478.478-.43.606-.941.606-2.423h.431l-.016.526c-.032.925.032,1.674.079,2.774-.654-.032-.909-.048-1.642-.048h-1.706c-.893,0-1.833,0-2.9.031l-.558.017v-.4h.287c.813,0,.893-.144.893-1.595v-6.28c0-.654-.143-.814-.765-.814h-.4Z" transform="translate(-45.127 -49.23)" fill="#734f24"/><path d="M135.015,106.035c.239.861.319,1.164.462,1.626l.255.8.271.829.893,2.583c.08.208.207.559.4,1.053.144.367.351.924.622,1.626.207.542.415.717.877.717h.223v.4l-.3-.017c-.75-.031-1.228-.031-1.866-.031-.829,0-1.132,0-1.786.048v-.4h.622c.526,0,.813-.191.813-.575a1.46,1.46,0,0,0-.079-.494l-.861-2.55c-.781-.048-1.132-.064-1.738-.064-.526,0-.781.016-1.418.047l-1,2.567a1.413,1.413,0,0,0-.111.511c0,.382.287.557.829.557h.479v.4l-.749-.032-.8-.016a14.794,14.794,0,0,0-1.579.048v-.4a.886.886,0,0,0,.734-.287,2.917,2.917,0,0,0,.558-.924c.845-1.9,1.419-3.157,1.674-3.778l.319-.781.255-.558c.367-.8.637-1.514.845-2.04.064-.176.175-.462.3-.861Zm-.925,1.323c-.733,1.865-.893,2.3-1.5,3.795.542.032.8.032,1.275.032.446,0,.829,0,1.514-.032Z" transform="translate(-59.94 -49.092)" fill="#734f24"/><path d="M151.248,106.38h1.2c.558,0,1.5-.016,1.977-.032l.462-.016-.048.462c-.1.861-.08,1.546-.1,2.407h-.447c0-1.195-.1-1.609-.478-1.976a2.531,2.531,0,0,0-1.881-.511,6.271,6.271,0,0,0-1.164.1c0,.351-.016.621-.032.8-.016.318-.016.51-.016.606v2.63h1.243c1.116,0,1.324-.207,1.324-1.164h.51c-.048.813-.064,1.2-.064,1.754,0,.367.016.557.032,1.02h-.478v-.223c0-.86-.24-.989-2.057-.989h-.51V113.7c0,1.609.048,1.691,1,1.691a3.775,3.775,0,0,0,2.344-.431c.4-.383.526-.861.542-2.088h.446v.478c0,.876.032,1.609.1,2.454l-3.826-.047h-1.435c-.669,0-1.068.016-1.546.047v-.4h.542c.446,0,.542-.176.542-.989V107.56c0-.654-.143-.845-.621-.845h-.415v-.382Z" transform="translate(-68.681 -49.23)" fill="#734f24"/><path d="M163.344,112.7a2.752,2.752,0,0,0,.734,2.057,2.244,2.244,0,0,0,1.642.7,1.8,1.8,0,0,0,1.9-1.705,1.708,1.708,0,0,0-.542-1.244,7.736,7.736,0,0,0-1.434-.941,8.32,8.32,0,0,1-1.9-1.323,2.118,2.118,0,0,1-.7-1.657,2.422,2.422,0,0,1,1.61-2.249,5.1,5.1,0,0,1,1.945-.3,7.7,7.7,0,0,1,1.977.24c-.128,1.1-.191,1.786-.24,2.918h-.446a3.053,3.053,0,0,0-.734-2.327,1.554,1.554,0,0,0-1.1-.51,1.788,1.788,0,0,0-1.865,1.706c0,.845.526,1.372,2.232,2.359a5.753,5.753,0,0,1,1.61,1.132,2.171,2.171,0,0,1,.781,1.658c0,1.626-1.387,2.614-3.619,2.614a7.485,7.485,0,0,1-2.423-.415c.112-1.5.128-1.753.143-2.71Z" transform="translate(-75.359 -49.092)" fill="#734f24"/><path d="M179.3,106.38h1.212c.67,0,1.961-.016,2.6-.032l.622-.016c-.064,1.036-.1,1.785-.1,2.486,0,.143,0,.272.016.542h-.478c0-1.259-.143-1.8-.494-2.184-.319-.319-.749-.463-1.706-.463h-.446v7.908c0,.637.16.781.845.781h.814v.4c-.781-.047-1.419-.047-2.5-.047-1.1,0-1.435,0-2.184.047v-.4h1.084c.542,0,.67-.24.67-1.562v-7.127h-.526a2.368,2.368,0,0,0-1.642.495,2.5,2.5,0,0,0-.446,1.642v.494h-.495c.016-.351.016-.494.016-.7,0-.67-.016-1.354-.1-2.311Z" transform="translate(-81.515 -49.23)" fill="#734f24"/><path d="M193.372,106.38h.223l1.18-.016.781-.031v.382h-.845c-.494,0-.637.3-.637,1.356v2.758c.319.031.925.064,1.817.064.941,0,1.833-.016,2.646-.048v-3.2c0-.749-.175-.925-.876-.925h-.59v-.382l.271.016c.494.032,1.307.032,2.041.032.574,0,1.068-.016,1.514-.032l.319-.016v.382h-.638c-.622,0-.765.24-.765,1.244v6.3c0,.972.128,1.148.8,1.148h.59v.4l-.877-.032-1.227-.016-1.738.031-.3.016v-.4h.717c.7,0,.765-.144.765-1.642v-2.391c-.7-.033-1.451-.048-2.407-.048-.558,0-1.132,0-1.738.032l-.319.017v2.646c0,1.227.1,1.387.813,1.387h.638v.4l-.845-.032c-.606-.016-1.02-.016-1.179-.016-.383,0-.877,0-1.514.031l-.335.016v-.4h.335c.669,0,.8-.176.8-1.164v-6.711c0-.59-.159-.814-.606-.814h-.51v-.382Z" transform="translate(-88.729 -49.23)" fill="#734f24"/><path d="M213.429,106.38h1.2c.558,0,1.5-.016,1.977-.032l.462-.016-.048.462c-.1.861-.08,1.546-.1,2.407h-.447c0-1.195-.1-1.609-.478-1.976a2.531,2.531,0,0,0-1.881-.511,6.271,6.271,0,0,0-1.164.1c0,.351-.016.621-.032.8-.016.318-.016.51-.016.606v2.63h1.243c1.116,0,1.324-.207,1.324-1.164h.51c-.048.813-.064,1.2-.064,1.754,0,.367.016.557.032,1.02h-.478v-.223c0-.86-.24-.989-2.057-.989h-.51V113.7c0,1.609.048,1.691,1,1.691a3.775,3.775,0,0,0,2.344-.431c.4-.383.526-.861.542-2.088h.446v.478c0,.876.032,1.609.1,2.454l-3.826-.047h-1.435c-.669,0-1.068.016-1.546.047v-.4h.542c.446,0,.542-.176.542-.989V107.56c0-.654-.143-.845-.621-.845h-.415v-.382Z" transform="translate(-97.469 -49.23)" fill="#734f24"/><path d="M227.743,106.38h1.212c.67,0,1.961-.016,2.6-.032l.622-.016c-.064,1.036-.1,1.785-.1,2.486,0,.143,0,.272.016.542h-.478c0-1.259-.143-1.8-.494-2.184-.319-.319-.749-.463-1.706-.463h-.446v7.908c0,.637.159.781.845.781h.814v.4c-.781-.047-1.419-.047-2.5-.047-1.1,0-1.435,0-2.184.047v-.4h1.084c.542,0,.669-.24.669-1.562v-7.127h-.526a2.368,2.368,0,0,0-1.642.495,2.5,2.5,0,0,0-.446,1.642v.494h-.495c.016-.351.016-.494.016-.7,0-.67-.016-1.354-.1-2.311Z" transform="translate(-103.941 -49.23)" fill="#734f24"/><path d="M240.2,106.333c1.036.047,1.244.047,1.977.047h.207c.574,0,1.132-.016,1.833-.047v.382h-.845c-.574,0-.7.24-.7,1.148v6.122c0,1.339.048,1.419.877,1.419h.59v.4l-2.025-.048h-.239c-.94,0-1.116.016-1.754.048v-.4h.622c.542,0,.637-.223.637-1.547v-6.281c0-.686-.143-.861-.717-.861H240.2Z" transform="translate(-111.169 -49.23)" fill="#734f24"/><path d="M256.937,112.811a3.152,3.152,0,0,1-1.036,2.152,3.572,3.572,0,0,1-2.423.86c-2.471,0-3.89-1.578-3.89-4.3,0-2.471,1.052-4.256,2.949-5.07a6.138,6.138,0,0,1,2.439-.415,7.731,7.731,0,0,1,1.865.224c-.111,1.179-.175,1.881-.223,3.092h-.4a3.334,3.334,0,0,0-.734-2.231,2.127,2.127,0,0,0-1.514-.654c-1.817,0-3.061,1.85-3.061,4.56,0,2.439,1.292,4.241,3.093,4.241a2.713,2.713,0,0,0,1.85-.717,2.643,2.643,0,0,0,.845-1.738Z" transform="translate(-115.553 -49.092)" fill="#734f24"/><path d="M265.744,112.7a2.752,2.752,0,0,0,.734,2.057,2.244,2.244,0,0,0,1.642.7,1.8,1.8,0,0,0,1.9-1.705,1.708,1.708,0,0,0-.542-1.244,7.735,7.735,0,0,0-1.434-.941,8.321,8.321,0,0,1-1.9-1.323,2.118,2.118,0,0,1-.7-1.657,2.422,2.422,0,0,1,1.61-2.249,5.1,5.1,0,0,1,1.945-.3,7.7,7.7,0,0,1,1.977.24c-.128,1.1-.191,1.786-.24,2.918h-.446a3.053,3.053,0,0,0-.734-2.327,1.554,1.554,0,0,0-1.1-.51,1.788,1.788,0,0,0-1.865,1.706c0,.845.526,1.372,2.232,2.359a5.753,5.753,0,0,1,1.61,1.132,2.171,2.171,0,0,1,.781,1.658c0,1.626-1.387,2.614-3.619,2.614a7.485,7.485,0,0,1-2.423-.415c.112-1.5.128-1.753.143-2.71Z" transform="translate(-122.767 -49.092)" fill="#734f24"/><rect width="0.924" height="11.813" transform="translate(157.291 56.625)" fill="#734f24"/><path d="M319.13,112.589c-.076.109-.2.141-.478.152a6.5,6.5,0,0,1-1.489,1.337,16.309,16.309,0,0,0,3.826.424v.141a1.376,1.376,0,0,0-.9,1.184,9.934,9.934,0,0,1-3.9-1.195,14.386,14.386,0,0,1-5.173,1.184l-.054-.163a13.483,13.483,0,0,0,4.5-1.565,4.726,4.726,0,0,1-.978-1.217,10.228,10.228,0,0,1-3.3,1.63l-.087-.141a9.669,9.669,0,0,0,3.314-3.043c-.293-.12-.359-.347-.359-.772v-1.51l1.348.119c-.011.131-.12.229-.315.262v.934c0,.109.021.142.326.142h1.586a.324.324,0,0,0,.24-.088,3.654,3.654,0,0,0,.347-.739h.12l.032.739c.294.108.37.229.37.4,0,.435-.414.6-1.956.6h-.848l.674.325c-.043.1-.163.142-.369.109a4.7,4.7,0,0,1-.326.359H317.3l.75-.641Zm-6.521-3.966a1.428,1.428,0,0,1-.663,1.326.64.64,0,0,1-.935-.283.654.654,0,0,1,.446-.783,1.4,1.4,0,0,0,.8-1.206h.163a3.241,3.241,0,0,1,.163.641h1.12a.8.8,0,0,1-.326-.174,2.206,2.206,0,0,0-.446-1.217l.054-.044c-.413,0-.837,0-1.239-.011l-.021-.2a46.134,46.134,0,0,0,7.183-1.13l1.033,1.087a.723.723,0,0,1-.674-.055c-.392.044-.815.088-1.272.12l1.456.554c-.054.12-.185.2-.424.163a9.051,9.051,0,0,1-1.348.9h1.587l.63-.62,1.087,1.033c-.087.086-.2.108-.424.119a7.583,7.583,0,0,1-1.391.739c1.326.749.608,2.064-.294,1.478a4.126,4.126,0,0,0-1.217-1.825l.087-.077a4.791,4.791,0,0,1,1.2.3c.12-.25.25-.576.348-.847Zm.848.532a1.6,1.6,0,0,1-.609,2.076.6.6,0,1,1-.478-1.065,1.309,1.309,0,0,0,.924-1.021Zm2.391-.836a.771.771,0,0,1-.424-.207,2.569,2.569,0,0,0-.37-1.261c-.619.022-1.25.033-1.869.033,1.619.326,1.4,1.283.825,1.435Zm-.913,4.184c-.086.076-.184.163-.282.239a4.369,4.369,0,0,0,1.4.956,5.426,5.426,0,0,0,1.2-1.2Zm.25-3.705c2.543-.142,1.88,1.793.848,1.249a2.626,2.626,0,0,0-.924-1.163Zm2.054-.478a9.589,9.589,0,0,0,.7-1.619c-.772.066-1.608.108-2.489.141,1.478.435,1.152,1.4.554,1.478Z" transform="translate(-143.966 -48.865)" fill="#734f24"/><path d="M334.818,112.047a29.034,29.034,0,0,1-3.076,2.445.475.475,0,0,1-.25.337l-.641-1.381c.3-.086.761-.238,1.293-.445v-2.967h-1l-.087-.316h1.086v-2.694h-1.076l-.087-.3h2.271l.608-.881s.685.61,1.054,1.011c-.022.119-.141.174-.282.174h-1.282v2.694h.086l.522-.815s.587.576.891.956c-.022.119-.13.174-.272.174h-1.228v2.5c.467-.2.945-.4,1.412-.609Zm.119.413c1.065,3.608-2.26,3.031-1.174,1.641a2.149,2.149,0,0,0,1.043-1.641Zm6.357-.783a.672.672,0,0,1-.434.2c-.076,2.185-.25,3.228-.739,3.618a2.046,2.046,0,0,1-1.326.369,1.1,1.1,0,0,0-.217-.8,1.826,1.826,0,0,0-.956-.413l.011-.142c.4.033,1.076.066,1.293.066a.482.482,0,0,0,.337-.086c.217-.2.326-1.141.392-2.8h-3.467v.24c0,.087-.392.37-1.021.37h-.217v-6.261l1.381.522h2.8l.652-.88s.728.609,1.174,1.021c-.032.119-.141.174-.3.174h-2.119v1.26h.51l.6-.792s.673.553,1.076.934c-.033.119-.141.174-.293.174h-1.891v1.293h.543l.609-.8s.673.554,1.076.946c-.033.119-.141.173-.3.173h-1.923v1.315h1.01l.63-.6Zm-5.455.783c1.793,1.326.565,2.89-.13,1.977a4.635,4.635,0,0,0-.011-1.934Zm.347-4.337h1.119v-1.26h-1.119Zm1.119.316h-1.119v1.293h1.119Zm-1.119,2.924h1.119v-1.315h-1.119Zm.728.978c2.12.859,1.174,2.478.391,1.75a4.055,4.055,0,0,0-.51-1.7Zm1.1-.185c2.217.369,1.543,2,.707,1.446a3.508,3.508,0,0,0-.815-1.381Z" transform="translate(-153.176 -48.922)" fill="#734f24"/><path d="M361.015,110.776c.217.163.456.348.652.5-.033.12-.152.174-.3.174H357.9v.7h1.425l.586-.631,1.2.924a.588.588,0,0,1-.38.195v2.924a2.114,2.114,0,0,1-1.076.315h-.228v-.533H354.07v.185c0,.12-.543.391-1.043.391h-.173v-4.282l1.315.511h1.054c.011-.206.011-.446.011-.7h-3.228l-.087-.3h7.923l.424-.5a5.105,5.105,0,0,1-1.206-.391,7.56,7.56,0,0,1-2.315.641l-.054-.152a4.971,4.971,0,0,0,1.782-.88,2.927,2.927,0,0,1-.782-1.152H357.2l-.054-.185a.368.368,0,0,1-.2.055h-1.3a1.631,1.631,0,0,1-.076.206c1.3-.011,1.51.695,1.217,1,.207.163.467.369.663.543-.022.12-.141.174-.293.174H353.45v.1a.962.962,0,0,1-.869.369H352.4v-4.988l1.184.467h2.076l.543-.641s.62.435,1.011.772c-.032.119-.13.173-.282.173h-2.6l.967.315c-.043.12-.174.207-.4.207a1.313,1.313,0,0,1-.109.142h1.032l.413-.5s.456.347.761.63a.246.246,0,0,1-.272.174h-.989v.3a2.165,2.165,0,0,1-.021.25h.38l.392-.478s.239.185.467.391v-.01a1.576,1.576,0,0,0,.576-1.413v-.858l1.217.467h.424l.5-.533.934.772a.609.609,0,0,1-.337.151v.359c0,.1.022.119.131.119h.206a.818.818,0,0,0,.174-.01.168.168,0,0,0,.152-.055,2.805,2.805,0,0,0,.283-.6h.119l.044.6c.228.109.282.207.282.369,0,.381-.347.468-1.184.468h-.217l.8.663c-.066.1-.174.131-.391.142a3.335,3.335,0,0,1-.652.8,13.989,13.989,0,0,0,1.717.076l.011.119a1.137,1.137,0,0,0-.684.968Zm-7.478-.892a1.987,1.987,0,0,0,1.218-1.3h-1.12l-.087-.3h1.26a1.96,1.96,0,0,0,.011-.25v-.3h-.3a2.659,2.659,0,0,1-.76.511l-.152-.1a3.907,3.907,0,0,0,.511-1.381h-.664v3.434h2.489l.26-.314a3.318,3.318,0,0,0-.782-.838,3.074,3.074,0,0,1-1.8,1Zm4.358,2.577v.238c0,.272,0,.272.109.272h.434a.294.294,0,0,0,.163-.033,1,1,0,0,0,.228-.412h.1l.054.412c.261.109.315.153.315.283,0,.348-.207.489-.913.489h-.532c-.837,0-.881-.087-.881-1.021v-.228h-.8c-.174.7-.62,1.152-1.8,1.456l-.108-.163a1.53,1.53,0,0,0,.934-1.293H354.07v1.608h5.347v-1.608Zm1.522,1.912H354.07v.652h5.347Zm-2.446-2.924h-.706a4.569,4.569,0,0,1-.044.7h.75Zm1.6-4.684c0,.446-.2,1.184-1.489,1.533l.12.1h2.217l.424-.39c-.511-.033-.576-.25-.576-.75v-.576h-.7Zm-.608,1.946a2.18,2.18,0,0,0,1.01.673,3.391,3.391,0,0,0,.434-.673Z" transform="translate(-162.93 -48.987)" fill="#734f24"/><path d="M377.573,112.719c.869,1.217,2.608,1.62,4.553,1.739l-.011.119a1.443,1.443,0,0,0-.935,1.207c-1.934-.478-3.184-1.261-3.847-3.065h-.1c-.381,1.468-1.434,2.489-5.379,3.108l-.065-.173c2.739-.8,3.662-1.718,4-2.935h-3.76l-.087-.3h3.913a8.488,8.488,0,0,0,.13-1.347l1.826.13c-.022.153-.142.272-.381.294-.033.327-.076.63-.13.924h2.684l.717-.9s.8.608,1.3,1.032c-.033.12-.153.174-.315.174Zm-1.4-2.119v-1.3h-2.88l-.087-.315h2.967v-1.217H372.65l-.087-.315h5.086a13.327,13.327,0,0,0,.608-1.9l1.663.5c-.043.141-.173.217-.413.195a10.936,10.936,0,0,1-1.521,1.207h1.63l.7-.87s.772.588,1.25,1.011c-.033.12-.141.173-.3.173H377.5v1.217h1.543l.652-.8s.75.543,1.207.946c-.033.12-.142.174-.3.174h-3.1v1.3h2.325l.706-.913s.794.619,1.272,1.055c-.021.108-.152.163-.3.163H372.27l-.087-.3Zm-1.9-4.945c2.913.206,1.8,2.412.663,1.6a3.03,3.03,0,0,0-.74-1.532Z" transform="translate(-172.13 -48.865)" fill="#734f24"/><path d="M154.554.02,128.707,41.272,104.072,0h-8.48l1.774.7a7.467,7.467,0,0,1,4.726,6.947V40.107a7.469,7.469,0,0,1-.384,2.36,6.354,6.354,0,0,1-2.075,3.176,2.077,2.077,0,0,1-.159.136c-.035.033-.071.061-.133.11A8.971,8.971,0,0,1,97.48,47a5.076,5.076,0,0,1-1.836.5v.724h14.5v-.724c-1.362,0-6.58-2.313-6.58-6.161V8.627l22.346,37.461.822,1.4,23.9-38.111V40.7c0,3.188-4.661,6.8-6.161,6.8v.724H161.3l.035-.722a4.666,4.666,0,0,1-.642-.224l-.32-.134-.023.021a7.459,7.459,0,0,1-5.366-7.16V8.22A7.427,7.427,0,0,1,160.724.96l.039-.011a2.847,2.847,0,0,1,.6-.144l.2-.025a3.7,3.7,0,0,1,.474-.035L162.026.02Z" transform="translate(-44.257)" fill="#734f24"/><path d="M222.618,0V.768a3.82,3.82,0,0,1,.949.147,7.9,7.9,0,0,1,6.579,7.8l.03,2.215V40.01a7.454,7.454,0,0,1-6.2,7.357,3.6,3.6,0,0,1-.895.139v.724h39.816v-8.7h-.725a7.5,7.5,0,0,1-1.6,4.812,6.928,6.928,0,0,1-4.324,2.225h-18.03c-.164,0-1.079-.042-1.08-.042a2.945,2.945,0,0,1-2.789-2.94c0-.478.242-19.159.279-21.995h18.9a.84.84,0,0,0,0-1.679H234.63V9.808h0c-.035-2.75-.059-4.728-.059-4.884A3.123,3.123,0,0,1,237.525,1.8s.971-.044,1.145-.044h19.119a7.344,7.344,0,0,1,4.585,2.36,7.954,7.954,0,0,1,1.7,5.1h.768V0Z" transform="translate(-103.067)" fill="#734f24"/><path d="M350.037,47.555a17.434,17.434,0,0,1-3.271-.942,17.943,17.943,0,0,1-4.2-2.332,17.633,17.633,0,0,1-4.1-4.377c-.539-.823-1.044-1.587-1.505-2.332a34.852,34.852,0,0,0-3.333-4.68,12.06,12.06,0,0,0-4.443-3.194,23.018,23.018,0,0,0-7.512-1.548h7.435a12.172,12.172,0,0,0,6.386-1.708,13.2,13.2,0,0,0,4.582-4.578,12.293,12.293,0,0,0,1.727-6.391V13.487a12.175,12.175,0,0,0-1.727-6.371,13.067,13.067,0,0,0-4.582-4.6A12.177,12.177,0,0,0,329.108.81H316.292l-11-.019a7.83,7.83,0,0,1,7.83,7.826V40.539a7.827,7.827,0,0,1-4.47,7.069l0,0a5.871,5.871,0,0,1-1.5.527,4.372,4.372,0,0,1-.893.093H323.3c-1.587,0-6.806-2.32-6.806-6.325V28.15h3.88c3.174.524,8.176,2.41,10.282,9.685.024.1.062.178.082.26a13.72,13.72,0,0,0,13.138,9.642h7.473l-1.308-.183M316.489,27.227V6.634c0-4.881,6.588-4.881,6.588-4.881a12.452,12.452,0,0,1,6.391,1.688,12.6,12.6,0,0,1,4.6,4.52,12.1,12.1,0,0,1,1.707,6.367,12.654,12.654,0,0,1-3.7,8.959,12.714,12.714,0,0,1-8.959,3.939Z" transform="translate(-141.344 -0.366)" fill="#734f24"/><path d="M48,46.78a8.017,8.017,0,0,1-.969.642,12.274,12.274,0,0,1-4.582-3.833A27.2,27.2,0,0,1,40.68,40.9L25.334,1.97,24.891.864H15.062c1.626.058,6.1,1.373,5.991,4.679a14.508,14.508,0,0,1-.543,2.794S10.178,38.831,8.6,42.067c-1.754,3.589-6.468,5.84-8.6,6.2H18.186c-3.865,0-8.878-2.933-7.376-7.609.077-.248,2.39-7.752,2.39-7.752H33.086S37.121,43.157,37.808,44.9s-3.775,3.29-6.1,3.29H49.642a9.318,9.318,0,0,1-2.6-.764A6.882,6.882,0,0,0,48,46.78M13.522,31.959,20.976,9.742l.582-1.727.077-.241.625-1.89.082-.221,10.364,26.3Z" transform="translate(0 -0.4)" fill="#734f24"/></g></svg>