<svg xmlns="http://www.w3.org/2000/svg" viewBox="0 0 716.56 226.93"><defs><style scoped>.cls-1,.cls-4{fill:#4570b6;}.cls-2,.cls-3{fill:#d9e9ec;}.cls-3{fill-rule:evenodd;}.cls-4{stroke:#4570b6;stroke-miterlimit:10;stroke-width:0.1px;}</style></defs><g id="Layer_2" data-name="Layer 2"><g id="Layer_1-2" data-name="Layer 1"><rect class="cls-1" width="226.93" height="226.93"/><polygon class="cls-2" points="68.19 107.07 76.64 107.07 76.64 73.26 85.09 73.26 85.09 107.07 93.55 107.07 93.55 73.26 102 73.26 102 107.07 110.45 107.07 110.45 64.81 68.19 64.81 68.19 107.07"/><polygon class="cls-2" points="19.86 107.07 62.12 107.07 62.12 98.62 28.31 98.62 28.31 73.26 62.12 73.26 62.12 64.81 19.86 64.81 19.86 107.07"/><path class="cls-3" d="M97.4,147.25h0l3.56-1.4c1.57,3.72,2.51,6.14,2.86,7.28l-3.7,1.09a70.74,70.74,0,0,0-2.72-7m-5.49.66h0l3.91-.88A80.21,80.21,0,0,1,98,156.42l-4,.61a93.3,93.3,0,0,0-2.17-9.12m-5.14.09h0l4-.14q.59,7.06.55,11.41l-4-.18A61.21,61.21,0,0,0,86.77,148m-5.48,3.77h0a83.05,83.05,0,0,1-10.5,6l-2-4.11q2.55-1.06,4.38-1.89V140.46H70.07v-4.34h3.06V126.6H70.07v-4.34H80.48v4.34H77.34v9.52h2.8v4.34h-2.8v8.86l1.74-1.27,2.42,3.11c.31-1.18.59-2.44.85-3.78l4.25,1.19A33.94,33.94,0,0,1,81.11,161a10.26,10.26,0,0,0-3.27-2.63,24.23,24.23,0,0,0,3-5.14,8.35,8.35,0,0,1,.47-1.44m11.39-17H86.35v-2.32h6.33Zm0-6.14H86.35v-2a.44.44,0,0,1,.46-.48h5.87Zm-6.33,12.28h0v-2.32h6.33v2.32Zm-4.21,1.63h0v1.75c0,.53.24.79.72.79h20.75c.37,0,.55.12.55.35a71.26,71.26,0,0,1-.14,9.25,4.88,4.88,0,0,1-1.23,2.64,2.18,2.18,0,0,1-1.52.47,37,37,0,0,1-4.72-.7l.42,4.61c4.6.35,7.54,0,8.84-1.14a6,6,0,0,0,2-3.77q.67-3.85.59-14.87c0-.64-.24-1-.81-1H96.89v-2.32h9.44V134.8H96.89v-2.32h9.26v-3.82H96.89v-2.5h10.28V122H83.07a.84.84,0,0,0-.93,1Zm-42.59,4.9v13.95h4.38V147.47h8.15c.26,0,.39.13.39.36v7.1c0,.55-.39,1-1.15,1.32-1,.38-3.06.12-6-.75l.12,5q6.42,1.23,9.4-.27a3.27,3.27,0,0,0,2-3v-13a1,1,0,0,0-1.1-1.1H43.93v-3.32H39.55v3.32h-6a50.76,50.76,0,0,0,4.37-4.56.51.51,0,0,1,.17-.22H59.4V134H41.29c.43-.7.89-1.41,1.41-2.15l-3.07-2.06c.68-.26,1.48-.52,2.38-.78q6,1.74,13,4.42l1.19-4.21c-2.63-1-5.19-1.92-7.65-2.8,1.39-.65,2.89-1.34,4.5-2.11l-2-4a83.57,83.57,0,0,1-8.84,4.12,107,107,0,0,0-16-3.68l-1,4.3A83.68,83.68,0,0,1,34,126.78a67.49,67.49,0,0,1-12.36,1.41l1,4.33a57.57,57.57,0,0,0,13.74-1.84c.76-.21,1.61-.42,2.55-.65-1,1.48-1.86,2.82-2.68,4H21.27v4.34H32.62a49,49,0,0,1-8.85,6.76c-1.3.64-2.61,1.3-3.91,2l2.42,3.82q2.34-1.23,4.68-2.68v11.92h4.38V147.83c0-.2.12-.32.34-.36Z"/><path class="cls-3" d="M198.86,151.73h0L183,154.18l-1-4.43,16.82-2.63V121.38h4.39v25.08l3.18-.52.64,4.47-3.82.66v10.34h-4.39Zm-13.77-14.34h0l3.06-3.16a65.54,65.54,0,0,1,7.57,7.55l-3.27,2.89a79.06,79.06,0,0,0-7.36-7.28m1.48-11h0a78.67,78.67,0,0,1,8,8.64l3.4-2.8a88.6,88.6,0,0,0-8.2-8.86Zm-7.81,16.88h0c1.48,1.85,2.79,3.57,4,5.18l3.27-3q-3.44-4.23-7.23-8.11v-.48h5.61v-4.51h-5.61v-6.1a53.92,53.92,0,0,0,5.53-1.36l-.85-4.52a74.45,74.45,0,0,1-15,2.55l.59,4.52c1.81-.12,3.59-.28,5.31-.49v5.4h-6.55v4.51h6.34a42.21,42.21,0,0,1-7.78,13l4,1.85a51.21,51.21,0,0,0,3.95-6.28v15.79h4.38Zm-40.38-13.37h0v-2.5a.89.89,0,0,1,1-1h11.3a.88.88,0,0,1,1,1v2.58Zm13.3,4.17h0v2.24a1,1,0,0,1-1.1,1.13h-12.2v-3.37Zm-24.75-8.16h0q.69,0,.69.66v6.05H123v-6.05c0-.44.21-.66.64-.66Zm.69,28h0a.73.73,0,0,1-.81.83H123v-7.24h4.63Zm0-10.39H123V136.6h4.63ZM123,158.7h7.31a2.13,2.13,0,0,0,.6-.09l.38,3.51a62.08,62.08,0,0,0,14.71-4l-1.79-3.77a42.89,42.89,0,0,1-5.27,2,1.62,1.62,0,0,0-.55.18v-15h2.76q2.85,11.22,9.47,16.79c1.28,1.09,2.84,2.27,4.68,3.56l3.36-3.38q-6.12-3.47-8.88-7.06a50.26,50.26,0,0,0,7.35-6l-2.59-3.29a51.21,51.21,0,0,1-7,5.75,35.12,35.12,0,0,1-2.34-6.36h9.35a1.19,1.19,0,0,0,1.32-1.36V123.45a1.16,1.16,0,0,0-1.28-1.28H135.4c-.79,0-1.2.43-1.23,1.28v33.93a24.81,24.81,0,0,0-2.6.44l.09-.53V123.23a1.17,1.17,0,0,0-1.32-1.32H120.18c-.79,0-1.2.43-1.23,1.27v38.06h4Z"/><polygon class="cls-2" points="116.5 107.07 158.76 107.07 158.76 98.62 124.95 98.62 124.95 90.17 158.76 90.17 158.76 81.71 124.95 81.71 124.95 73.26 158.76 73.26 158.76 64.81 116.5 64.81 116.5 107.07"/><polygon class="cls-2" points="207.07 64.81 164.81 64.81 164.81 73.26 198.62 73.26 198.62 81.71 164.81 81.71 164.81 107.07 173.26 107.07 173.26 90.17 181.71 90.17 196 107.07 207.07 107.07 192.78 90.17 207.07 90.17 207.07 64.81"/><path class="cls-1" d="M271.29,149.06l-1.42,2c-.35.48-.83,1.08-1.47,1.8l-.33.38-1.7-5.3a46.38,46.38,0,0,0,7.58-11.8,10.24,10.24,0,0,1,.52-1.09l3.36,2.61a6,6,0,0,0-.28.71,24.45,24.45,0,0,1-2.14,4.4v23.59h-4.12Zm-4.59-15.4a38,38,0,0,0,8-10.56l3.79,1.66-.57,1.13a40.91,40.91,0,0,1-8.14,11.51Zm17.57,13.88V152a28.3,28.3,0,0,1-.9,8,24,24,0,0,1-3.08,6.18l-3.69-3.31a12.07,12.07,0,0,0,3-6,51.16,51.16,0,0,0,.57-8.48v-.9Zm14.78-23c.1-.44.22-1,.38-1.71l4,.43-.71,3.69c-.42,2-.7,3.24-.86,3.75H310v4.21h-1.94q-.66,12.6-3.65,20.42c.32.41.57.75.76,1a50.41,50.41,0,0,0,4.26,4.78,5,5,0,0,1,.57.57L307.62,166a81.17,81.17,0,0,1-5.3-6.49,40.62,40.62,0,0,1-5.83,6.15l-.61.52L293,162.41a25.69,25.69,0,0,0,7.1-7,58.85,58.85,0,0,1-3.22-9.9c-.1-.44-.22-1-.38-1.65l-.81,1.51-1,1.61-1.42-2.46H277.21v-3.93H293.7q3.07-5.31,5.35-16m-20.6,13.21V125.47h3.79v8.43h2.65V122.81h3.64V133.9h2.75v-8.43h3.84v12.31Zm13.87,9.76v7.29l1.76-1.51a11.81,11.81,0,0,0,1.09-1c.12-.16.33-.4.61-.71l1,3.88-1.37,1.37a48.2,48.2,0,0,1-7.39,5.88l-2.27-3.84c.19-.09.33-.16.42-.19a9.18,9.18,0,0,0,1-.57l1.13-.71v-9.85Zm8.39-12.6-.57,1.61-.62,1.66a36.2,36.2,0,0,0,2.66,12.65,67.51,67.51,0,0,0,2.13-13.74c0-.57,0-1.29.05-2.18Z"/><path class="cls-1" d="M329.46,131.06c.4,1,.71,1.84.9,2.51l.71,2.46-4.36.62-.62-2.8a15.69,15.69,0,0,0-.9-2.79h-2.08l-2.32,3c-.76.95-1.49,1.78-2.18,2.51-.13.13-.3.32-.52.57l-3.41-3.27a30.53,30.53,0,0,0,7.86-11.08l4.26.56-.75,2-.9,1.84h11.22v3.89ZM338,142.57l-.14,1.94-.19,2.41H357.5v4.22H341.77a17.75,17.75,0,0,0,6,6.7A34.86,34.86,0,0,0,358.3,162l-2.37,4.27A33.76,33.76,0,0,1,344.38,161a25.42,25.42,0,0,1-7.25-9.83q-3.13,10.19-19,15.25l-3.45-4.12q13.21-2.75,17.38-11.13H315.77v-4.22h17.29l.23-2.32.14-1.8c-.94.07-3,.1-6.25.1l-6.91,0-1.42-4.6,10,0c2.66,0,5.53,0,8.59,0q10,0,14.88-1.56l2.32,4q-7,1.14-14,1.61l-2.61.24m11.46-11.51c.32.76.54,1.34.67,1.75l.57,1.89-4.5.67-.43-2.28a7.26,7.26,0,0,0-.71-2h-2.8a24,24,0,0,1-4.54,5.16l-3.41-2.94a26.5,26.5,0,0,0,7.48-10.46l4.26.52-.75,2.08-.9,1.75H358.3v3.89Z"/><path class="cls-1" d="M369.33,145.74h-6v-4.17h6.39a24.45,24.45,0,0,0,.19-3.74l.05-4.55h-1.23l-1,3.08a21.35,21.35,0,0,1-1.51,3.36L363,136.88A59.34,59.34,0,0,0,367.25,123l3.65,1-.48,2.56-.57,2.56H377v4.16h-3v4.5a18,18,0,0,1-.24,3.79h4.08v4.17h-4.36l-.29,2.27-.23,1.38q1.61,1.28,3.6,3.12l2.22,2.14-2.56,3.69-1.84-2.23-2.37-2.7a43,43,0,0,1-6,12.27L363,161.8a28.25,28.25,0,0,0,4-6.54,36.08,36.08,0,0,0,2.32-9.52m9-14.92h9.33l.76-1.52.42-1a34.94,34.94,0,0,1-4,.28l-4.59.15-1-3.65q5.54-.37,11.84-.38a47.38,47.38,0,0,0,11.51-1.47l1.66,3.36a58,58,0,0,1-6.16,1.05l-5,.52-.52,1.09-.71,1.56h14.3v3.46h-7.58a24.43,24.43,0,0,0,8.1,5.49l-2.22,3.32-1.8-1-2-1.38V146H383.5v-5.35L381.65,142a10.91,10.91,0,0,1-1.94,1.18l-2.61-3.12q5.83-2.94,8.29-5.78h-7.1ZM397,162.75H385v-9.29h13.26v8.72l1.19.09c.91,0,1.37-.5,1.37-1.51v-9.34H382.74v15h-4V147.82h26.15v13.41a6.43,6.43,0,0,1-.83,3.62c-.55.81-1.71,1.21-3.48,1.21H397.8Zm-.28-22.69h-9.62v2.84h9.62Zm-1.61-4.41-1.09-1.37h-4.22l-.94,1.28-1.28,1.51h8.81Zm-.43,20.8h-6.16v3.31h6.16Z"/><path class="cls-1" d="M419,130.44c-.13-.44-.23-.81-.29-1.09a25.47,25.47,0,0,0-2.32-5.82l4.31-.72a36.14,36.14,0,0,1,2.84,7.63h5.12V134a49.08,49.08,0,0,1-4.26,7.82c-.13.19-.29.44-.48.76q2.13,1.8,3.18,2.79l3,2.89-2.61,3.88c-.78-.94-1.62-1.87-2.51-2.79l-2.32-2.27v19.32h-4.21V148.63a38.81,38.81,0,0,1-4.64,4.4c-.13.1-.31.24-.53.43l-1.89-4.64a41.93,41.93,0,0,0,12.6-14.35H412.08v-4Zm11.22,21.18V124.33h21.6v27.29h-5.35V160c0,1,.31,1.47.95,1.47H449c.89,0,1.43-.26,1.64-.76a9.28,9.28,0,0,0,.35-2.8c0-1.35.07-2.57.1-3.64l3.79,1.37q-.33,6.5-1.35,8.05a3.75,3.75,0,0,1-3.39,1.57h-3.22c-1.77,0-3-.4-3.65-1.19a6.33,6.33,0,0,1-1-4v-8.43h-3.84q-.57,9.31-9.33,14.77l-2.94-3.5q7.68-4.54,8.24-11.27Zm17.39-23.26H434.39v3.79h13.17Zm-13.17,11.22h13.16v-3.83H434.39Zm0,8h13.16v-4.27H434.39Z"/><path class="cls-1" d="M501,130.58v21H483.71v14.82h-4.87V151.57h-17v-21h17v-7.77h4.87v7.77Zm-22.16,4.27H466.47V147.3h12.37Zm17.52,0H483.71V147.3h12.65Z"/><path class="cls-1" d="M517.62,137.22a93,93,0,0,1-5.2,23.82l-4.51-2.75q2.14-6.43,3.25-10.87a75.19,75.19,0,0,0,1.73-11.25Zm8.15-2.7h-4.64v27c.13,1.68.68,2.8,1.66,3.37a6.85,6.85,0,0,0,3.5.85h9.05a7.61,7.61,0,0,0,4.55-1.47c.91-.69,1.47-2.1,1.68-4.21s.31-4.58.31-7.39v-.95l-4.69-1.42c0,1.55,0,2.74,0,3.6v1a28.13,28.13,0,0,1-.31,5.32c-.21.81-.88,1.21-2,1.21h-7.48a1.46,1.46,0,0,1-1.66-1.66Zm1-11.51a92,92,0,0,1,9.28,9.71l1.56,1.89-4.12,3.6a81.33,81.33,0,0,0-8.67-10.85l-1.65-1.66Zm19.84,36.18A98.81,98.81,0,0,0,540,137.64l4.59-1.42a130.24,130.24,0,0,1,6.3,18.76c.16.57.37,1.26.62,2.08Z"/><path class="cls-4" d="M285.57,69.32l-3.81,2.46a6.89,6.89,0,0,0-2.05-2.63,4.44,4.44,0,0,0-2.6-.71,4.61,4.61,0,0,0-3.26,1.21,3.89,3.89,0,0,0-1.29,3q0,2.49,3.39,4L279.06,78a13.36,13.36,0,0,1,5.56,4.08,9.67,9.67,0,0,1,1.77,5.9,10.85,10.85,0,0,1-2.88,7.74,9.42,9.42,0,0,1-7.17,3.07,9.15,9.15,0,0,1-6.71-2.61,12.42,12.42,0,0,1-3.26-7.36l4.77-1.15a9.47,9.47,0,0,0,1.13,4.14A4.8,4.8,0,0,0,276.52,94a4.73,4.73,0,0,0,3.66-1.6,5.84,5.84,0,0,0,1.46-4.07,6.09,6.09,0,0,0-.26-1.81,4.7,4.7,0,0,0-.79-1.52,6.62,6.62,0,0,0-1.38-1.29,13,13,0,0,0-2-1.16l-3-1.36q-6.41-2.94-6.41-8.61a8.5,8.5,0,0,1,2.69-6.4,9.28,9.28,0,0,1,6.7-2.59Q282.55,63.61,285.57,69.32Z"/><path class="cls-4" d="M331.88,64.27h4.71V98.2h-4.71V64.27"/><path class="cls-4" d="M348.8,64.27V93.39H358V98.2H344.09V64.27Z"/><path class="cls-4" d="M379.67,69.08H367.16v8.15h12.15v4.82H367.16V93.39h12.51V98.2H362.45V64.27h17.22Z"/><path class="cls-4" d="M409.21,83.74l9.66,14.46h-5.76L404.2,84.31h-.86V98.2h-4.7V64.27h5.51q6.19,0,8.94,2.52a9.68,9.68,0,0,1,3,7.43,10.17,10.17,0,0,1-1.9,6.2A8.44,8.44,0,0,1,409.21,83.74Zm-5.87-3.89h1.5q6.71,0,6.7-5.56,0-5.21-6.51-5.21h-1.69Z"/><path class="cls-4" d="M440,88.66H425.85a6.8,6.8,0,0,0,1.58,4.2A4.61,4.61,0,0,0,431,94.4a4.41,4.41,0,0,0,2.81-.88,12.26,12.26,0,0,0,2.49-3.26l3.84,2.33a16.35,16.35,0,0,1-1.88,2.83,10,10,0,0,1-2.12,1.93,7.87,7.87,0,0,1-2.45,1.11,10.81,10.81,0,0,1-2.85.35,8.89,8.89,0,0,1-7.07-3.07,12.17,12.17,0,0,1-2.67-8.22,12.52,12.52,0,0,1,2.58-8.22,8.6,8.6,0,0,1,6.92-3.1,8.48,8.48,0,0,1,6.87,3c1.67,2,2.51,4.76,2.51,8.29Zm-4.67-4q-.94-4-4.59-4a4.34,4.34,0,0,0-2.88,1.07,4.76,4.76,0,0,0-1,1.24,6.11,6.11,0,0,0-.65,1.65Z"/><path class="cls-4" d="M449.64,81.41V98.2h-4.57V81.41h-1.61V76.79h1.61V68.53c0-2.69.44-4.6,1.3-5.71a6.1,6.1,0,0,1,5.17-2.33,8.2,8.2,0,0,1,3.06.77v5.05l-.47-.26a5.41,5.41,0,0,0-2.43-.82,1.62,1.62,0,0,0-1.63,1,9.84,9.84,0,0,0-.43,3.56v7.05h5v4.62Z"/><path class="cls-4" d="M457.22,76.79h4.55v1.92a8.88,8.88,0,0,1,2.22-2,4.77,4.77,0,0,1,2.35-.55,7,7,0,0,1,3.76,1.27L468,82a4.16,4.16,0,0,0-2.53-1q-3.72,0-3.72,6.11V98.2h-4.55Z"/><path class="cls-4" d="M486.94,76.79h4.57V98.2h-4.57V96a8.28,8.28,0,0,1-12.8-.36,12.59,12.59,0,0,1-2.65-8.17,12.21,12.21,0,0,1,2.65-8,8.26,8.26,0,0,1,6.63-3.21,8.09,8.09,0,0,1,6.17,3.08ZM476.15,87.43a7.89,7.89,0,0,0,1.51,5,4.81,4.81,0,0,0,3.93,2,5,5,0,0,0,4.08-1.89,8.74,8.74,0,0,0,0-9.94,5,5,0,0,0-4.05-1.91,4.87,4.87,0,0,0-3.92,1.94A7.48,7.48,0,0,0,476.15,87.43Z"/><path class="cls-4" d="M512.58,77.72v6.57a11.69,11.69,0,0,0-2.79-2.84,5.08,5.08,0,0,0-2.85-.79,5.41,5.41,0,0,0-4.27,2,7.2,7.2,0,0,0-1.7,4.9,7.38,7.38,0,0,0,1.64,4.94,5.33,5.33,0,0,0,4.23,1.94,5.45,5.45,0,0,0,2.89-.77,12.34,12.34,0,0,0,2.85-2.9v6.52A11.2,11.2,0,0,1,507,98.81a10.14,10.14,0,0,1-7.64-3.21,11.17,11.17,0,0,1-3.08-8,11.3,11.3,0,0,1,3.12-8.08,10.08,10.08,0,0,1,7.64-3.3A10.74,10.74,0,0,1,512.58,77.72Z"/><path class="cls-4" d="M521.68,81.41V98.2h-4.55V81.41h-1.94V76.79h1.94V69h4.55v7.84h3.53v4.62Z"/><path class="cls-4" d="M527.62,67.89a3.2,3.2,0,0,1,.87-2.24,2.79,2.79,0,0,1,4.18,0,3.15,3.15,0,0,1,.88,2.26,3.22,3.22,0,0,1-.88,2.29,2.67,2.67,0,0,1-2.08,1,2.76,2.76,0,0,1-2.1-1A3.29,3.29,0,0,1,527.62,67.89Zm5.24,8.9V98.2h-4.55V76.79Z"/><path class="cls-4" d="M541.07,76.79l5.09,12,5.08-12h5.11L546.12,99.67,536,76.79Z"/><path class="cls-4" d="M576.65,88.66H562.54a6.8,6.8,0,0,0,1.58,4.2,4.62,4.62,0,0,0,3.57,1.54,4.46,4.46,0,0,0,2.82-.88A12.69,12.69,0,0,0,573,90.26l3.84,2.33A16.94,16.94,0,0,1,575,95.42a10.32,10.32,0,0,1-2.13,1.93,7.92,7.92,0,0,1-2.44,1.11,10.83,10.83,0,0,1-2.86.35,8.9,8.9,0,0,1-7.07-3.07,12.17,12.17,0,0,1-2.67-8.22,12.47,12.47,0,0,1,2.59-8.22,9.31,9.31,0,0,1,13.79-.09c1.67,2,2.5,4.76,2.5,8.29Zm-4.67-4q-.94-4-4.59-4a4.39,4.39,0,0,0-2.88,1.07,5,5,0,0,0-1,1.24,6.11,6.11,0,0,0-.65,1.65Z"/><path class="cls-4" d="M618.34,66.09v6.07q-4.08-3.72-8.45-3.72a10.4,10.4,0,0,0-8.11,3.76,13.28,13.28,0,0,0-3.31,9.14,12.94,12.94,0,0,0,3.31,9A10.52,10.52,0,0,0,609.91,94a9.18,9.18,0,0,0,4.22-.88,12.37,12.37,0,0,0,2-1.18,24.22,24.22,0,0,0,2.19-1.81v6.18a15.91,15.91,0,0,1-8.49,2.48,15.05,15.05,0,0,1-11.42-5.07,17.57,17.57,0,0,1-4.72-12.35,18.34,18.34,0,0,1,3.95-11.56,15.19,15.19,0,0,1,12.55-6.22A14.93,14.93,0,0,1,618.34,66.09Z"/><path class="cls-4" d="M641.35,88.66H627.24a6.8,6.8,0,0,0,1.58,4.2,4.61,4.61,0,0,0,3.57,1.54,4.41,4.41,0,0,0,2.81-.88,12.26,12.26,0,0,0,2.49-3.26l3.84,2.33a16.35,16.35,0,0,1-1.88,2.83,10,10,0,0,1-2.12,1.93,7.87,7.87,0,0,1-2.45,1.11,10.81,10.81,0,0,1-2.85.35,8.89,8.89,0,0,1-7.07-3.07,12.17,12.17,0,0,1-2.67-8.22,12.52,12.52,0,0,1,2.58-8.22A8.6,8.6,0,0,1,632,76.2a8.48,8.48,0,0,1,6.87,3c1.67,2,2.51,4.76,2.51,8.29Zm-4.67-4q-.95-4-4.59-4a4.34,4.34,0,0,0-2.88,1.07,4.76,4.76,0,0,0-1,1.24,6.11,6.11,0,0,0-.65,1.65Z"/><path class="cls-4" d="M646.32,76.79h4.57v2a7.2,7.2,0,0,1,5.38-2.57,6.53,6.53,0,0,1,5.36,2.35q1.65,2,1.65,6.53V98.2h-4.57v-12a8.49,8.49,0,0,0-.8-4.37A3.16,3.16,0,0,0,655,80.64a3.43,3.43,0,0,0-3.22,1.63q-.93,1.59-.93,5.6V98.2h-4.57Z"/><path class="cls-4" d="M673.72,81.41V98.2h-4.55V81.41h-1.94V76.79h1.94V69h4.55v7.84h3.54v4.62Z"/><path class="cls-4" d="M698.65,88.66H684.54a6.79,6.79,0,0,0,1.57,4.2,4.64,4.64,0,0,0,3.58,1.54,4.41,4.41,0,0,0,2.81-.88A12.26,12.26,0,0,0,695,90.26l3.84,2.33A16.35,16.35,0,0,1,697,95.42a10.28,10.28,0,0,1-2.12,1.93,8.08,8.08,0,0,1-2.45,1.11,10.81,10.81,0,0,1-2.85.35,8.91,8.91,0,0,1-7.08-3.07,12.17,12.17,0,0,1-2.67-8.22,12.52,12.52,0,0,1,2.59-8.22,9.31,9.31,0,0,1,13.79-.09c1.67,2,2.51,4.76,2.51,8.29Zm-4.67-4c-.64-2.64-2.16-4-4.59-4a4.27,4.27,0,0,0-1.56.28,4.14,4.14,0,0,0-1.32.79,4.76,4.76,0,0,0-1,1.24,6.11,6.11,0,0,0-.65,1.65Z"/><path class="cls-4" d="M703.62,76.79h4.55v1.92a8.88,8.88,0,0,1,2.22-2,4.77,4.77,0,0,1,2.35-.55,7,7,0,0,1,3.76,1.27L714.42,82a4.16,4.16,0,0,0-2.53-1q-3.72,0-3.72,6.11V98.2h-4.55Z"/><polygon class="cls-4" points="308.26 88.09 298.28 63.52 297.22 63.52 290.98 98.2 295.85 98.2 299.2 77.69 308.18 99.76 317.42 77.72 320.43 98.2 325.26 98.2 319.65 63.52 318.6 63.52 308.26 88.09"/></g></g></svg>