<svg width="105" height="105" viewBox="0 0 105 105" fill="none" xmlns="http://www.w3.org/2000/svg">
<path d="M52.1739 104.562C80.9888 104.562 104.348 81.2026 104.348 52.3878C104.348 23.5729 80.9888 0.213867 52.1739 0.213867C23.3591 0.213867 0 23.5729 0 52.3878C0 81.2026 23.3591 104.562 52.1739 104.562Z" fill="white"/>
<path d="M60.5039 14.4728C57.81 13.6158 55.0008 13.1759 52.1738 13.1685C48.1825 13.1713 44.2403 14.0486 40.6245 15.7387C37.0087 17.4288 33.8071 19.8907 31.245 22.9511L44.1699 33.8009L60.5039 14.4728Z" fill="#1A73E8"/>
<path d="M31.2154 22.9507C27.0818 27.876 24.8148 34.0997 24.8122 40.5297C24.7401 45.0263 25.6718 49.4823 27.5395 53.5732L44.1403 33.8301L31.2154 22.9507Z" fill="#EA4335"/>
<path d="M52.2035 30.0655C54.2037 30.0627 56.1629 30.6326 57.8496 31.7078C59.5362 32.783 60.8798 34.3186 61.7216 36.133C62.5633 37.9475 62.8681 39.965 62.5997 41.9471C62.3314 43.9292 61.5013 45.7931 60.2075 47.3185C60.2075 47.3185 68.4486 37.4766 76.5118 27.9312C74.8584 24.7463 72.5937 21.9184 69.847 19.6091C67.1002 17.2999 63.9254 15.5545 60.5039 14.4727L44.1403 33.8007C45.1355 32.6335 46.3713 31.6954 47.7631 31.0507C49.1549 30.406 50.6697 30.0699 52.2035 30.0655Z" fill="#4285F4"/>
<path d="M52.2036 50.9941C50.8273 50.9964 49.4641 50.7276 48.1918 50.2029C46.9194 49.6782 45.763 48.9079 44.7884 47.9362C43.8139 46.9644 43.0404 45.8101 42.5121 44.5393C41.9838 43.2684 41.7111 41.9059 41.7095 40.5297C41.6887 38.077 42.5516 35.6988 44.1403 33.8301L27.5396 53.5732C30.3854 59.8577 35.1285 64.9566 39.9901 71.3004L60.2075 47.2886C59.2288 48.4598 58.0045 49.4016 56.6213 50.047C55.2381 50.6925 53.7299 51.026 52.2036 51.0237" fill="#FBBC04"/>
<path d="M59.8814 77.9109C69.0119 63.6224 79.6245 57.1599 79.6245 40.5591C79.6239 36.1634 78.5665 31.8322 76.5415 27.9307L40.0198 71.2706C41.5613 73.2864 43.1621 75.5986 44.7036 77.9702C50.2767 86.567 48.7352 91.6658 52.2925 91.6658C55.8498 91.6658 54.3083 86.5077 59.8814 77.9109Z" fill="#34A853"/>
</svg>
