<svg id="Layer_1" data-name="Layer 1" xmlns="http://www.w3.org/2000/svg" viewBox="0 0 300 97"><defs><style scoped>.cls-1{fill:#1b407a;}.cls-2,.cls-3{fill:#fff;}.cls-3{fill-rule:evenodd;}</style></defs><rect class="cls-1" x="32.22" y="7.37" width="82.26" height="82.26"/><polygon class="cls-2" points="56.94 46.18 60 46.18 60 33.93 63.07 33.93 63.07 46.18 66.13 46.18 66.13 33.93 69.2 33.93 69.2 46.18 72.26 46.18 72.26 30.86 56.94 30.86 56.94 46.18"/><polygon class="cls-2" points="39.42 46.18 54.74 46.18 54.74 43.12 42.48 43.12 42.48 33.93 54.74 33.93 54.74 30.86 39.42 30.86 39.42 46.18"/><path class="cls-3" d="M67.53,60.75h0l1.29-.51c.57,1.35.91,2.23,1,2.64l-1.34.4a25.68,25.68,0,0,0-1-2.53m-2,.24h0L67,60.67a28.57,28.57,0,0,1,.8,3.4l-1.44.22A31,31,0,0,0,65.54,61Zm-1.87,0h0L65.14,61c.14,1.71.21,3.08.2,4.13L63.9,65A20.81,20.81,0,0,0,63.67,61Zm-2,1.37h0a30.08,30.08,0,0,1-3.81,2.16l-.74-1.49,1.59-.69V58.29H57.62V56.71h1.11V53.26H57.62V51.69H61.4v1.57H60.26v3.45h1v1.58h-1V61.5l.63-.46.87,1.12c.12-.42.22-.88.31-1.36l1.54.42a12.09,12.09,0,0,1-2,4.5,3.92,3.92,0,0,0-1.18-1,9.2,9.2,0,0,0,1.08-1.86A2.88,2.88,0,0,1,61.69,62.39Zm4.13-6.16h-2.3v-.84h2.3Zm0-2.22h-2.3v-.73a.17.17,0,0,1,.17-.18h2.13Zm-2.3,4.45h0v-.84h2.3v.84ZM62,59.05h0v.63c0,.2.08.29.26.29h7.52c.13,0,.2.05.2.13a27,27,0,0,1,0,3.35,1.79,1.79,0,0,1-.45,1,.81.81,0,0,1-.55.17,13,13,0,0,1-1.71-.25L67.37,66c1.67.12,2.74,0,3.21-.42a2.16,2.16,0,0,0,.74-1.37,35.45,35.45,0,0,0,.21-5.38c0-.24-.08-.36-.29-.37h-3.9v-.84h3.42V56.23H67.34v-.84H70.7V54H67.34V53.1h3.73V51.59H62.33c-.22,0-.33.12-.33.35ZM46.56,60.83v5h1.59v-5h3c.09,0,.14,0,.14.13v2.57q0,.3-.42.48a4.24,4.24,0,0,1-2.18-.27l0,1.81a5.63,5.63,0,0,0,3.41-.1,1.18,1.18,0,0,0,.74-1.09V59.65a.35.35,0,0,0-.4-.39H48.15V58.05H46.56v1.21H44.38A18.72,18.72,0,0,0,46,57.6a.16.16,0,0,1,.06-.08h7.72V56H47.19c.15-.26.32-.51.51-.78l-1.11-.75c.24-.09.53-.19.86-.28,1.46.42,3,1,4.72,1.6l.43-1.52c-1-.36-1.88-.7-2.78-1l1.64-.76L50.75,51a30.54,30.54,0,0,1-3.21,1.5,39.64,39.64,0,0,0-5.78-1.34l-.35,1.56a30.63,30.63,0,0,1,3.13.64,25.43,25.43,0,0,1-4.49.51l.36,1.57a20.76,20.76,0,0,0,5-.67l.92-.24c-.35.54-.67,1-1,1.45H39.93v1.57h4.12A17.73,17.73,0,0,1,40.84,60c-.47.23-1,.47-1.42.72l.88,1.38c.56-.3,1.13-.62,1.69-1v4.32h1.59V61c0-.08,0-.12.13-.13Z"/><path class="cls-3" d="M104.31,62.37h0l-5.75.89-.35-1.61,6.1-.95V51.37h1.59v9.09l1.15-.19.23,1.62-1.38.24v3.75h-1.59Zm-5-5.2h0L100.42,56a23.46,23.46,0,0,1,2.75,2.73L102,59.81A27.75,27.75,0,0,0,99.31,57.17Zm.54-4h0a28.42,28.42,0,0,1,2.9,3.14l1.23-1a31.82,31.82,0,0,0-3-3.21ZM97,59.3h0c.54.67,1,1.3,1.44,1.88l1.18-1.08A38.68,38.68,0,0,0,97,57.16V57h2V55.34H97v-2.2a18.83,18.83,0,0,0,2-.5L98.72,51a26.62,26.62,0,0,1-5.43.93l.22,1.63c.66,0,1.3-.09,1.92-.17v2H93.06V57h2.3a15.35,15.35,0,0,1-2.82,4.72l1.46.67a18.7,18.7,0,0,0,1.43-2.27v5.72H97ZM82.38,54.45h0v-.9a.32.32,0,0,1,.37-.38h4.1c.23,0,.34.11.35.35v.93ZM87.2,56h0v.81a.36.36,0,0,1-.39.41H82.38V56Zm-9-3h0c.17,0,.25.08.25.24v2.19H76.8V53.25A.21.21,0,0,1,77,53Zm.25,10.14h0a.26.26,0,0,1-.29.3H76.8V60.83h1.68Zm0-3.77H76.8V56.89h1.68ZM76.8,64.9h2.65a.78.78,0,0,0,.22,0l.14,1.27a22.48,22.48,0,0,0,5.33-1.45l-.65-1.37a14.3,14.3,0,0,1-1.91.73l-.2.07V58.7h1a11.37,11.37,0,0,0,3.44,6.09c.46.39,1,.82,1.69,1.28l1.22-1.22a10.66,10.66,0,0,1-3.22-2.56,18.2,18.2,0,0,0,2.67-2.18l-.94-1.19A18.13,18.13,0,0,1,85.71,61a12.87,12.87,0,0,1-.85-2.3h3.39a.43.43,0,0,0,.48-.49V52.12a.42.42,0,0,0-.46-.46h-7c-.28,0-.43.15-.44.46v12.3a7.54,7.54,0,0,0-1,.16,1.29,1.29,0,0,0,0-.19V52a.42.42,0,0,0-.48-.48H75.79a.41.41,0,0,0-.45.46v13.8H76.8Z"/><polygon class="cls-2" points="74.45 46.18 89.77 46.18 89.77 43.12 77.52 43.12 77.52 40.05 89.77 40.05 89.77 36.99 77.52 36.99 77.52 33.93 89.77 33.93 89.77 30.86 74.45 30.86 74.45 46.18"/><polygon class="cls-2" points="107.28 30.86 91.96 30.86 91.96 33.93 104.22 33.93 104.22 36.99 91.96 36.99 91.96 46.18 95.03 46.18 95.03 40.05 98.09 40.05 103.27 46.18 107.28 46.18 102.1 40.05 107.28 40.05 107.28 30.86"/><path class="cls-1" d="M144.09,55.39l-2.18-.84-1.79-.64,1.37-.63a12.41,12.41,0,0,0,1.62-.91l.2-.13-1.74-1-.08.05a20,20,0,0,1-4.06,1.8c-1-.31-2-.6-3.08-.83l-2.94-.66L130.17,53l2.61.59,1.47.4.2.06a31.09,31.09,0,0,1-4.62,1l-.22,0,1.1,1.81.1,0c1.11-.21,2.48-.56,4.09-1a6.11,6.11,0,0,1-.77,1.24h-5v1.83h3.68a16.43,16.43,0,0,1-4.06,3.49l-.15.1L130.11,64l.11-.07a14.67,14.67,0,0,0,1.92-1.6v4.31H134V62.31h2.92v5.14h1.87V62.31H142v1.86c0,.29-.13.41-.42.41L140,64.5l.39,1.86h1.37a2.22,2.22,0,0,0,1.67-.47,2.11,2.11,0,0,0,.43-1.48V60.54h-5V59.16h-1.87v1.38h-3l.05,0c.42-.47.86-1,1.31-1.61h9.58V57.06h-1.8Zm-7.46,1.31.48-.9-1.42-.23c.59-.18,1.21-.39,1.86-.61l2.72,1c.31.11,1,.41,2.13.88l.55.23h-6.54A2.5,2.5,0,0,0,136.63,56.7Z"/><path class="cls-1" d="M158.32,65.11l1.44-.49-.11-.57a20,20,0,0,0-.65-2.37l0-.13-1.39.37,0,.15c.19.65.32,1.14.4,1.47Z"/><path class="cls-1" d="M151.88,61.53h8.31c-.1,1-.14,2-.14,3.06,0,.51-.12.65-.18.69a2.45,2.45,0,0,1-1.08.13l-.56,0-.44,0c0-.2-.06-.36-.08-.5a18.94,18.94,0,0,0-.54-2.91l0-.13-1.41.22,0,.16a20.66,20.66,0,0,1,.46,3.5v.17l1.38-.27.39,1.61.09,0s.17,0,.6,0a4.07,4.07,0,0,0,2.52-.57,2.56,2.56,0,0,0,.71-2.07l.16-4.72h-4V58.78h3.7V57.2h-3.7v-1h3.7V54.59h-3.7v-1h4.1V51.94h-10.3Zm4.36-2.75v1.11h-2.53V58.78Zm0-2.61v1h-2.53v-1Zm0-2.56v1h-2.53v-1Z"/><path class="cls-1" d="M151.43,64.42V62.49l-1.1.47-.58.19v-4h1.54V57.38h-1.54V54h1.73V52.18h-5.25V54h1.7v3.39h-1.51v1.73h1.51v4.57a4.06,4.06,0,0,1-.68.21l-1.05.24.3,2,.17,0a32.49,32.49,0,0,0,4.67-1.6Z"/><path class="cls-1" d="M152.1,61.94a20.85,20.85,0,0,1-1.3,4.35l-.06.14,1.62.67.06-.13a15.69,15.69,0,0,0,1.16-4c0-.19,0-.44.1-.74l0-.14-1.57-.31Z"/><path class="cls-1" d="M155.58,64.31a12.75,12.75,0,0,0-.21-2.16l0-.12-1.51.06v.15c.07.83.1,1.57.1,2.19,0,.87,0,1.57,0,2.07v.16l1.74-.08,0-.16C155.6,66.06,155.58,65.35,155.58,64.31Z"/><path class="cls-1" d="M177.21,63.5l1-.77a10.38,10.38,0,0,0,1.3-1.3l.1-.11-1.38-1.2-.1.11-.3.37A8.11,8.11,0,0,1,176.29,62a4.84,4.84,0,0,1-.54-1.38c-.06-.29-.1-.51-.13-.66H179V52h-8.33V65.2l-1,.24V52.06h-5.25V67h1.8V65.64h1.64v1h1.81v-.85l.57,1.45.13,0L171,67a30.68,30.68,0,0,0,3.89-1.3l.1,0-.19-1.75-1.4.52-.89.3V60h1.25a13.34,13.34,0,0,0,1,3.36,9.5,9.5,0,0,0,2.09,2.72c1.26,1.17,1.61,1.33,1.78,1.33h.07l1.32-1.59-.15-.09A10.42,10.42,0,0,1,177.21,63.5Zm-11-7.56V53.71h1.64v2.23Zm0,3.93V57.5h1.64v2.37Zm1.64,1.61V64h-1.64V61.48Zm9.28-4.78v1.61h-4.58V56.7Zm-4.58-1.63V53.69h4.58v1.38Z"/><path class="cls-1" d="M189.85,54.1c.58.38,1,.66,1.25.86l1.59,1.23,1.25-1.52-1.67-1.2a16,16,0,0,0-1.58-1l-.1,0-1.19,1.33.13.1A2.11,2.11,0,0,0,189.85,54.1Z"/><path class="cls-1" d="M190.24,56.52l-1.19,1.35.14.09.56.35c.53.34,1.37,1,2.51,1.89l.12.09,1.24-1.53-.12-.09a21.14,21.14,0,0,0-3.15-2.09Z"/><polygon class="cls-1" points="196.07 51.23 194.2 51.23 194.2 60.98 188.54 61.81 188.54 63.69 194.2 62.82 194.2 67.45 196.07 67.45 196.07 62.58 197.59 62.32 197.59 60.48 196.07 60.74 196.07 51.23"/><path class="cls-1" d="M189.28,60.26,189,60h0c-.49-.54-.88-.94-1.14-1.18l-1.3-1.22H189V55.8h-2.58V53.68l.13,0a18.14,18.14,0,0,0,2.34-.64l.14,0-.68-1.66-.14,0a25,25,0,0,1-6.46,1.21h-.18l.42,1.71,1.44-.11c.16,0,.52-.06,1.1-.16h.05v1.8h-3.15v1.75h3a22,22,0,0,1-3.09,5l-.06.08,1.12,1.8.13-.17a20.58,20.58,0,0,0,2-3.2v6.43l1.84-.08V59.81l.66.8c.35.44.69.87,1,1.29l.13.18,1.12-1.74Z"/><path class="cls-1" d="M208.06,51.23H206v2.84h-6.21v8H206v5.41h2.08V62h6.32v-8h-6.32Zm-6.3,9V55.92H206v4.26Zm10.63-4.26v4.26h-4.33V55.92Z"/><path class="cls-1" d="M232.72,63.85c-.09-.3-.16-.55-.22-.76a48.24,48.24,0,0,0-2.31-6.87l-.05-.12-2,.6.07.16a35.88,35.88,0,0,1,2.39,7.84l0,.18,2.09-.9Z"/><path class="cls-1" d="M225.86,57.09l.1.14,1.74-1.52-.09-.12c-.24-.27-.42-.5-.58-.69a33.79,33.79,0,0,0-3.4-3.56l-.09-.08L222,52.42l.72.73A29,29,0,0,1,225.86,57.09Z"/><path class="cls-1" d="M227.19,61.42c0,.57,0,1,0,1.32v.34a10.54,10.54,0,0,1-.1,1.91c0,.14-.14.33-.6.33h-2.73c-.32,0-.46-.14-.46-.46V55.51h-2v10a1.58,1.58,0,0,0,.68,1.35,2.65,2.65,0,0,0,1.35.33h3.31a2.91,2.91,0,0,0,1.75-.57,2.17,2.17,0,0,0,.67-1.64,27.06,27.06,0,0,0,.12-2.72v-.45l-2-.61Z"/><path class="cls-1" d="M218.31,56.25a27,27,0,0,1-.63,4.08c-.27,1.08-.67,2.42-1.18,4l0,.11,1.9,1.16.06-.17a34.24,34.24,0,0,0,1.92-8.74v-.14l-2-.44Z"/><path class="cls-1" d="M129,37.41c0-4.07,2.61-6.45,5.73-6.45a5,5,0,0,1,3.61,1.58L137,34.11a3.16,3.16,0,0,0-2.26-1c-1.87,0-3.27,1.6-3.27,4.25s1.27,4.29,3.22,4.29a3.45,3.45,0,0,0,2.55-1.21l1.3,1.53a5,5,0,0,1-3.94,1.82C131.52,43.76,129,41.52,129,37.41Z"/><path class="cls-1" d="M138.89,37.88h4.54v1.74h-4.54Z"/><path class="cls-1" d="M145.42,31.2h2.73l2.1,5.76c.27.77.5,1.58.75,2.38h.08c.27-.8.49-1.61.75-2.38l2-5.76h2.73V43.52h-2.24V38.37c0-1.16.18-2.88.29-4h-.06l-1,2.9-1.9,5.18h-1.42l-1.91-5.18-1-2.9h-.07c.12,1.16.31,2.88.31,4v5.15h-2.21Z"/><path class="cls-1" d="M159.32,31.2h7.56v2h-5.1v2.85h4.33v2.07h-4.33v3.3h5.28v2.06h-7.74Z"/><path class="cls-1" d="M176,43.52l-2.53-4.66H171.7v4.66h-2.47V31.2h4.3c2.58,0,4.63.9,4.63,3.73a3.54,3.54,0,0,1-2.35,3.55l2.89,5Zm-4.25-6.61h1.6c1.58,0,2.45-.67,2.45-2s-.87-1.79-2.45-1.79h-1.6Z"/><path class="cls-1" d="M184.66,31.2h7.56v2h-5.1v2.85h4.33v2.07h-4.33v3.3h5.28v2.06h-7.74Z"/><path class="cls-1" d="M193.71,47.09l.45-1.88a2.45,2.45,0,0,0,.65.11,1.79,1.79,0,0,0,1.75-1.41l.16-.55-3.63-9.17h2.47L197,38.53c.28.83.52,1.73.78,2.63h.08l.67-2.63,1.28-4.34h2.35l-3.31,9.62c-.82,2.2-1.82,3.46-3.9,3.46A4.1,4.1,0,0,1,193.71,47.09Z"/><path class="cls-1" d="M202.69,38.87c0-3,2.11-4.91,4.35-4.91,2.56,0,3.9,1.88,3.9,4.46a4.42,4.42,0,0,1-.12,1.12h-5.75a2.45,2.45,0,0,0,2.58,2.33,3.79,3.79,0,0,0,2.1-.65l.84,1.5a5.85,5.85,0,0,1-3.27,1A4.52,4.52,0,0,1,202.69,38.87Zm6.15-.94c0-1.27-.57-2.07-1.77-2.07a2.1,2.1,0,0,0-2,2.07Z"/><path class="cls-1" d="M215.66,37.41c0-4.07,2.61-6.45,5.73-6.45A5,5,0,0,1,225,32.54l-1.3,1.57a3.16,3.16,0,0,0-2.26-1c-1.87,0-3.27,1.6-3.27,4.25s1.27,4.29,3.22,4.29a3.45,3.45,0,0,0,2.55-1.21l1.3,1.53a5,5,0,0,1-3.94,1.82C218.19,43.76,215.66,41.52,215.66,37.41Z"/><path class="cls-1" d="M226.11,38.87c0-3,2.11-4.91,4.34-4.91,2.57,0,3.9,1.88,3.9,4.46a5,5,0,0,1-.11,1.12h-5.75a2.45,2.45,0,0,0,2.58,2.33,3.82,3.82,0,0,0,2.1-.65l.83,1.5a5.82,5.82,0,0,1-3.26,1A4.52,4.52,0,0,1,226.11,38.87Zm6.14-.94c0-1.27-.56-2.07-1.76-2.07a2.11,2.11,0,0,0-2,2.07Z"/><path class="cls-1" d="M236,34.19h2l.16,1.24h.07a4.32,4.32,0,0,1,3-1.47c2,0,2.88,1.4,2.88,3.75v5.81h-2.44V38c0-1.43-.4-1.95-1.32-1.95a2.69,2.69,0,0,0-1.95,1v6.41H236Z"/><path class="cls-1" d="M246.74,40.26V36.13h-1.32V34.31l1.43-.12.29-2.49h2.05v2.49h2.29v1.94h-2.29v4.13c0,1.06.43,1.56,1.26,1.56a2.75,2.75,0,0,0,.92-.2l.4,1.79a6.22,6.22,0,0,1-2,.35C247.59,43.76,246.74,42.36,246.74,40.26Z"/><path class="cls-1" d="M252.15,38.87c0-3,2.12-4.91,4.35-4.91,2.57,0,3.9,1.88,3.9,4.46a4.42,4.42,0,0,1-.12,1.12h-5.74a2.45,2.45,0,0,0,2.58,2.33,3.84,3.84,0,0,0,2.1-.65l.83,1.5a5.85,5.85,0,0,1-3.26,1A4.53,4.53,0,0,1,252.15,38.87Zm6.15-.94c0-1.27-.57-2.07-1.76-2.07a2.11,2.11,0,0,0-2,2.07Z"/><path class="cls-1" d="M261.8,34.31h2L264,36H264a3.21,3.21,0,0,1,2.65-1.88,2.57,2.57,0,0,1,1.1.2l-.43,2.11a3,3,0,0,0-1-.15,2.46,2.46,0,0,0-2.15,1.84v5.56H261.8Z"/></svg>