<svg version="1.1" id="图层_1" xmlns="http://www.w3.org/2000/svg" xmlns:xlink="http://www.w3.org/1999/xlink" x="0px"
  y="0px" viewBox="0 0 91 91" style="enable-background:new 0 0 91 91;" xml:space="preserve">
  <style type="text/css">
    .st0 {
      clip-path: url(#SVGID_2_);
    }

    .st1 {
      fill: #004E7D;
    }

    .st2 {
      fill-rule: evenodd;
      clip-rule: evenodd;
      fill: #004E7D;
    }
  </style>
  <g>
    <defs>
      <rect id="SVGID_1_" y="22" width="91" height="47" />
    </defs>
    <clipPath id="SVGID_2_">
      <use xlink:href="#SVGID_1_" style="overflow:visible;" />
    </clipPath>
    <g class="st0">
      <path class="st1" d="M23.5,42.4h4.1V26.1h4.1v16.3h4.1V26.1h4.1v16.3H44V22H23.5V42.4z" />
      <path class="st1" d="M0,42.4h20.5v-4.1H4.1V26.1h16.4V22H0V42.4z" />
      <path class="st2" d="M37.7,61.8l1.7-0.7c0.8,1.8,1.2,3,1.4,3.5L39,65.2C38.6,64,38.2,62.9,37.7,61.8z M35,62.1l1.9-0.4
			c0.5,1.5,0.8,3,1.1,4.5l-1.9,0.3C35.8,65.1,35.5,63.6,35,62.1L35,62.1z M32.5,62.1h2c0.2,2.3,0.3,4.1,0.3,5.5h-1.9
			C32.9,65.8,32.8,64,32.5,62.1L32.5,62.1z M29.9,64c-1.6,1.1-3.3,2-5.1,2.9l-1-2l2.1-0.9v-5.5h-1.5v-2.1h1.5v-4.7h-1.5v-2.1h5.1
			v2.1h-1.6v4.7h1.4v2.1h-1.4v4.3l0.8-0.6l1.2,1.6c0.1-0.6,0.3-1.2,0.4-1.8l2.1,0.6c-0.5,2.2-1.4,4.2-2.7,6c-0.4-0.5-1-1-1.6-1.3
			c0.6-0.8,1.1-1.6,1.4-2.5C29.7,64.5,29.8,64.3,29.9,64L29.9,64z M35.4,55.8h-3.1v-1.1h3.1V55.8z M35.4,52.8h-3.1v-1
			c0,0,0-0.1,0-0.1c0,0,0-0.1,0-0.1c0,0,0,0,0.1-0.1c0,0,0.1,0,0.1,0h2.9L35.4,52.8z M32.3,58.7v-1.1h3.1v1.1H32.3z M30.2,59.5v0.8
			c0,0.2,0.1,0.4,0.4,0.4h10.1c0.2,0,0.3,0,0.3,0.2c0.1,1.5,0.1,3,0,4.5c-0.1,0.5-0.3,0.9-0.6,1.3c-0.2,0.2-0.5,0.2-0.8,0.2
			c-0.8-0.1-1.5-0.2-2.3-0.3l0.2,2.2c2.2,0.2,3.7,0,4.3-0.5c0.5-0.5,0.9-1.1,1-1.8c0.3-2.4,0.4-4.8,0.3-7.2c0-0.3-0.1-0.5-0.4-0.5
			h-5.2v-1.1H42v-1.8h-4.6v-1.1H42v-1.8h-4.5v-1.3h5v-2H30.7c-0.1,0-0.1,0-0.2,0c-0.1,0-0.1,0.1-0.2,0.1c0,0-0.1,0.1-0.1,0.2
			c0,0.1,0,0.1,0,0.2L30.2,59.5z M9.5,61.9v6.8h2.1V62h4c0.1,0,0.2,0,0.2,0.2v3.4c0,0.3-0.2,0.5-0.6,0.6c-1,0.1-2,0-2.9-0.4v2.4
			c1.5,0.4,3.1,0.4,4.6-0.1c0.3-0.1,0.5-0.3,0.7-0.6c0.2-0.3,0.3-0.6,0.3-0.9v-6.2c0-0.1,0-0.1,0-0.2c0-0.1-0.1-0.1-0.1-0.2
			C17.7,60,17.6,60,17.5,60c-0.1,0-0.1,0-0.2,0h-5.8v-1.6H9.5v1.6H6.5c0.8-0.7,1.5-1.4,2.1-2.2c0,0,0.1-0.1,0.1-0.1h10.4v-2.1h-8.8
			c0.2-0.3,0.4-0.7,0.7-1l-1.6-1c0.3-0.1,0.7-0.2,1.2-0.4c2,0.6,4.1,1.3,6.3,2.1l0.6-2l-3.7-1.4c0.7-0.3,1.4-0.6,2.2-1l-0.9-1.9
			c-1.4,0.7-2.8,1.4-4.3,2c-2.5-0.8-5.1-1.4-7.7-1.8l-0.5,2.1c1.3,0.2,2.7,0.5,4.2,0.8c-2,0.4-4,0.6-6,0.7l0.5,2.1
			c2.3,0,4.5-0.3,6.7-0.9L9,53.6c-0.5,0.7-0.9,1.4-1.3,1.9H0.4v2.1H6c-1.3,1.2-2.7,2.3-4.3,3.3c-0.6,0.3-1.3,0.6-1.9,0.9l1.2,1.9
			c0.8-0.4,1.6-0.8,2.3-1.3v5.8h2.1v-5.9c0-0.1,0-0.2,0.2-0.2L9.5,61.9z" />
      <path class="st1" d="M47,42.4h20.5v-4.1H51.1v-4.1h16.4v-4.1H51.1v-4.1h16.4V22H47V42.4z" />
      <path class="st1" d="M91,22H70.5v4.1h16.4v4.1H70.5v12.2h4.1v-8.2h4.1l6.9,8.2H91l-6.9-8.2H91V22z" />
      <path class="st1" d="M62.4,60.8c0.7,0,1.4,0,2.1-0.1c-0.1,0.7-0.1,1.4-0.1,2.1v4c0,0.7,0,1.5,0.1,2.2h-2.3v-0.8H51.2V69H49
			c0-0.6,0.1-1.4,0.1-2.2v-4.2c0-0.6,0-1.2,0-1.9c0.4,0,1.2,0,2.1,0h2.9c0-0.3,0-0.3,0-0.7h-4.5c-0.7,0-1.5,0-2.2,0.1v-2
			c0.7,0.1,1.5,0.1,2.2,0.1h14.8c0.6,0,1.2,0,1.8-0.1v2C65.4,60,64.6,60,63.8,60h-4.6v0.7L62.4,60.8z M55.2,52.8
			c0.5,0,0.9,0,1.3-0.1v1.4c-0.6,0-0.8,0-1.2,0h-0.8c0.6,0.5,1.3,0.9,2.1,1.2c-0.3,0.2-0.6,0.6-0.8,0.9c0.3,0,0.6,0,0.9,0v1.6
			c-0.6-0.1-1.1-0.1-1.7-0.1h-5.5H48c0-0.6,0-1.2,0-1.8v-5.2c0-0.8,0-1.3,0-2c0.6,0,1.2,0,1.7,0h5.1c0.7,0,1.3,0,2-0.1v1.7
			c-0.8,0-1.1,0-1.7,0h-2.2c-0.1,0.2-0.2,0.4-0.3,0.6h2.3c0.5,0,0.9,0,1.4-0.1v1.4c-0.5-0.1-0.9-0.1-1.4-0.1h-0.5
			c0,0.2-0.1,0.5-0.1,0.7L55.2,52.8z M51.3,54c-0.3,0-0.7,0-1,0v-1.3c0.3,0,0.5,0,0.8,0c-0.3-0.3-0.6-0.6-1-0.7
			c0.6-0.5,1-1.1,1.3-1.8h-1.6V56h1.1c-0.2-0.3-0.5-0.7-0.8-0.9c0.8-0.2,1.5-0.6,2.1-1.2L51.3,54z M52.7,52.8c0-0.2,0-0.3,0.1-0.7
			h-1c-0.2,0.3-0.4,0.5-0.6,0.7H52.7L52.7,52.8z M52.7,64.6c-0.4-0.5-0.9-1-1.4-1.3c0.4,0,0.8-0.1,1.2-0.3c0.4-0.2,0.7-0.5,1-0.8
			h-2.4v2.4H52.7z M51.2,66v0.6h11.1V66H51.2z M55.2,56.1c-0.7-0.4-1.3-0.9-1.8-1.6c-0.5,0.7-1.1,1.2-1.8,1.6H55.2z M62.3,64.6v-2.4
			h-1.6c0.5,0.3,1,0.5,1.5,0.6c-0.2,1.2-0.5,1.3-2.6,1.3c-1.8,0-2.3-0.2-2.3-1.1v-0.9h-1.6c-0.2,0.6-0.6,1.1-1,1.5
			c-0.5,0.4-1,0.7-1.6,0.9H62.3z M57.3,60.1H56c0,0.2,0,0.5,0,0.7h1.4L57.3,60.1z M59.8,50.3c0,0.6-0.3,1.2-0.7,1.6
			c-0.3,0.3-0.7,0.5-1,0.7h5c0.4,0,0.8,0,1.3-0.1l1,1c-0.1,0.1-0.3,0.2-0.4,0.4c-0.6,0.7-1.3,1.3-2,1.9c1.1,0.3,2.3,0.5,3.5,0.6
			c-0.4,0.5-0.7,1.1-0.9,1.7c-1.5-0.2-3-0.6-4.3-1.3c-1.1,0.6-2.3,1-3.5,1.2c-0.2-0.6-0.5-1.1-0.8-1.7c0.9-0.1,1.8-0.3,2.6-0.6
			c-0.6-0.5-1.1-1.1-1.6-1.7c-0.3,0-0.6,0-0.9,0v-1.6c0.2,0,0.4,0,0.6,0c-0.2-0.5-0.5-0.9-0.9-1.3c0.5-0.1,1-0.4,1.3-0.8
			c0.3-0.4,0.4-0.8,0.4-1.3c0-0.2,0-0.4,0-0.6c0.5,0,1,0,1.4,0h2.4c0.5,0,0.9,0,1.4,0c-0.1,0.4-0.1,0.7-0.1,1.1v0.8
			c0,0.3,0,0.3,0.6,0.3s0.8,0,0.8-1.4c0.5,0.3,1,0.5,1.6,0.6c-0.1,1-0.3,1.6-0.6,1.9s-0.8,0.4-2.3,0.4c-1.5,0-1.8-0.1-1.8-1v-1
			L59.8,50.3z M59.2,62.4c0,0.4,0.1,0.5,0.7,0.5c0.6,0,0.7-0.1,0.7-0.7h-1.4V62.4z M59.7,54c0.4,0.4,0.8,0.8,1.3,1
			c0.6-0.3,1.1-0.6,1.6-1H59.7z" />
      <path class="st1" d="M88.3,62c0,1.1,0,1.4,0,1.9c-0.4,0-0.7,0-1.3,0c1,1.2,2.2,2.1,3.6,2.8c-0.5,0.6-0.9,1.2-1.2,1.9
			c-1.6-1-3.1-2.2-4.3-3.7l1.4-1H84V67c0,0.3,0,0.5-0.1,0.8c-0.1,0.2-0.3,0.5-0.5,0.6c-0.6,0.3-1.2,0.5-1.9,0.4
			c-0.8,0-1.6,0-2.4-0.1c0-0.8-0.2-1.5-0.5-2.2c0.8,0.1,1.5,0.2,2.3,0.2c0.7,0,0.8,0,0.8-0.5v-2.3h-3.3l1.4,0.8
			c-1,1.5-2.3,2.8-3.8,3.9c-0.4-0.6-0.9-1.1-1.5-1.6c1.4-0.7,2.5-1.8,3.3-3.1h-0.3c0-0.6,0-1.3,0-1.9v-2.1c-0.4,0.3-0.9,0.5-1.3,0.8
			c-0.1-0.4-0.3-0.9-0.5-1.3c-0.1,1.8-0.4,3.7-1,5.4c-0.4,1.4-1.1,2.7-2,3.8c-0.5-0.7-1-1.3-1.7-1.8c1.4-1.8,2.3-4.1,2.4-6.4
			c-0.6,0.4-1.4,0.9-1.9,1.2c-0.1,0.1-0.3,0.1-0.4,0.2l-0.7-2.4c1.1-0.3,2.2-0.8,3.1-1.4c0-0.7,0-1.1,0-2.1l-1.6,1.1
			c-0.3-1.4-0.9-2.8-1.6-4.1l1.6-1c0.6,1.1,1.2,2.3,1.6,3.5v-0.8c0-0.4,0-1.6,0-2.4c0-0.9,0-1.8-0.1-2.8c0.9,0.1,1.7,0.1,2.6,0.1
			h4.4v-0.2c0-0.4,0-0.9-0.1-1.3h2.6C83,48.7,83,49.1,83,49.5v0.2h5c0.9,0,1.7,0,2.6-0.1v2.2c-0.8-0.1-1.6-0.1-2.3-0.1h-4.7
			c-0.2,0.5-0.2,0.8-0.4,1.1H88c0.7,0,1.5,0,2.2-0.1v2.1c-0.7-0.1-1.4-0.1-2.1-0.1h-2.8c0.4,0.6,1,1.2,1.6,1.7
			c0.6-0.5,1.1-1,1.4-1.6l1.7,1.1c-0.5,0.5-1,1.1-1.6,1.6c0.8,0.5,1.7,0.8,2.6,1.1c-0.4,0.6-0.7,1.3-0.9,2.1
			c-0.6-0.3-1.2-0.5-1.8-0.9L88.3,62z M76.1,54.8c0,1.3,0,2.3,0,3.7c0.6-0.3,1.3-0.7,1.8-1.1c-0.5-0.5-1-0.9-1.6-1.3l1.3-1.1
			c0.5,0.4,1,0.9,1.5,1.3c0.5-0.5,0.8-1,1.2-1.6h-1.8c-0.6,0-1.3,0-1.9,0.1v-2.1c0.7,0,1.4,0,2,0h2.6c0.1-0.4,0.3-0.7,0.4-1.1h-5.5
			L76.1,54.8z M79.8,59.6h6.4v-0.9h-6.4V59.6z M79.8,62.1h6.4v-1h-6.4V62.1z M84.9,56.9c-0.6-0.7-1.1-1.4-1.6-2.2h-0.8
			c-0.4,0.8-0.9,1.5-1.4,2.2H84.9z" />
    </g>
  </g>
</svg>