<?xml version="1.0" encoding="utf-8"?>
<!-- Generator: Adobe Illustrator 26.3.1, SVG Export Plug-In . SVG Version: 6.00 Build 0)  -->
<svg version="1.1" id="圖層_1" xmlns="http://www.w3.org/2000/svg" xmlns:xlink="http://www.w3.org/1999/xlink" x="0px" y="0px"
	 viewBox="0 0 360 79" style="enable-background:new 0 0 360 79;" xml:space="preserve">
<style type="text/css">
	.st0{fill:#FCFDFF;}
	.st1{fill:#7FC9F6;}
	.st2{fill-rule:evenodd;clip-rule:evenodd;fill:#7FC9F6;}
	.st3{fill:#FFFFFF;}
</style>
<path class="st0" d="M79,0H0v79h79V0z"/>
<path class="st1" d="M23.7,37.3h2.9V25.5h2.9v11.8h3V25.5h2.9v11.8h2.9V22.6H23.7V37.3z"/>
<path class="st1" d="M6.9,37.3h14.7v-3H9.9v-8.8h11.8v-2.9H6.9V37.3z"/>
<path class="st2" d="M33.9,51.3l1.2-0.5c0.5,1.3,0.9,2.1,1,2.5l-1.3,0.4C34.5,52.7,34.2,51.9,33.9,51.3z M32,51.5l1.4-0.3
	c0.4,1.3,0.6,2.4,0.8,3.3l-1.4,0.2C32.6,53.7,32.3,52.6,32,51.5z M30.2,51.5l1.4,0c0.1,1.6,0.2,3,0.2,4l-1.4-0.1
	C30.5,53.9,30.4,52.6,30.2,51.5z M28.3,52.8c-1,0.7-2.3,1.4-3.6,2.1l-0.7-1.4c0.6-0.2,1.1-0.5,1.5-0.7v-3.9h-1.1v-1.5h1.1v-3.3h-1.1
	v-1.5H28v1.5h-1.1v3.3h1v1.5h-1V52c0.2-0.2,0.4-0.3,0.6-0.4l0.8,1.1c0.1-0.4,0.2-0.8,0.3-1.3l1.5,0.4c-0.4,1.7-1,3.2-1.9,4.3
	c-0.4-0.5-0.8-0.8-1.1-0.9c0.4-0.6,0.8-1.2,1-1.8C28.2,53.2,28.2,53,28.3,52.8z M32.3,46.9h-2.2v-0.8h2.2V46.9z M32.3,44.8h-2.2
	v-0.7c0-0.1,0.1-0.2,0.2-0.2h2V44.8z M30.1,49.1v-0.8h2.2v0.8H30.1z M28.6,49.6v0.6c0,0.2,0.1,0.3,0.2,0.3h7.2c0.1,0,0.2,0,0.2,0.1
	c0,1.7,0,2.7,0,3.2c-0.1,0.4-0.2,0.7-0.4,0.9c-0.1,0.1-0.3,0.2-0.5,0.2c-0.2,0-0.8-0.1-1.6-0.2l0.1,1.6c1.6,0.1,2.6,0,3.1-0.4
	c0.4-0.3,0.6-0.8,0.7-1.3c0.2-0.9,0.2-2.6,0.2-5.2c0-0.2-0.1-0.3-0.3-0.3h-3.7v-0.8H37v-1.3h-3.3v-0.8H37v-1.3h-3.2v-0.9h3.6v-1.5
	h-8.4c-0.2,0-0.3,0.1-0.3,0.3V49.6L28.6,49.6z M13.8,51.3v4.9h1.5v-4.9h2.8c0.1,0,0.1,0,0.1,0.1v2.5c0,0.2-0.1,0.4-0.4,0.5
	c-0.4,0.1-1.1,0-2.1-0.3l0,1.7c1.5,0.3,2.6,0.2,3.3-0.1c0.5-0.2,0.7-0.6,0.7-1.1v-4.5c0-0.2-0.1-0.4-0.4-0.4h-4.1v-1.2h-1.5v1.2
	h-2.1c0.5-0.4,1-0.9,1.5-1.6c0,0,0-0.1,0.1-0.1h7.4v-1.5h-6.3c0.1-0.2,0.3-0.5,0.5-0.8l-1.1-0.7c0.2-0.1,0.5-0.2,0.8-0.3
	c1.4,0.4,2.9,0.9,4.5,1.5l0.4-1.5c-0.9-0.3-1.8-0.7-2.7-1c0.5-0.2,1-0.5,1.6-0.7l-0.7-1.4c-1,0.6-2.1,1-3.1,1.4
	c-2-0.6-3.9-1-5.6-1.3l-0.3,1.5c0.9,0.1,1.9,0.3,3,0.6c-1.3,0.3-2.8,0.5-4.3,0.5l0.3,1.5c1.4,0,3-0.2,4.8-0.6
	c0.3-0.1,0.6-0.2,0.9-0.2c-0.3,0.5-0.6,1-0.9,1.4H7.4v1.5h4c-1,0.9-2,1.7-3.1,2.4c-0.4,0.2-0.9,0.4-1.4,0.7l0.8,1.3
	c0.5-0.3,1.1-0.6,1.6-0.9v4.2h1.5v-4.3c0-0.1,0-0.1,0.1-0.1L13.8,51.3L13.8,51.3z"/>
<path class="st2" d="M69.2,52.8l-5.5,0.8l-0.3-1.5l5.9-0.9v-9h1.5V51l1.1-0.2l0.2,1.6l-1.3,0.2v3.6h-1.5V52.8z M64.4,47.8l1.1-1.1
	c0.9,0.7,1.7,1.6,2.6,2.6l-1.1,1C66.2,49.5,65.4,48.6,64.4,47.8z M65,44c1.1,1.1,2,2.1,2.8,3l1.2-1c-0.8-1-1.7-2-2.9-3.1L65,44z
	 M62.2,49.9c0.5,0.6,1,1.2,1.4,1.8l1.1-1c-0.8-1-1.6-1.9-2.5-2.8v-0.2h1.9v-1.6h-1.9V44c0.7-0.1,1.3-0.3,1.9-0.5l-0.3-1.6
	c-1.3,0.4-3,0.7-5.2,0.9l0.2,1.6c0.6,0,1.2-0.1,1.8-0.2v1.9h-2.3v1.6h2.2c-0.6,1.7-1.6,3.2-2.7,4.5l1.4,0.6c0.4-0.6,0.9-1.3,1.4-2.2
	v5.5h1.5L62.2,49.9L62.2,49.9z M48.2,45.2v-0.9c0-0.2,0.1-0.4,0.4-0.4h3.9c0.2,0,0.3,0.1,0.3,0.3v0.9L48.2,45.2L48.2,45.2z
	 M52.8,46.7v0.8c0,0.2-0.1,0.4-0.4,0.4h-4.2v-1.2L52.8,46.7L52.8,46.7z M44.2,43.8c0.2,0,0.2,0.1,0.2,0.2v2.1h-1.6v-2.1
	c0-0.2,0.1-0.2,0.2-0.2H44.2z M44.4,53.6c0,0.2-0.1,0.3-0.3,0.3h-1.3v-2.5h1.6V53.6z M44.4,50h-1.6v-2.4h1.6V50z M42.8,55.3h2.5
	c0.1,0,0.1,0,0.2,0l0.1,1.2c2.1-0.3,3.8-0.8,5.1-1.4l-0.6-1.3c-0.7,0.3-1.3,0.5-1.8,0.7c-0.1,0-0.1,0-0.2,0.1v-5.2h1
	c0.7,2.6,1.8,4.5,3.3,5.9c0.4,0.4,1,0.8,1.6,1.2l1.2-1.2c-1.4-0.8-2.5-1.6-3.1-2.5c1-0.7,1.9-1.4,2.6-2.1l-0.9-1.1
	c-0.6,0.6-1.4,1.3-2.4,2c-0.4-0.7-0.6-1.5-0.8-2.2h3.3c0.3,0,0.5-0.2,0.5-0.5V43c0-0.3-0.2-0.4-0.5-0.4h-6.7c-0.3,0-0.4,0.1-0.4,0.4
	v11.8c-0.3,0-0.6,0.1-0.9,0.1c0-0.1,0-0.1,0-0.2V42.9c0-0.3-0.1-0.5-0.5-0.5h-3.5c-0.3,0-0.4,0.1-0.4,0.4v13.2h1.4V55.3L42.8,55.3z"
	/>
<path class="st1" d="M40.6,37.3h14.7v-3H43.5v-2.9h11.8v-2.9H43.5v-3h11.8v-2.9H40.6V37.3z"/>
<path class="st1" d="M72.1,22.6H57.4v2.9h11.8v3H57.4v8.8h3v-5.9h2.9l5,5.9h3.9l-5-5.9h5V22.6z"/>
<g>
	<path class="st3" d="M117.3,38.2h-10.8c-0.5,0.8-1.1,1.6-1.8,2.5h3.8v-2h1.4v2h5.8v5c0,0.4-0.1,0.7-0.2,0.9
		c-0.1,0.2-0.3,0.4-0.6,0.5c-0.4,0.1-1.4,0.2-3,0.2c-0.1-0.4-0.2-0.8-0.5-1.3c1.3,0,2.1,0,2.4,0c0.3,0,0.4-0.1,0.4-0.4V42H110v6.6
		h-1.4V42h-3.9v5.4h-1.4v-5.1c-0.9,0.8-1.8,1.5-2.9,2.1c-0.3-0.4-0.6-0.8-1-1.1c2.1-1.1,4-2.8,5.5-5.1h-5.1v-1.3h5.9
		c0.3-0.6,0.6-1.2,0.9-2c-1.8,0.5-3.4,1-5,1.3c-0.3-0.5-0.7-0.9-1-1.2c2.4-0.4,4.7-0.9,6.9-1.6c-1.8-0.6-3.6-1.2-5.6-1.8l1-0.9
		c2.2,0.6,4.4,1.2,6.5,2c1.9-0.7,3.4-1.5,4.6-2.4l1.2,0.8c-1,0.7-2.3,1.4-4,2.2c2,0.7,3.5,1.4,4.6,1.9l-1.1,1.1
		c-1.3-0.7-3.1-1.5-5.4-2.3c-0.5,0.2-1.2,0.4-2,0.7l0.9,0.2c-0.2,0.6-0.5,1.2-0.9,2h10V38.2z"/>
	<path class="st3" d="M145.8,31.5v13.9h-4.4V47h-1.4V31.5H145.8z M144.4,32.8h-3v2.9h3V32.8z M141.5,36.9v2.9h3v-2.9H141.5z
		 M141.5,44h3v-2.9h-3V44z M156.6,40.5l1,1c-0.9,0.8-2,1.6-3.4,2.4c1,1.6,2.2,2.7,3.7,3.4c-0.4,0.3-0.7,0.7-1,1.3
		c-2.8-1.4-4.7-4.3-5.7-8.7h-2.1v6.4c0.8-0.2,2.1-0.4,3.9-0.8l0.1,1.3c-1.2,0.3-3.5,0.8-7,1.6l-0.4-1.4l1.8-0.4V31.2h8.9v8.7h-4.1
		c0.3,1.1,0.6,2.1,1,2.9C154.9,41.9,156,41.2,156.6,40.5z M155.1,32.6h-6v2.4h6V32.6z M149.1,36.2v2.5h6v-2.5H149.1z"/>
	<path class="st3" d="M167,41.2l-0.9,1.2c-0.3-0.5-0.9-1.5-1.9-3v9.3h-1.5v-8.8c-1,2.3-1.9,4.1-2.9,5.2c-0.1-0.4-0.4-0.8-0.7-1.3
		c0.6-0.7,1.3-1.6,1.9-2.8c0.6-1.2,1.2-2.3,1.5-3.5h-3.2V36h3.4v-3c-1.2,0.2-2.1,0.4-2.7,0.5c-0.1-0.4-0.2-0.8-0.4-1.2
		c2.8-0.4,4.9-1,6.4-1.6l0.9,1.2c-0.8,0.3-1.7,0.6-2.6,0.8V36h2.9v1.4h-2.9v0.4C164.6,38.1,165.5,39.2,167,41.2z M177.8,42.9
		l-2.6,0.4v5.2h-1.5v-5l-6.5,1.1l-0.2-1.4l6.8-1.1V30.4h1.5V42l2.3-0.4L177.8,42.9z M172.3,39.7l-1,1c-0.4-0.4-0.9-0.9-1.5-1.5
		c-0.7-0.5-1.3-1-2-1.4l0.9-0.9C170.4,37.9,171.6,38.8,172.3,39.7z M172.8,34.5l-1,1c-0.6-0.8-1.7-1.8-3.2-2.8l0.9-0.9
		C171,32.7,172.1,33.6,172.8,34.5z"/>
	<path class="st3" d="M197.5,46.2v1.4H182v0.9h-1.5V31.4H197v1.4H182v13.4H197.5z M196.7,40.1h-6c1,2.1,3.1,3.5,6.1,4.1
		c-0.4,0.3-0.7,0.8-0.9,1.3c-2.8-0.7-4.8-2-6-4c-0.8,1.8-2.8,3.1-5.9,4.1c-0.3-0.4-0.6-0.8-0.9-1.1c3.4-0.9,5.3-2.4,5.8-4.3h-5.7
		v-1.3h5.9v-0.1v-2.3h-3.1c-0.5,0.7-1.1,1.2-1.6,1.7c-0.1-0.1-0.5-0.4-1.2-0.7c1.4-1.1,2.4-2.4,3-4.1l1.4,0.4
		c-0.1,0.4-0.4,0.9-0.7,1.5h9v1.3h-5.3v2.3v0.1h6.2V40.1z"/>
	<path class="st3" d="M225.5,39.9l-2.2,0.8v6.2c0,0.8-0.2,1.3-0.7,1.5c-0.4,0.2-1.3,0.3-2.5,0.3c-0.1-0.5-0.2-0.9-0.4-1.4
		c1,0,1.6,0,1.9,0c0.1,0,0.2,0,0.3-0.1s0.1-0.1,0.1-0.3v-5.7c-0.8,0.3-1.6,0.6-2.4,0.9l-0.4-1.4c0.3-0.1,0.7-0.2,1.4-0.4
		c0.6-0.2,1.1-0.4,1.4-0.4v-4h-2.5v-1.3h2.5v-4h1.4v4h2.1v1.3h-2.1v3.6c0.2-0.1,0.8-0.3,2-0.7L225.5,39.9z M232.1,46.7h5.5V48h-12.6
		v-1.3h5.6v-4.2h-4.3v-1.4h10.3v1.4h-4.6V46.7z M232.4,33.7h-1.9c-0.1,1.8-0.4,3.2-1,4.2c-0.5,0.9-1.6,1.6-3.2,2.1
		c-0.2-0.4-0.4-0.7-0.7-1c0.7-0.2,1.3-0.5,1.7-0.7c0.5-0.3,0.8-0.7,1.1-1.1s0.4-0.9,0.5-1.4s0.2-1.2,0.2-1.9H227v2.1h-1.3v-3.4h5
		v-2.1h1.4v2.1h5.4v3.2h-1.4v-2h-2.4v3.9c0,0.2,0,0.3,0.1,0.4c0.1,0.1,0.2,0.1,0.4,0.1h1.5c0.2,0,0.3-0.1,0.4-0.3s0.1-0.7,0.1-1.4
		c0.3,0.2,0.7,0.4,1.2,0.5c-0.1,1-0.2,1.6-0.4,2c-0.2,0.3-0.6,0.5-1.2,0.5h-1.8c-0.7,0-1.1-0.1-1.4-0.4s-0.3-0.7-0.3-1.4V33.7z"/>
	<path class="st3" d="M246.2,31.1v15.8c0,0.8-0.2,1.3-0.7,1.5c-0.4,0.2-1.2,0.3-2.6,0.3c-0.1-0.6-0.2-1-0.4-1.4c1.1,0,1.7,0,2,0
		c0.3,0,0.4-0.1,0.4-0.4v-5H242c-0.2,2.9-0.7,5.1-1.5,6.8c-0.3-0.3-0.7-0.5-1.2-0.7c1-2,1.5-5.3,1.5-9.7v-7.1H246.2z M242,40.4h2.8
		v-3.3h-2.8v1.1C242.1,39.2,242.1,39.9,242,40.4z M244.9,32.5h-2.8v3.2h2.8V32.5z M249.9,32.4v1c0,2.3-0.8,4.1-2.5,5.2
		c-0.1-0.1-0.3-0.3-0.5-0.5c-0.2-0.2-0.4-0.4-0.6-0.4c1.5-0.9,2.2-2.3,2.2-4.2V31h6.3v5c0,0.2,0,0.4,0.1,0.4s0.1,0.1,0.3,0.1h0.9
		c0.2,0,0.3-0.1,0.3-0.4c0.1-0.3,0.1-0.9,0.1-1.8c0.2,0.2,0.6,0.4,1.2,0.5c-0.1,1.2-0.2,2-0.4,2.4s-0.6,0.6-1.1,0.6h-1.3
		c-0.6,0-1-0.1-1.2-0.4c-0.2-0.2-0.3-0.7-0.3-1.4v-3.6H249.9z M255.6,38.9l1,0.4c-0.7,2.3-1.8,4.2-3.4,5.8c1.4,1,2.9,1.8,4.7,2.3
		c-0.4,0.3-0.7,0.7-1,1.3c-1.8-0.5-3.4-1.4-4.8-2.6c-1.4,1.1-3,1.9-4.8,2.5c-0.2-0.5-0.5-1-0.9-1.3c1.7-0.5,3.3-1.2,4.6-2.2
		c-1.2-1.2-2.1-2.7-2.9-4.4l1.2-0.4h-2v-1.4h8L255.6,38.9z M254.6,40.3h-5.2c0.6,1.4,1.5,2.7,2.6,3.8C253.2,43,254,41.7,254.6,40.3z
		"/>
	<path class="st3" d="M277.3,34.3h-10.7c-0.4,0.8-0.8,1.6-1.2,2.3h9.6v10.1c0,0.5-0.1,0.8-0.2,1s-0.3,0.4-0.7,0.5
		c-0.5,0.2-1.7,0.3-3.5,0.3c-0.1-0.4-0.2-0.9-0.5-1.5c0.6,0,1.5,0,2.9,0c0.3,0,0.5-0.1,0.5-0.4v-2.1h-8.3v3.9h-1.5V39
		c-1,1.3-2.1,2.3-3.3,3.2c-0.2-0.4-0.5-0.8-0.9-1.1c2.2-1.5,4.1-3.7,5.5-6.7h-5v-1.4h5.6c0.4-1,0.7-1.9,0.9-2.6l1.5,0.4
		c-0.3,0.9-0.5,1.6-0.8,2.2h10.2V34.3z M273.5,40v-2h-8.3v2H273.5z M265.1,43.4h8.3v-2.1h-8.3V43.4z"/>
	<path class="st3" d="M285.4,31.2l1,0.6c-0.8,2.2-1.5,4-2.2,5.3c1.3,1.3,2,2.8,2,4.3c0,1.2-0.2,1.9-0.8,2.3
		c-0.3,0.2-0.7,0.3-1.1,0.4c-0.3,0-0.8,0-1.5,0c0-0.5-0.1-1-0.4-1.3c0.4,0.1,0.9,0.1,1.3,0c0.3,0,0.5-0.1,0.7-0.2
		c0.3-0.2,0.5-0.7,0.5-1.4c0-1.3-0.7-2.6-2-4c0.4-0.9,1-2.5,1.8-4.6h-2.9v16h-1.4V31.2h4.9L285.4,31.2z M296.1,40.5l1.2,0.8
		c-1,0.9-2,1.8-3.2,2.6c1,1.5,2.2,2.7,3.7,3.4c-0.4,0.3-0.7,0.7-1,1.2c-2.8-1.4-4.7-4.3-5.7-8.5h-2.2v6.2c0.4-0.1,1.1-0.2,2-0.4
		s1.5-0.3,1.9-0.4l0.1,1.3c-0.9,0.2-2.2,0.5-3.8,0.8s-2.7,0.6-3.3,0.7l-0.5-1.4c0.2,0,0.6-0.1,1.1-0.2s0.9-0.2,1.2-0.2V31.2h8.9v8.8
		h-4.1c0.3,1.1,0.7,2.1,1.1,2.9C294.6,42,295.5,41.2,296.1,40.5z M294.9,32.6h-6.1V35h6.1V32.6z M288.9,36.2v2.5h6.1v-2.5H288.9z"/>
	<path class="st3" d="M304.9,30.9l1.6,0.4c-0.7,1.6-1.5,3.1-2.5,4.6s-2,2.7-3.1,3.6c-0.6-0.5-1.1-0.9-1.4-1.1c1.1-0.9,2.1-2,3-3.3
		S304.3,32.4,304.9,30.9z M310.7,41.9l1.4-0.6c0.9,1,1.8,2.2,2.7,3.4s1.6,2.3,2.1,3.2l-1.5,0.8c-0.2-0.3-0.5-0.9-1-1.7
		c-2.6,0.2-7.2,0.4-13.9,0.7l-0.2-1.6c0.2,0,0.6,0,1.3,0s1.1,0,1.5,0c0.7-1.2,1.4-2.6,2.1-4.2s1.3-3,1.7-4.3l1.7,0.4
		c-1.4,3.2-2.6,5.9-3.8,8.1c0.5,0,3.4-0.1,8.8-0.4C312.6,44.3,311.7,43,310.7,41.9z M310.5,31.5l1.4-0.6c0.7,1.2,1.5,2.6,2.6,4
		c1.1,1.4,2.1,2.5,3.1,3.4c-0.4,0.3-0.8,0.7-1.2,1.3c-1-1-2-2.2-3.1-3.8C312.2,34.3,311.3,32.9,310.5,31.5z"/>
	<path class="st3" d="M336.2,31.6v14.8c0,0.5-0.1,0.9-0.2,1.2s-0.4,0.5-0.7,0.6c-0.5,0.2-1.8,0.3-3.7,0.3c-0.1-0.6-0.3-1.1-0.5-1.6
		c1.5,0,2.6,0,3.2,0c0.2,0,0.3-0.1,0.4-0.1s0.1-0.2,0.1-0.4V33.1h-14.4v-1.4H336.2z M332.5,35.2v1.3h-12v-1.3H332.5z M331.1,45h-7.9
		v1.5h-1.5v-7.8h9.3V45z M329.6,39.9h-6.4v3.7h6.4V39.9z"/>
	<g>
		<path class="st3" d="M215.8,35l1.2,0.8c-0.9,1-4.2,3.9-5.4,4.6v5.8c0,0.5-0.1,0.9-0.2,1.1s-0.4,0.4-0.8,0.6
			c-0.5,0.1-0.9,0.2-3.2,0.2c0-0.3-0.2-0.8-0.6-1.5c0.8,0,0.6,0,1.3,0c0.8,0,1.2,0,1.4,0c0.2,0,0.4-0.1,0.5-0.1
			c0.1-0.1,0.1-0.2,0.1-0.4v-7.1h1c1.6-1,1.6-1,3.1-2.5h-9v-1.5h10.3L215.8,35z"/>
		<path class="st3" d="M210.3,32.1h7.4v1.3H204V38c0,4.6-1,7.9-3.2,10.1c-0.3-0.4-0.7-0.7-1.1-1c1.4-1.4,2.2-3.3,2.6-5.8
			c-0.5,0.3-1.4,0.8-2.7,1.5l-0.5-1.4c0.6-0.2,1.7-0.8,3.3-1.6c0-0.6,0.1-1.2,0.1-1.8v-5.9h6.1v-2.3h1.5V32.1z M202.3,37.3l-1.2,0.6
			c-0.2-1.1-0.7-2.3-1.5-3.8l1.1-0.5C201.5,35,202,36.2,202.3,37.3z"/>
	</g>
	<g>
		<path class="st3" d="M125.8,41.9l0.2,1.4c-0.8,0.3-2,0.6-3.5,1.1c-1.5,0.5-2.5,0.8-3,0.9l-0.3-1.4c0.3-0.1,0.8-0.2,1.5-0.4
			c0.7-0.2,1.2-0.3,1.5-0.4v-4.7h-2.4V37h2.4v-4.2h-2.5v-1.4h6.5v1.4h-2.5V37h2.4v1.4h-2.4v4.2L125.8,41.9z M126.9,31h8.5v1.3
			l-0.5,6.2h-1.2l0.5-6.2h-7.3V31z M137.4,38.9c0,0.3,0,0.5,0,0.6c-0.1,2.3-0.2,5.4-0.4,6.4c-0.1,1-0.3,1.6-0.6,2
			c-0.3,0.3-0.7,0.5-1.2,0.5c-0.4,0.1-1.1,0.1-2.2,0c0-0.5-0.1-1-0.4-1.3c0.6,0.1,1.2,0.1,1.9,0.1c0.3,0,0.5-0.1,0.6-0.2
			c0.3-0.4,0.6-3.6,0.7-6.8h-8.4V39l0.4-4.8h1.3l-0.3,4.7H137.4z"/>
		<rect x="126.6" y="43" class="st3" width="8.2" height="1.4"/>
	</g>
</g>
</svg>
