<?xml version="1.0" encoding="utf-8"?>
<!-- Generator: Adobe Illustrator 26.3.1, SVG Export Plug-In . SVG Version: 6.00 Build 0)  -->
<svg version="1.1" id="圖層_1" xmlns="http://www.w3.org/2000/svg" xmlns:xlink="http://www.w3.org/1999/xlink" x="0px" y="0px"
	 viewBox="0 0 360 79" style="enable-background:new 0 0 360 79;" xml:space="preserve">
<style type="text/css">
	.st0{fill:#FCFDFF;}
	.st1{fill:#7FC9F6;}
	.st2{fill-rule:evenodd;clip-rule:evenodd;fill:#7FC9F6;}
	.st3{fill:#FFFFFF;}
</style>
<path class="st0" d="M79,0H0v79h79V0z"/>
<path class="st1" d="M23.74,37.28h2.94V25.5h2.94v11.78h2.95V25.5h2.94v11.78h2.94V22.56H23.74V37.28z"/>
<path class="st1" d="M6.91,37.28h14.72v-2.95H9.86V25.5h11.77v-2.94H6.91V37.28z"/>
<path class="st2" d="M33.91,51.26l1.24-0.49c0.54,1.29,0.87,2.14,0.99,2.54l-1.29,0.38C34.53,52.72,34.21,51.91,33.91,51.26z
	 M32,51.49l1.36-0.31c0.37,1.26,0.62,2.35,0.77,3.27l-1.38,0.21C32.57,53.68,32.32,52.62,32,51.49z M30.21,51.52l1.41-0.05
	c0.14,1.64,0.2,2.96,0.19,3.97l-1.38-0.06C30.46,53.86,30.39,52.57,30.21,51.52z M28.3,52.84c-1.04,0.71-2.26,1.4-3.65,2.08
	l-0.71-1.43c0.59-0.25,1.1-0.47,1.52-0.66V48.9h-1.07v-1.51h1.07v-3.31h-1.07v-1.51h3.63v1.51h-1.1v3.31h0.98v1.51h-0.98v3.08
	c0.23-0.16,0.43-0.31,0.61-0.44l0.84,1.08c0.11-0.41,0.21-0.85,0.3-1.31l1.48,0.41c-0.41,1.72-1.05,3.16-1.91,4.32
	c-0.4-0.45-0.78-0.75-1.14-0.91c0.44-0.6,0.79-1.2,1.03-1.79C28.17,53.17,28.23,53,28.3,52.84z M32.26,46.93h-2.2v-0.81h2.2V46.93z
	 M32.26,44.79h-2.2v-0.7c0-0.1,0.05-0.16,0.16-0.17h2.04V44.79z M30.06,49.07v-0.81h2.2v0.81H30.06z M28.59,49.63v0.61
	c0,0.19,0.08,0.28,0.25,0.28h7.22c0.13,0,0.19,0.04,0.19,0.12c0.04,1.66,0.03,2.73-0.05,3.22c-0.06,0.37-0.2,0.67-0.43,0.92
	c-0.1,0.1-0.28,0.16-0.53,0.17c-0.22,0-0.76-0.08-1.64-0.24l0.15,1.6c1.6,0.12,2.62-0.01,3.08-0.4c0.4-0.34,0.63-0.77,0.71-1.31
	c0.16-0.89,0.23-2.62,0.21-5.17c0.01-0.22-0.08-0.34-0.28-0.35h-3.74v-0.81h3.29v-1.33h-3.29v-0.81h3.23V44.8h-3.23v-0.87h3.58
	v-1.45h-8.39c-0.22,0-0.33,0.11-0.33,0.34V49.63L28.59,49.63z M13.77,51.34v4.85h1.53v-4.85h2.84c0.09,0,0.13,0.04,0.13,0.12v2.47
	c0,0.19-0.13,0.35-0.4,0.46c-0.37,0.13-1.07,0.04-2.1-0.26l0.04,1.74c1.49,0.29,2.58,0.25,3.27-0.09c0.47-0.24,0.71-0.59,0.71-1.05
	v-4.52c0-0.25-0.13-0.38-0.38-0.38H15.3v-1.16h-1.53v1.16h-2.09c0.45-0.41,0.96-0.94,1.52-1.59c0.01-0.03,0.03-0.06,0.06-0.08h7.41
	v-1.51h-6.3c0.15-0.24,0.31-0.49,0.49-0.75l-1.07-0.72c0.23-0.09,0.51-0.18,0.83-0.27c1.4,0.41,2.91,0.92,4.53,1.54l0.41-1.47
	c-0.92-0.34-1.81-0.67-2.66-0.98c0.49-0.22,1.01-0.47,1.57-0.73l-0.68-1.4c-1.05,0.56-2.07,1.04-3.08,1.43
	c-2.01-0.61-3.86-1.04-5.55-1.28l-0.34,1.5c0.92,0.13,1.92,0.34,3.01,0.61c-1.31,0.29-2.75,0.45-4.31,0.49l0.34,1.51
	c1.37,0.01,2.97-0.2,4.78-0.64c0.26-0.07,0.56-0.15,0.89-0.23c-0.34,0.52-0.65,0.98-0.93,1.39H7.4v1.51h3.95
	c-0.96,0.92-1.99,1.7-3.08,2.35c-0.45,0.22-0.91,0.45-1.36,0.68l0.84,1.33c0.54-0.28,1.09-0.6,1.63-0.93v4.15h1.52v-4.29
	c0-0.07,0.04-0.11,0.12-0.12L13.77,51.34L13.77,51.34z"/>
<path class="st2" d="M69.23,52.82l-5.52,0.85l-0.34-1.54l5.86-0.91v-8.96h1.53v8.73l1.11-0.18l0.22,1.56l-1.33,0.23v3.6h-1.53V52.82
	z M64.43,47.83l1.07-1.1c0.86,0.71,1.74,1.59,2.63,2.63l-1.13,1C66.2,49.47,65.35,48.62,64.43,47.83z M64.95,44
	c1.13,1.07,2.05,2.07,2.78,3.01l1.18-0.98c-0.75-0.95-1.7-1.97-2.86-3.08L64.95,44z M62.23,49.87c0.51,0.64,0.97,1.24,1.38,1.8
	l1.14-1.04c-0.8-0.98-1.64-1.93-2.52-2.82v-0.17h1.95v-1.57h-1.95v-2.12c0.69-0.13,1.33-0.29,1.92-0.47l-0.3-1.57
	c-1.28,0.4-3.02,0.69-5.21,0.89l0.21,1.57c0.63-0.04,1.25-0.1,1.85-0.17v1.88h-2.28v1.57h2.21c-0.65,1.71-1.56,3.22-2.71,4.53
	l1.41,0.64c0.43-0.56,0.88-1.29,1.38-2.18v5.5h1.53L62.23,49.87L62.23,49.87z M48.17,45.22v-0.87c-0.01-0.24,0.11-0.36,0.36-0.36
	h3.93c0.22,0,0.33,0.11,0.34,0.34v0.9h-4.63V45.22z M52.8,46.67v0.78c0,0.25-0.13,0.39-0.38,0.4h-4.25v-1.17L52.8,46.67L52.8,46.67z
	 M44.19,43.83c0.16,0,0.24,0.08,0.24,0.23v2.1h-1.61v-2.1c0-0.15,0.07-0.23,0.22-0.23H44.19z M44.43,53.57
	c0,0.19-0.09,0.29-0.28,0.29h-1.33v-2.52h1.61V53.57z M44.43,49.95h-1.61v-2.4h1.61V49.95z M42.82,55.25h2.55
	c0.07,0,0.14-0.01,0.21-0.03l0.13,1.22c2.07-0.34,3.78-0.8,5.12-1.39l-0.62-1.31c-0.71,0.32-1.32,0.55-1.84,0.7
	c-0.07,0.01-0.13,0.03-0.19,0.06v-5.21h0.96c0.66,2.61,1.76,4.55,3.3,5.85c0.44,0.38,0.99,0.79,1.63,1.24l1.17-1.17
	c-1.42-0.81-2.45-1.62-3.09-2.46c1.04-0.71,1.89-1.41,2.56-2.09l-0.9-1.14c-0.57,0.59-1.38,1.26-2.43,2
	c-0.36-0.74-0.63-1.48-0.82-2.21h3.26c0.3,0,0.46-0.16,0.46-0.47v-5.85c0-0.28-0.15-0.43-0.45-0.44h-6.69
	c-0.27,0-0.42,0.15-0.43,0.44V54.8c-0.28,0.03-0.58,0.08-0.9,0.15c0.01-0.06,0.02-0.12,0.03-0.19V42.9c0-0.31-0.15-0.46-0.46-0.46
	h-3.54c-0.28,0-0.42,0.15-0.43,0.44v13.25h1.41V55.25L42.82,55.25z"/>
<path class="st1" d="M40.56,37.28h14.71v-2.95H43.5v-2.94h11.77v-2.94H43.5V25.5h11.77v-2.94H40.56V37.28z"/>
<path class="st1" d="M72.09,22.56H57.37v2.94h11.77v2.95H57.37v8.83h2.95v-5.89h2.94l4.97,5.89h3.86l-4.98-5.89h4.98V22.56z"/>
<g>
	<path class="st3" d="M107.98,30.79c-0.14,1.22-0.59,2.15-1.35,2.81c-0.76,0.66-1.75,0.99-2.99,0.99c-1.35,0-2.43-0.49-3.25-1.45
		c-0.82-0.97-1.22-2.26-1.22-3.89v-1.1c0-1.06,0.19-2,0.57-2.81c0.39-0.8,0.92-1.43,1.62-1.86c0.7-0.43,1.5-0.64,2.42-0.64
		c1.22,0,2.19,0.34,2.92,1.02s1.16,1.62,1.27,2.82h-1.52c-0.13-0.92-0.42-1.57-0.84-1.99c-0.44-0.42-1.05-0.62-1.83-0.62
		c-0.96,0-1.72,0.36-2.26,1.07c-0.54,0.72-0.82,1.73-0.82,3.05v1.1c0,1.25,0.26,2.23,0.77,2.96c0.52,0.73,1.25,1.1,2.18,1.1
		c0.83,0,1.47-0.19,1.93-0.57c0.44-0.39,0.74-1.05,0.89-1.99C106.48,30.79,107.98,30.79,107.98,30.79z"/>
	<path class="st3" d="M112.85,30.15h-3.84v-1.19h3.84V30.15z"/>
	<path class="st3" d="M116.43,22.97l3.74,9.33l3.74-9.33h1.96v11.44h-1.5v-4.45l0.14-4.81l-3.75,9.26h-1.16l-3.75-9.23l0.14,4.78
		v4.45h-1.5V22.97H116.43z"/>
	<path class="st3" d="M135,29.13h-4.95v4.05h5.75v1.23h-7.27V22.97h7.19v1.23h-5.68v3.68h4.95v1.25
		C134.98,29.13,135,29.13,135,29.13z"/>
	<path class="st3" d="M141.88,29.79h-2.69v4.62h-1.52V22.97h3.79c1.29,0,2.28,0.3,2.98,0.87c0.7,0.59,1.05,1.45,1.05,2.56
		c0,0.72-0.19,1.33-0.57,1.86c-0.39,0.53-0.92,0.93-1.6,1.19l2.69,4.85v0.1h-1.62L141.88,29.79z M139.19,28.56h2.32
		c0.74,0,1.35-0.2,1.79-0.59c0.44-0.39,0.66-0.9,0.66-1.56c0-0.72-0.21-1.25-0.63-1.63c-0.42-0.37-1.03-0.57-1.83-0.57h-2.3V28.56z"
		/>
	<path class="st3" d="M158.04,29.13h-4.95v4.05h5.75v1.23h-7.27V22.97h7.19v1.23h-5.68v3.68h4.95v1.25
		C158.03,29.13,158.04,29.13,158.04,29.13z"/>
	<path class="st3" d="M163.07,32.29l1.98-6.37h1.56l-3.42,9.82c-0.53,1.42-1.37,2.12-2.52,2.12l-0.27-0.03l-0.54-0.1v-1.17
		l0.39,0.03c0.49,0,0.87-0.1,1.15-0.3c0.27-0.2,0.5-0.56,0.69-1.09l0.31-0.86l-3.03-8.4h1.59L163.07,32.29z"/>
	<path class="st3" d="M171.33,34.57c-1.15,0-2.09-0.37-2.81-1.13c-0.72-0.76-1.09-1.78-1.09-3.03v-0.27c0-0.84,0.16-1.6,0.49-2.26
		c0.33-0.66,0.77-1.19,1.35-1.56c0.57-0.37,1.2-0.56,1.88-0.56c1.1,0,1.96,0.36,2.58,1.09c0.62,0.73,0.92,1.78,0.92,3.12v0.6h-5.75
		c0.01,0.84,0.27,1.52,0.73,2.03c0.46,0.52,1.06,0.77,1.79,0.77c0.52,0,0.94-0.1,1.3-0.31s0.67-0.49,0.93-0.83l0.89,0.69
		C173.82,34.02,172.75,34.57,171.33,34.57z M171.14,26.95c-0.59,0-1.07,0.21-1.47,0.64s-0.64,1.03-0.74,1.79h4.25v-0.11
		c-0.04-0.74-0.24-1.32-0.6-1.72C172.23,27.15,171.76,26.95,171.14,26.95z"/>
	<path class="st3" d="M188.95,30.79c-0.14,1.22-0.59,2.15-1.35,2.81c-0.76,0.66-1.75,0.99-2.99,0.99c-1.35,0-2.43-0.49-3.25-1.45
		c-0.82-0.97-1.22-2.26-1.22-3.89v-1.1c0-1.06,0.19-2,0.57-2.81c0.39-0.8,0.92-1.43,1.62-1.86s1.5-0.64,2.42-0.64
		c1.22,0,2.19,0.34,2.92,1.02s1.16,1.62,1.27,2.82h-1.52c-0.13-0.92-0.42-1.57-0.84-1.99c-0.44-0.42-1.04-0.62-1.83-0.62
		c-0.96,0-1.72,0.36-2.26,1.07c-0.54,0.72-0.82,1.73-0.82,3.05v1.1c0,1.25,0.26,2.23,0.77,2.96c0.52,0.73,1.25,1.1,2.18,1.1
		c0.83,0,1.47-0.19,1.93-0.57c0.44-0.39,0.74-1.05,0.89-1.99C187.45,30.79,188.95,30.79,188.95,30.79z"/>
	<path class="st3" d="M196.02,34.41c-0.09-0.17-0.16-0.47-0.2-0.9c-0.67,0.7-1.49,1.06-2.42,1.06c-0.84,0-1.53-0.24-2.06-0.72
		c-0.53-0.47-0.8-1.07-0.8-1.8c0-0.89,0.33-1.57,1.02-2.06c0.67-0.49,1.62-0.73,2.83-0.73h1.42v-0.67c0-0.5-0.16-0.92-0.46-1.22
		s-0.74-0.46-1.35-0.46c-0.52,0-0.96,0.13-1.3,0.39c-0.34,0.26-0.53,0.57-0.53,0.94h-1.46c0-0.43,0.16-0.83,0.46-1.23
		c0.3-0.4,0.72-0.7,1.23-0.94s1.09-0.34,1.7-0.34c0.97,0,1.75,0.24,2.3,0.73c0.56,0.49,0.84,1.16,0.86,2.02v3.91
		c0,0.77,0.1,1.4,0.3,1.86v0.13h-1.55L196.02,34.41L196.02,34.41z M193.62,33.31c0.46,0,0.89-0.11,1.3-0.36
		c0.42-0.24,0.7-0.54,0.89-0.92v-1.75h-1.15c-1.78,0-2.68,0.52-2.68,1.56c0,0.46,0.16,0.82,0.46,1.07
		C192.74,33.18,193.15,33.31,193.62,33.31z"/>
	<path class="st3" d="M203.64,27.22c-0.21-0.04-0.46-0.06-0.72-0.06c-0.96,0-1.6,0.4-1.95,1.22v6.03h-1.46v-8.5h1.42l0.03,0.99
		c0.47-0.76,1.16-1.15,2.03-1.15c0.29,0,0.5,0.04,0.64,0.11V27.22z"/>
	<path class="st3" d="M208.35,34.57c-1.15,0-2.09-0.37-2.81-1.13s-1.09-1.78-1.09-3.03v-0.27c0-0.84,0.16-1.6,0.49-2.26
		c0.33-0.66,0.77-1.19,1.35-1.56c0.57-0.37,1.2-0.56,1.88-0.56c1.1,0,1.96,0.36,2.58,1.09c0.62,0.73,0.92,1.78,0.92,3.12v0.6h-5.75
		c0.01,0.84,0.27,1.52,0.73,2.03c0.46,0.52,1.06,0.77,1.79,0.77c0.52,0,0.94-0.1,1.3-0.31c0.36-0.21,0.67-0.49,0.93-0.83l0.89,0.69
		C210.85,34.02,209.78,34.57,208.35,34.57z M208.18,26.95c-0.59,0-1.07,0.21-1.47,0.64c-0.4,0.43-0.64,1.03-0.74,1.79h4.25v-0.11
		c-0.04-0.74-0.24-1.32-0.6-1.72C209.26,27.15,208.78,26.95,208.18,26.95z"/>
	<path class="st3" d="M226.36,34.41h-1.52v-5.28h-5.77v5.28h-1.5V22.97h1.5v4.92h5.77v-4.92h1.52V34.41z"/>
	<path class="st3" d="M228.42,30.09c0-0.83,0.17-1.57,0.49-2.25c0.31-0.67,0.79-1.17,1.37-1.55c0.59-0.36,1.25-0.54,2-0.54
		c1.16,0,2.09,0.4,2.81,1.2s1.07,1.86,1.07,3.19v0.1c0,0.83-0.16,1.57-0.47,2.23c-0.31,0.66-0.77,1.17-1.36,1.53
		c-0.59,0.37-1.26,0.54-2.03,0.54c-1.15,0-2.09-0.4-2.81-1.2c-0.72-0.8-1.07-1.86-1.07-3.18V30.09z M229.88,30.26
		c0,0.94,0.21,1.7,0.66,2.28c0.44,0.57,1.02,0.86,1.76,0.86c0.74,0,1.33-0.29,1.76-0.87c0.43-0.59,0.66-1.39,0.66-2.43
		c0-0.93-0.23-1.69-0.66-2.26c-0.44-0.57-1.03-0.87-1.76-0.87c-0.72,0-1.3,0.29-1.73,0.86C230.11,28.38,229.88,29.2,229.88,30.26z"
		/>
	<path class="st3" d="M239.57,34.41h-1.46V22.34h1.46V34.41z"/>
	<path class="st3" d="M241.53,30.1c0-1.3,0.31-2.35,0.93-3.15c0.62-0.8,1.43-1.19,2.43-1.19s1.79,0.34,2.36,1.02v-4.44h1.46v12.07
		h-1.33l-0.07-0.92c-0.59,0.72-1.39,1.07-2.43,1.07c-0.99,0-1.79-0.4-2.4-1.2c-0.62-0.8-0.93-1.86-0.93-3.16v-0.1H241.53z
		 M242.99,30.26c0,0.96,0.2,1.72,0.6,2.26c0.4,0.54,0.94,0.82,1.65,0.82c0.92,0,1.59-0.42,2.02-1.25v-3.91c-0.43-0.8-1.1-1.2-2-1.2
		c-0.72,0-1.26,0.27-1.66,0.83S242.99,29.19,242.99,30.26z"/>
	<path class="st3" d="M250.96,23.66c0-0.24,0.07-0.43,0.21-0.6c0.14-0.17,0.36-0.24,0.64-0.24s0.5,0.09,0.64,0.24
		s0.21,0.36,0.21,0.6c0,0.23-0.07,0.43-0.21,0.59c-0.14,0.16-0.36,0.24-0.64,0.24s-0.5-0.07-0.64-0.24
		C251.05,24.09,250.96,23.9,250.96,23.66z M252.54,34.41h-1.46v-8.5h1.46V34.41z"/>
	<path class="st3" d="M256.25,25.92l0.04,1.07c0.64-0.82,1.5-1.23,2.55-1.23c1.79,0,2.71,1.02,2.72,3.03v5.61h-1.46v-5.63
		c0-0.62-0.14-1.07-0.42-1.36c-0.27-0.3-0.7-0.44-1.29-0.44c-0.47,0-0.89,0.13-1.25,0.37s-0.63,0.59-0.83,0.99v6.06h-1.46v-8.5h1.39
		V25.92z"/>
	<path class="st3" d="M263.4,30.1c0-1.33,0.3-2.38,0.92-3.16s1.43-1.17,2.43-1.17c1.03,0,1.85,0.37,2.43,1.1l0.07-0.94h1.33v8.3
		c0,1.1-0.33,1.96-0.97,2.61c-0.66,0.63-1.53,0.94-2.63,0.94c-0.62,0-1.22-0.13-1.8-0.39s-1.03-0.62-1.35-1.07l0.76-0.87
		c0.63,0.77,1.39,1.16,2.29,1.16c0.7,0,1.26-0.2,1.66-0.6c0.4-0.4,0.59-0.96,0.59-1.67v-0.73c-0.59,0.67-1.37,1-2.38,1
		c-1,0-1.8-0.4-2.42-1.2C263.7,32.56,263.4,31.48,263.4,30.1z M264.86,30.26c0,0.96,0.2,1.72,0.59,2.26
		c0.39,0.54,0.94,0.82,1.65,0.82c0.92,0,1.59-0.42,2.02-1.25v-3.88c-0.44-0.82-1.12-1.22-2-1.22c-0.7,0-1.26,0.27-1.66,0.83
		S264.86,29.19,264.86,30.26z"/>
	<path class="st3" d="M277.72,32.16c0-0.39-0.14-0.7-0.44-0.92c-0.3-0.21-0.82-0.4-1.55-0.56s-1.32-0.34-1.75-0.56
		c-0.43-0.21-0.76-0.49-0.96-0.79c-0.2-0.3-0.31-0.66-0.31-1.09c0-0.7,0.3-1.29,0.89-1.76c0.59-0.49,1.35-0.73,2.26-0.73
		c0.96,0,1.75,0.24,2.35,0.74c0.6,0.5,0.9,1.13,0.9,1.9h-1.46c0-0.4-0.17-0.74-0.5-1.03c-0.34-0.29-0.76-0.43-1.27-0.43
		c-0.53,0-0.94,0.11-1.25,0.34c-0.3,0.23-0.44,0.53-0.44,0.9c0,0.36,0.14,0.62,0.42,0.79c0.27,0.17,0.77,0.34,1.5,0.52
		c0.73,0.16,1.32,0.36,1.76,0.59c0.44,0.23,0.79,0.5,1,0.82s0.33,0.7,0.33,1.16c0,0.76-0.3,1.37-0.92,1.83
		c-0.6,0.46-1.39,0.69-2.36,0.69c-0.69,0-1.29-0.11-1.8-0.36s-0.93-0.57-1.23-1.02c-0.3-0.43-0.44-0.9-0.44-1.4h1.46
		c0.03,0.49,0.21,0.87,0.59,1.16c0.36,0.29,0.84,0.43,1.45,0.43c0.54,0,0.99-0.11,1.32-0.33C277.58,32.85,277.72,32.54,277.72,32.16
		z"/>
	<path class="st3" d="M286.8,33.18h5.43v1.23h-6.94V22.97h1.52V33.18L286.8,33.18z"/>
	<path class="st3" d="M293.72,23.66c0-0.24,0.07-0.43,0.21-0.6c0.14-0.17,0.36-0.24,0.64-0.24c0.29,0,0.5,0.09,0.64,0.24
		c0.14,0.16,0.21,0.36,0.21,0.6c0,0.23-0.07,0.43-0.21,0.59s-0.36,0.24-0.64,0.24c-0.29,0-0.5-0.07-0.64-0.24
		C293.8,24.09,293.72,23.9,293.72,23.66z M295.3,34.41h-1.46v-8.5h1.46V34.41z"/>
	<path class="st3" d="M298.99,25.92l0.04,0.94c0.63-0.73,1.46-1.1,2.52-1.1c1.19,0,2,0.46,2.43,1.37c0.29-0.42,0.64-0.74,1.1-0.99
		s0.99-0.37,1.6-0.37c1.86,0,2.81,0.99,2.85,2.96v5.7h-1.46v-5.61c0-0.6-0.14-1.06-0.42-1.36c-0.27-0.3-0.74-0.46-1.4-0.46
		c-0.54,0-0.99,0.16-1.35,0.49c-0.36,0.33-0.56,0.76-0.62,1.3v5.64h-1.46v-5.57c0-1.23-0.6-1.85-1.82-1.85
		c-0.96,0-1.6,0.4-1.96,1.22v6.21h-1.46v-8.5h1.39V25.92z"/>
	<path class="st3" d="M311.73,23.66c0-0.24,0.07-0.43,0.21-0.6c0.14-0.17,0.36-0.24,0.64-0.24c0.29,0,0.5,0.09,0.64,0.24
		c0.14,0.16,0.21,0.36,0.21,0.6c0,0.23-0.07,0.43-0.21,0.59s-0.36,0.24-0.64,0.24c-0.29,0-0.5-0.07-0.64-0.24
		C311.8,24.09,311.73,23.9,311.73,23.66z M313.31,34.41h-1.46v-8.5h1.46V34.41z"/>
	<path class="st3" d="M317.6,23.86v2.06h1.59v1.13h-1.59v5.28c0,0.34,0.07,0.6,0.21,0.77s0.39,0.26,0.72,0.26
		c0.17,0,0.4-0.03,0.69-0.1v1.17c-0.39,0.1-0.76,0.16-1.12,0.16c-0.64,0-1.15-0.2-1.47-0.59s-0.5-0.94-0.5-1.67v-5.27h-1.55v-1.13
		h1.55v-2.08H317.6z"/>
	<path class="st3" d="M324.42,34.57c-1.15,0-2.09-0.37-2.81-1.13s-1.09-1.78-1.09-3.03v-0.27c0-0.84,0.16-1.6,0.49-2.26
		c0.33-0.66,0.77-1.19,1.35-1.56c0.57-0.37,1.2-0.56,1.88-0.56c1.1,0,1.96,0.36,2.58,1.09c0.62,0.73,0.92,1.78,0.92,3.12v0.6h-5.75
		c0.01,0.84,0.27,1.52,0.73,2.03c0.46,0.52,1.06,0.77,1.79,0.77c0.52,0,0.94-0.1,1.3-0.31s0.67-0.49,0.93-0.83l0.89,0.69
		C326.91,34.02,325.83,34.57,324.42,34.57z M324.23,26.95c-0.59,0-1.07,0.21-1.47,0.64c-0.4,0.43-0.64,1.03-0.74,1.79h4.27v-0.11
		c-0.04-0.74-0.24-1.32-0.6-1.72C325.32,27.15,324.85,26.95,324.23,26.95z"/>
	<path class="st3" d="M329.05,30.1c0-1.3,0.31-2.35,0.93-3.15c0.62-0.8,1.43-1.19,2.43-1.19c1,0,1.79,0.34,2.36,1.02v-4.44h1.46
		v12.07h-1.33l-0.07-0.92c-0.59,0.72-1.39,1.07-2.43,1.07c-0.99,0-1.79-0.4-2.4-1.2s-0.93-1.86-0.93-3.16v-0.1H329.05z
		 M330.51,30.26c0,0.96,0.2,1.72,0.6,2.26c0.4,0.54,0.94,0.82,1.65,0.82c0.92,0,1.59-0.42,2.02-1.25v-3.91c-0.43-0.8-1.1-1.2-2-1.2
		c-0.72,0-1.26,0.27-1.66,0.83C330.71,28.37,330.51,29.19,330.51,30.26z"/>
	<path class="st3" d="M99.29,48.3c0-1.19,0.16-2.32,0.47-3.41c0.31-1.09,0.79-2.08,1.42-2.96c0.63-0.89,1.27-1.52,1.96-1.89
		l0.3,0.96c-0.76,0.59-1.39,1.49-1.88,2.69c-0.49,1.2-0.76,2.55-0.8,4.05l-0.01,0.67c0,2.02,0.37,3.78,1.1,5.27
		c0.44,0.89,0.97,1.59,1.59,2.09l-0.3,0.89c-0.7-0.39-1.36-1.03-1.99-1.95C99.91,52.91,99.29,50.77,99.29,48.3z"/>
	<path class="st3" d="M108.44,48.63c-1.29-0.37-2.23-0.83-2.82-1.37c-0.59-0.54-0.89-1.22-0.89-2c0-0.9,0.36-1.65,1.07-2.23
		c0.72-0.59,1.66-0.89,2.81-0.89c0.79,0,1.49,0.16,2.1,0.46s1.09,0.73,1.43,1.26s0.5,1.12,0.5,1.75h-1.52
		c0-0.69-0.21-1.25-0.66-1.63c-0.44-0.39-1.06-0.6-1.86-0.6c-0.74,0-1.32,0.16-1.75,0.49c-0.42,0.33-0.63,0.79-0.63,1.36
		c0,0.47,0.2,0.86,0.6,1.19c0.4,0.33,1.07,0.62,2.02,0.89c0.94,0.27,1.69,0.56,2.23,0.89c0.54,0.33,0.93,0.7,1.19,1.13
		c0.26,0.43,0.39,0.93,0.39,1.52c0,0.93-0.36,1.67-1.09,2.23c-0.73,0.56-1.69,0.83-2.91,0.83c-0.79,0-1.52-0.14-2.2-0.46
		c-0.69-0.3-1.2-0.72-1.57-1.23c-0.37-0.52-0.56-1.12-0.56-1.79h1.52c0,0.69,0.26,1.23,0.77,1.63c0.52,0.4,1.19,0.6,2.05,0.6
		c0.8,0,1.4-0.16,1.83-0.49c0.43-0.33,0.63-0.77,0.63-1.33s-0.2-0.99-0.59-1.3C110.19,49.23,109.47,48.93,108.44,48.63z"/>
	<path class="st3" d="M116.37,43.17v2.06h1.59v1.13h-1.59v5.28c0,0.34,0.07,0.6,0.21,0.77c0.14,0.17,0.39,0.26,0.72,0.26
		c0.17,0,0.4-0.03,0.69-0.1v1.17c-0.39,0.1-0.76,0.16-1.12,0.16c-0.64,0-1.15-0.2-1.47-0.59c-0.33-0.39-0.5-0.94-0.5-1.67v-5.27
		h-1.55v-1.13h1.55v-2.06h1.47C116.37,43.19,116.37,43.17,116.37,43.17z"/>
	<path class="st3" d="M119.11,49.4c0-0.83,0.17-1.57,0.49-2.25s0.79-1.17,1.37-1.55c0.59-0.36,1.25-0.54,2-0.54
		c1.16,0,2.09,0.4,2.81,1.2c0.72,0.8,1.07,1.86,1.07,3.19v0.1c0,0.83-0.16,1.57-0.47,2.23c-0.31,0.66-0.77,1.17-1.36,1.53
		c-0.59,0.37-1.26,0.54-2.03,0.54c-1.15,0-2.09-0.4-2.81-1.2s-1.07-1.86-1.07-3.18V49.4z M120.57,49.57c0,0.94,0.21,1.7,0.66,2.28
		c0.44,0.57,1.02,0.86,1.76,0.86c0.74,0,1.33-0.29,1.76-0.87c0.43-0.59,0.66-1.39,0.66-2.43c0-0.93-0.23-1.69-0.66-2.26
		c-0.44-0.57-1.03-0.87-1.76-0.87c-0.72,0-1.3,0.29-1.73,0.86C120.8,47.7,120.57,48.51,120.57,49.57z"/>
	<path class="st3" d="M132.08,52.69c0.52,0,0.97-0.16,1.36-0.47c0.39-0.31,0.6-0.7,0.64-1.17h1.37c-0.03,0.49-0.2,0.96-0.5,1.39
		c-0.31,0.44-0.72,0.79-1.23,1.06c-0.52,0.26-1.06,0.39-1.63,0.39c-1.16,0-2.08-0.39-2.76-1.16c-0.69-0.77-1.03-1.83-1.03-3.16
		v-0.24c0-0.83,0.16-1.56,0.46-2.2c0.3-0.64,0.74-1.15,1.3-1.5c0.57-0.36,1.25-0.53,2.02-0.53c0.96,0,1.75,0.29,2.38,0.86
		c0.63,0.57,0.97,1.32,1.02,2.22h-1.37c-0.04-0.54-0.24-1-0.63-1.36s-0.83-0.53-1.39-0.53c-0.74,0-1.32,0.27-1.72,0.8
		c-0.4,0.53-0.6,1.3-0.6,2.3v0.27c0,0.97,0.2,1.73,0.6,2.26C130.76,52.43,131.33,52.69,132.08,52.69z"/>
	<path class="st3" d="M139.46,49.79l-0.92,0.94v2.99h-1.46V41.65h1.46v7.3l0.77-0.93l2.65-2.79h1.76l-3.31,3.55l3.69,4.95h-1.7
		L139.46,49.79z"/>
	<path class="st3" d="M157.87,50.1c-0.14,1.22-0.59,2.15-1.35,2.81c-0.76,0.66-1.75,0.99-2.99,0.99c-1.35,0-2.43-0.49-3.25-1.45
		c-0.82-0.97-1.22-2.26-1.22-3.89v-1.1c0-1.06,0.19-2,0.57-2.81c0.39-0.8,0.92-1.43,1.62-1.86s1.5-0.64,2.42-0.64
		c1.22,0,2.19,0.34,2.92,1.02c0.73,0.67,1.16,1.62,1.27,2.82h-1.52c-0.13-0.92-0.42-1.57-0.84-1.99c-0.44-0.42-1.05-0.62-1.83-0.62
		c-0.96,0-1.72,0.36-2.26,1.07c-0.54,0.72-0.82,1.73-0.82,3.05v1.1c0,1.25,0.26,2.23,0.77,2.96c0.52,0.73,1.25,1.1,2.18,1.1
		c0.83,0,1.47-0.19,1.93-0.57c0.44-0.39,0.74-1.05,0.89-1.99C156.37,50.1,157.87,50.1,157.87,50.1z"/>
	<path class="st3" d="M159.32,49.4c0-0.83,0.17-1.57,0.49-2.25s0.79-1.17,1.37-1.55c0.59-0.36,1.25-0.54,2-0.54
		c1.16,0,2.09,0.4,2.81,1.2c0.72,0.8,1.07,1.86,1.07,3.19v0.1c0,0.83-0.16,1.57-0.47,2.23c-0.31,0.66-0.77,1.17-1.36,1.53
		c-0.59,0.37-1.26,0.54-2.03,0.54c-1.15,0-2.09-0.4-2.81-1.2s-1.07-1.86-1.07-3.18V49.4z M160.78,49.57c0,0.94,0.21,1.7,0.66,2.28
		c0.44,0.57,1.02,0.86,1.76,0.86c0.74,0,1.33-0.29,1.76-0.87c0.43-0.59,0.66-1.39,0.66-2.43c0-0.93-0.23-1.69-0.66-2.26
		c-0.44-0.57-1.03-0.87-1.76-0.87c-0.72,0-1.3,0.29-1.73,0.86C161.01,47.7,160.78,48.51,160.78,49.57z"/>
	<path class="st3" d="M168.52,49.4c0-1.3,0.31-2.35,0.93-3.15s1.43-1.19,2.43-1.19s1.79,0.34,2.36,1.02v-4.44h1.46v12.07h-1.33
		l-0.07-0.92c-0.59,0.72-1.39,1.07-2.43,1.07c-0.99,0-1.79-0.4-2.4-1.2c-0.62-0.8-0.93-1.86-0.93-3.16L168.52,49.4L168.52,49.4z
		 M169.98,49.57c0,0.96,0.2,1.72,0.6,2.26c0.4,0.54,0.94,0.82,1.65,0.82c0.92,0,1.59-0.42,2.02-1.25V47.5c-0.43-0.8-1.1-1.2-2-1.2
		c-0.72,0-1.26,0.27-1.66,0.83C170.18,47.68,169.98,48.5,169.98,49.57z"/>
	<path class="st3" d="M181.48,53.88c-1.15,0-2.09-0.37-2.81-1.13c-0.72-0.76-1.09-1.78-1.09-3.03v-0.27c0-0.84,0.16-1.6,0.49-2.26
		c0.33-0.66,0.77-1.19,1.35-1.56c0.57-0.37,1.2-0.56,1.88-0.56c1.1,0,1.96,0.36,2.58,1.09s0.92,1.78,0.92,3.12v0.6h-5.75
		c0.01,0.84,0.27,1.52,0.73,2.03c0.46,0.52,1.06,0.77,1.79,0.77c0.52,0,0.94-0.1,1.3-0.31s0.67-0.49,0.93-0.83l0.89,0.69
		C183.98,53.34,182.91,53.88,181.48,53.88z M181.31,46.26c-0.59,0-1.07,0.21-1.47,0.64c-0.4,0.43-0.64,1.03-0.74,1.79h4.25v-0.11
		c-0.04-0.74-0.24-1.32-0.6-1.72C182.39,46.46,181.91,46.26,181.31,46.26z"/>
	<path class="st3" d="M186.43,52.96c0-0.26,0.07-0.46,0.23-0.63c0.14-0.17,0.37-0.26,0.67-0.26s0.53,0.09,0.67,0.26
		c0.16,0.17,0.23,0.37,0.23,0.63c0,0.24-0.07,0.44-0.23,0.6c-0.16,0.16-0.39,0.24-0.67,0.24c-0.3,0-0.53-0.09-0.67-0.24
		C186.52,53.41,186.43,53.21,186.43,52.96z M186.45,46.02c0-0.26,0.07-0.46,0.23-0.63c0.14-0.17,0.37-0.26,0.67-0.26
		c0.3,0,0.53,0.09,0.69,0.26s0.23,0.37,0.23,0.63c0,0.24-0.07,0.44-0.23,0.6c-0.16,0.16-0.39,0.24-0.69,0.24
		c-0.3,0-0.52-0.09-0.67-0.24C186.52,46.46,186.45,46.26,186.45,46.02z"/>
	<path class="st3" d="M196.32,47.29h1.09c0.69-0.01,1.23-0.19,1.62-0.54c0.39-0.36,0.59-0.83,0.59-1.42c0-1.35-0.67-2.02-2-2.02
		c-0.63,0-1.13,0.17-1.5,0.54c-0.37,0.36-0.56,0.83-0.56,1.43h-1.46c0-0.9,0.33-1.66,0.99-2.26c0.66-0.6,1.5-0.9,2.52-0.9
		c1.07,0,1.92,0.29,2.53,0.86c0.62,0.57,0.92,1.36,0.92,2.38c0,0.5-0.16,0.97-0.49,1.45c-0.33,0.47-0.76,0.82-1.32,1.05
		c0.63,0.2,1.12,0.53,1.46,0.99c0.34,0.46,0.52,1.02,0.52,1.69c0,1.03-0.33,1.85-1,2.45c-0.67,0.6-1.55,0.9-2.62,0.9
		s-1.95-0.29-2.62-0.87c-0.67-0.59-1.02-1.35-1.02-2.3h1.46c0,0.6,0.2,1.09,0.59,1.45s0.92,0.54,1.57,0.54c0.7,0,1.25-0.19,1.6-0.54
		c0.37-0.37,0.56-0.89,0.56-1.57c0-0.66-0.2-1.17-0.62-1.53s-1-0.54-1.78-0.54h-1.09v-1.2C196.27,47.29,196.32,47.29,196.32,47.29z"
		/>
	<path class="st3" d="M205.36,47.29h1.09c0.69-0.01,1.23-0.19,1.62-0.54c0.39-0.36,0.59-0.83,0.59-1.42c0-1.35-0.67-2.02-2-2.02
		c-0.63,0-1.13,0.17-1.5,0.54c-0.37,0.36-0.56,0.83-0.56,1.43h-1.46c0-0.9,0.33-1.66,0.99-2.26c0.66-0.6,1.5-0.9,2.52-0.9
		c1.07,0,1.92,0.29,2.53,0.86c0.62,0.57,0.92,1.36,0.92,2.38c0,0.5-0.16,0.97-0.49,1.45c-0.33,0.47-0.76,0.82-1.32,1.05
		c0.63,0.2,1.12,0.53,1.46,0.99c0.34,0.46,0.52,1.02,0.52,1.69c0,1.03-0.33,1.85-1,2.45c-0.67,0.6-1.55,0.9-2.62,0.9
		s-1.95-0.29-2.62-0.87c-0.67-0.59-1.02-1.35-1.02-2.3h1.46c0,0.6,0.2,1.09,0.59,1.45s0.92,0.54,1.57,0.54c0.7,0,1.25-0.19,1.6-0.54
		c0.37-0.37,0.56-0.89,0.56-1.57c0-0.66-0.2-1.17-0.62-1.53s-1-0.54-1.78-0.54h-1.09v-1.2C205.3,47.29,205.36,47.29,205.36,47.29z"
		/>
	<path class="st3" d="M219.46,48.84c0,1.7-0.29,2.96-0.87,3.79c-0.59,0.83-1.49,1.25-2.73,1.25c-1.22,0-2.12-0.4-2.71-1.22
		s-0.89-2.02-0.92-3.62v-1.95c0-1.67,0.29-2.93,0.87-3.75s1.49-1.23,2.73-1.23c1.23,0,2.13,0.4,2.72,1.19
		c0.59,0.79,0.87,2,0.89,3.65v1.89C219.44,48.84,219.46,48.84,219.46,48.84z M218.01,46.87c0-1.23-0.17-2.13-0.52-2.69
		c-0.34-0.56-0.89-0.84-1.65-0.84c-0.74,0-1.29,0.29-1.63,0.84c-0.34,0.56-0.52,1.42-0.53,2.59v2.32c0,1.23,0.17,2.15,0.54,2.73
		c0.36,0.59,0.9,0.89,1.63,0.89c0.72,0,1.25-0.27,1.6-0.83c0.36-0.56,0.53-1.43,0.54-2.62L218.01,46.87L218.01,46.87z"/>
	<path class="st3" d="M226.89,48.7c-0.3,0.36-0.67,0.66-1.09,0.87c-0.42,0.21-0.89,0.33-1.39,0.33c-0.66,0-1.23-0.16-1.72-0.49
		c-0.49-0.33-0.87-0.79-1.13-1.37c-0.27-0.59-0.4-1.25-0.4-1.95c0-0.76,0.14-1.46,0.43-2.06c0.29-0.6,0.7-1.09,1.23-1.4
		c0.53-0.31,1.16-0.49,1.88-0.49c1.13,0,2.02,0.43,2.68,1.27c0.66,0.84,0.97,2,0.97,3.46v0.43c0,2.23-0.44,3.85-1.32,4.88
		c-0.87,1.02-2.2,1.55-3.98,1.57h-0.29v-1.23h0.3c1.2-0.01,2.12-0.33,2.76-0.93S226.83,50,226.89,48.7z M224.65,48.7
		c0.49,0,0.93-0.14,1.35-0.44c0.42-0.3,0.72-0.67,0.9-1.1v-0.59c0-0.96-0.2-1.73-0.62-2.32c-0.42-0.59-0.93-0.9-1.57-0.9
		c-0.64,0-1.15,0.24-1.55,0.73c-0.39,0.49-0.59,1.13-0.59,1.93c0,0.77,0.19,1.42,0.56,1.93C223.52,48.44,224.02,48.7,224.65,48.7z"
		/>
	<path class="st3" d="M233.86,48.37c0,1.17-0.16,2.29-0.46,3.36c-0.3,1.07-0.77,2.06-1.4,2.96s-1.29,1.55-1.99,1.93l-0.3-0.89
		c0.8-0.62,1.46-1.57,1.95-2.88c0.49-1.3,0.74-2.75,0.74-4.34v-0.26c0-1.1-0.11-2.12-0.34-3.06c-0.23-0.94-0.54-1.79-0.96-2.55
		c-0.42-0.74-0.87-1.33-1.39-1.75l0.3-0.89c0.69,0.39,1.35,1.02,1.98,1.92c0.63,0.9,1.09,1.89,1.4,2.96
		C233.7,45.98,233.86,47.14,233.86,48.37z"/>
</g>
</svg>
