<svg width="360" height="79" viewBox="0 0 360 79" fill="none" xmlns="http://www.w3.org/2000/svg">
<path d="M99.64 36.82V38.16H117.34V36.82H99.64ZM113.92 30.16C110.8 32.38 105.36 34.04 100.4 34.86C100.74 35.16 101.2 35.8 101.44 36.14C106.16 35.12 111.72 33.44 115.16 30.98L113.92 30.16ZM108.48 38.66V48.6H109.94V38.66H108.48ZM103.04 40.62V47.44H104.54V41.96H114.94V40.62H103.04ZM114.26 40.62V45.68C114.26 45.92 114.18 45.98 113.88 46C113.58 46.02 112.58 46.02 111.44 45.98C111.64 46.36 111.84 46.88 111.92 47.3C113.44 47.3 114.42 47.28 115 47.06C115.6 46.84 115.76 46.44 115.76 45.68V40.62H114.26ZM101.68 31.48C106.1 32.68 111.78 34.74 114.66 36.22L115.78 35.12C112.68 33.62 107 31.66 102.7 30.56L101.68 31.48ZM106.64 34.42C105.44 37.84 102.8 41.28 99.18 43.22C99.5 43.5 99.96 44.04 100.18 44.38C103.94 42.22 106.64 38.62 108.16 34.84L106.64 34.42ZM119.52 31.4V32.82H126.1V31.4H119.52ZM119.64 37.02V38.42H125.92V37.02H119.64ZM119.12 43.96L119.46 45.42C121.28 44.86 123.7 44.1 126 43.38L125.84 42C123.38 42.76 120.82 43.52 119.12 43.96ZM122.08 31.96V43.96L123.52 43.66V31.96H122.08ZM127.7 34.2V35.42H136.48V34.2H127.7ZM127.7 37.28V38.52H136.54V37.28H127.7ZM126.96 40.42V41.74H136.56V40.42H126.96ZM131.54 31.74V40.98H132.9V31.74H131.54ZM128.76 43.36C128.96 44.54 129.1 46.08 129.08 47.08L130.22 46.88C130.22 45.9 130.06 44.38 129.82 43.18L128.76 43.36ZM131.02 43.18C131.42 44.18 131.8 45.48 131.94 46.34L133 46.02C132.84 45.18 132.44 43.88 132.02 42.9L131.02 43.18ZM133.16 42.74C133.7 43.5 134.28 44.5 134.5 45.16L135.44 44.72C135.18 44.08 134.6 43.1 134.02 42.38L133.16 42.74ZM126.6 42.8C126.38 44.48 125.88 46.18 124.84 47.18L125.94 47.8C127.1 46.72 127.54 44.88 127.8 43.08L126.6 42.8ZM126.96 31.06V41.08H128.36V32.38H137.16V31.06H126.96ZM136.14 40.42V40.66C135.94 45.08 135.68 46.72 135.32 47.14C135.16 47.3 134.98 47.34 134.68 47.34C134.36 47.34 133.58 47.34 132.72 47.26C132.92 47.62 133.06 48.2 133.1 48.58C134 48.64 134.84 48.64 135.3 48.6C135.84 48.54 136.18 48.4 136.52 48.04C137.06 47.42 137.28 45.7 137.52 41.06C137.54 40.86 137.54 40.42 137.54 40.42H136.14ZM140.76 31.32V32.66H144.36V44H140.76V45.36H145.76V31.32H140.76ZM140.76 35.52V36.84H145.16V35.52H140.76ZM140.76 39.76V41.06H145.16V39.76H140.76ZM139.96 31.32V47.02H141.36V31.32H139.96ZM147.62 31.1V47.22L149.1 47.02V31.1H147.62ZM148.36 31.1V32.42H155.14V38.56H148.36V39.88H156.6V31.1H148.36ZM148.4 34.84V36.1H155.78V34.84H148.4ZM145.78 46.98L146.2 48.4C148.12 47.96 150.7 47.38 153.18 46.78L153.04 45.48C150.34 46.06 147.58 46.64 145.78 46.98ZM152.34 39.1L151.1 39.34C152 43.62 153.78 46.98 156.92 48.6C157.16 48.2 157.62 47.62 157.96 47.32C154.94 46 153.16 42.88 152.34 39.1ZM156.64 40.44C155.74 41.32 154.14 42.48 153.06 43.14L153.88 44.1C155.02 43.44 156.5 42.44 157.64 41.5L156.64 40.44ZM162.74 31.86V48.56H164.2V31.86H162.74ZM159.36 35.84V37.26H167.16V35.84H159.36ZM162.82 36.38C162.1 38.86 160.5 41.98 159.06 43.58C159.32 43.92 159.68 44.54 159.82 44.96C161.36 43.1 162.96 39.6 163.76 36.78L162.82 36.38ZM165.94 30.48C164.42 31.16 161.8 31.74 159.54 32.1C159.7 32.44 159.9 32.94 159.98 33.28C162.26 32.96 165.02 32.42 166.86 31.7L165.94 30.48ZM164.12 37.52L163.42 38.14C164.02 38.92 165.58 41.3 166.06 42.26L167 41.08C166.56 40.48 164.64 38.06 164.12 37.52ZM173.74 30.2V48.58H175.22V30.2H173.74ZM166.92 43.22L167.14 44.64L177.8 42.9L177.56 41.5L166.92 43.22ZM168.54 32.48C169.72 33.28 171.12 34.48 171.76 35.32L172.8 34.34C172.12 33.5 170.7 32.36 169.5 31.6L168.54 32.48ZM167.74 37.68C169.04 38.5 170.56 39.76 171.3 40.64L172.3 39.64C171.56 38.78 169.98 37.58 168.68 36.8L167.74 37.68ZM182.1 47.18V48.1H195.12V47.18H182.1ZM182.1 45.5V46.38H195.12V45.5H182.1ZM179.84 39.88V40.92H197.22V39.88H179.84ZM181.02 41.84V48.6H182.4V42.74H194.8V48.6H196.22V41.84H181.02ZM183.32 31.9C183.06 32.66 182.62 33.38 182 33.94C182.26 34.06 182.68 34.32 182.86 34.44C183.44 33.86 183.98 32.98 184.28 32.12L183.32 31.9ZM189.3 34.52V35.5H195.2V34.52H189.3ZM183.22 32.88V33.7H187.82V32.88H183.22ZM182.02 34.6V35.46H188.26V34.6H182.02ZM190.58 30.72V31.82H194.34V30.72H190.58ZM194.9 34.52V34.7C194.02 36.84 191.46 38.04 188.8 38.48C189.02 38.74 189.28 39.18 189.4 39.48C192.36 38.84 195.08 37.5 196.14 34.76L195.4 34.48L195.16 34.52H194.9ZM191 35.4L189.84 35.7C191.02 37.84 193.44 39.2 196.62 39.72C196.78 39.38 197.12 38.88 197.4 38.62C194.4 38.26 192.02 37.16 191 35.4ZM189.98 30.72V31.76C189.98 32.48 189.72 33.2 188.26 33.8C188.5 33.98 188.94 34.46 189.1 34.72C190.78 33.94 191.18 32.84 191.18 31.82V30.72H189.98ZM193.74 30.72V32.52C193.74 33.38 193.82 33.66 194.06 33.88C194.28 34.1 194.72 34.18 195.06 34.18C195.24 34.18 195.74 34.18 195.94 34.18C196.2 34.18 196.54 34.16 196.74 34.08C196.96 33.98 197.14 33.84 197.24 33.64C197.36 33.44 197.42 32.9 197.46 32.4C197.14 32.3 196.76 32.12 196.52 31.92C196.52 32.36 196.5 32.72 196.44 32.88C196.4 33.02 196.32 33.1 196.24 33.12C196.18 33.16 196 33.16 195.86 33.16C195.7 33.16 195.44 33.16 195.32 33.16C195.18 33.16 195.08 33.16 195.04 33.1C194.96 33.04 194.96 32.9 194.96 32.6V30.72H193.74ZM184.68 33.22V34.58C184.68 35.4 184.4 36.52 182.06 37.14C182.3 37.34 182.6 37.68 182.74 37.92C185.32 37.02 185.7 35.64 185.7 34.6V33.22H184.68ZM186.06 40.42V42.2C186.06 43.02 185.66 44.04 182.7 44.52C182.96 44.74 183.28 45.14 183.44 45.42C186.68 44.66 187.28 43.42 187.28 42.2V40.42H186.06ZM189.56 40.44V43.36C189.56 44.44 189.92 44.66 191.46 44.66C191.78 44.66 194.08 44.66 194.38 44.66C195.3 44.66 195.64 44.5 195.74 44.04C195.44 43.98 195 43.9 194.76 43.76C194.72 43.84 194.6 43.84 194.22 43.84C193.78 43.84 191.9 43.84 191.58 43.84C190.88 43.84 190.76 43.78 190.76 43.38V40.44H189.56ZM184.64 36C185.62 36.52 186.84 37.3 187.46 37.82L188.1 37.12C187.46 36.58 186.24 35.84 185.26 35.36L184.64 36ZM188.56 30.92H180.4V39.02H188.68V38.06H181.6V31.9H188.56V30.92ZM204.46 35.18V36.36H217.44V35.18H204.46ZM204.54 37.34C205.28 37.86 206.16 38.6 206.6 39.1L207.48 38.34C207.02 37.84 206.1 37.12 205.36 36.66L204.54 37.34ZM213.06 45.16C214.2 46.1 215.52 47.46 216.12 48.34L217.3 47.66C216.66 46.78 215.32 45.48 214.18 44.58L213.06 45.16ZM207.54 41.86H213.94V43.12H207.54V41.86ZM207.54 39.68H213.94V40.9H207.54V39.68ZM206.24 38.68V44.12H215.28V38.68H206.24ZM206.62 44.54C205.92 45.62 204.76 46.66 203.6 47.38C203.94 47.58 204.48 48.02 204.7 48.28C205.9 47.48 207.2 46.2 207.98 44.92L206.62 44.54ZM216.14 36.54C215.68 37.04 214.82 37.84 214.2 38.3L215 38.9C215.62 38.48 216.44 37.84 217.08 37.18L216.14 36.54ZM212.66 35.62L211.52 36C212.68 38.14 214.8 40.1 216.98 41.06C217.18 40.72 217.58 40.26 217.88 40C215.76 39.22 213.68 37.46 212.66 35.62ZM209.98 43.52V47.12C209.98 47.34 209.92 47.4 209.66 47.4C209.4 47.42 208.54 47.44 207.56 47.4C207.76 47.76 207.98 48.26 208.06 48.64C209.36 48.64 210.2 48.62 210.74 48.42C211.3 48.22 211.44 47.88 211.44 47.16V43.52H209.98ZM209.7 33.44C209.02 35.86 207.08 38.52 203.6 40.16C203.92 40.36 204.34 40.8 204.54 41.14C208.2 39.3 210.22 36.46 211.14 33.64L209.7 33.44ZM202.9 32.06V33.36H217.68V32.06H202.9ZM202.16 32.06V38.5C202.16 41.36 201.92 45.04 199.64 47.62C199.94 47.82 200.48 48.32 200.7 48.62C203.16 45.86 203.56 41.58 203.56 38.5V32.06H202.16ZM208.7 30.22V32.76H210.28V30.22H208.7ZM199.38 34.24C199.96 35.5 200.5 37.14 200.64 38.18L201.84 37.64C201.7 36.64 201.14 35.04 200.5 33.8L199.38 34.24ZM199.08 41.6L199.58 42.92C200.64 42.32 201.78 41.64 202.9 40.94L202.56 39.8C201.22 40.5 199.98 41.18 199.08 41.6ZM226.32 41.06V42.44H236.74V41.06H226.32ZM225.06 46.66V48.04H237.7V46.66H225.06ZM225.66 32.3V35.74H226.98V33.6H236.14V35.56H237.52V32.3H225.66ZM230.68 30.2V33.14H232.14V30.2H230.68ZM230.66 41.72V47.38H232.14V41.72H230.66ZM232.38 33.44V37.54C232.38 38.9 232.7 39.28 234.1 39.28C234.38 39.28 235.64 39.28 235.94 39.28C237.04 39.28 237.4 38.78 237.54 36.8C237.16 36.72 236.6 36.5 236.32 36.28C236.28 37.82 236.2 38.02 235.78 38.02C235.52 38.02 234.5 38.02 234.3 38.02C233.84 38.02 233.76 37.96 233.76 37.54V33.44H232.38ZM229.1 33.5C228.98 36.48 228.48 38.02 225.58 38.84C225.86 39.1 226.2 39.58 226.32 39.9C229.64 38.9 230.32 36.98 230.48 33.5H229.1ZM219.04 40.58L219.42 42.04C221.14 41.44 223.36 40.64 225.46 39.84L225.2 38.48C222.94 39.28 220.6 40.1 219.04 40.58ZM219.32 34.24V35.64H225.32V34.24H219.32ZM221.84 30.22V46.86C221.84 47.16 221.72 47.22 221.48 47.22C221.24 47.24 220.48 47.24 219.6 47.22C219.8 47.64 219.98 48.26 220.04 48.62C221.3 48.62 222.08 48.58 222.54 48.34C223.04 48.1 223.24 47.7 223.24 46.86V30.22H221.84ZM249.06 30.9V32.3H254.16V30.9H249.06ZM247.22 38.86V40.26H255.54V38.86H247.22ZM248.46 30.9V33.26C248.46 34.66 248.18 36.3 246.26 37.52C246.56 37.72 247.14 38.24 247.36 38.52C249.48 37.12 249.9 35.04 249.9 33.3V30.9H248.46ZM253.36 30.9V35.9C253.36 37.32 253.72 37.7 254.92 37.7C255.16 37.7 256 37.7 256.26 37.7C257.32 37.7 257.68 37.1 257.8 34.68C257.42 34.6 256.82 34.36 256.54 34.14C256.48 36.12 256.42 36.4 256.1 36.4C255.92 36.4 255.3 36.4 255.14 36.4C254.84 36.4 254.8 36.32 254.8 35.88V30.9H253.36ZM249.4 40.2L248.02 40.66C249.68 44.56 252.72 47.4 256.84 48.66C257.06 48.28 257.52 47.66 257.88 47.36C253.86 46.28 250.8 43.66 249.4 40.2ZM255.02 38.86V39.14C253.78 43.34 250.16 46.2 246.3 47.3C246.6 47.62 247 48.22 247.16 48.62C251.32 47.22 255.08 44.24 256.54 39.2L255.58 38.8L255.32 38.86H255.02ZM241.22 30.94V32.34H245.6V30.94H241.22ZM241.22 35.6V37H245.64V35.6H241.22ZM241.18 40.34V41.76H245.62V40.34H241.18ZM240.62 30.94V38.14C240.62 41.08 240.52 45.1 239.14 47.92C239.5 48.06 240.1 48.4 240.38 48.64C241.78 45.68 241.98 41.26 241.98 38.14V30.94H240.62ZM244.78 30.94V46.8C244.78 47.08 244.68 47.16 244.42 47.18C244.16 47.2 243.34 47.2 242.4 47.18C242.6 47.56 242.82 48.24 242.86 48.6C244.18 48.62 245 48.58 245.5 48.34C246.02 48.08 246.2 47.62 246.2 46.82V30.94H244.78ZM259.76 32.8V34.22H277.28V32.8H259.76ZM264.64 39.94V41.24H274.04V39.94H264.64ZM263.58 36.54V48.6H265.06V37.88H273.8V36.54H263.58ZM273.46 36.54V46.72C273.46 47.02 273.34 47.12 273 47.14C272.64 47.14 271.42 47.16 270.08 47.1C270.3 47.52 270.52 48.14 270.58 48.56C272.3 48.56 273.42 48.56 274.06 48.32C274.74 48.08 274.92 47.62 274.92 46.74V36.54H273.46ZM266.3 30.2C265.22 34.22 262.86 38.46 259.28 40.92C259.58 41.22 260.04 41.74 260.24 42.08C264.06 39.4 266.46 34.96 267.82 30.56L266.3 30.2ZM264.64 43.32V44.62H274.04V43.32H264.64ZM288.24 34.88V36.14H295.7V34.88H288.24ZM285.12 46.86L285.62 48.32C287.56 47.88 290.24 47.3 292.76 46.72L292.66 45.4C289.86 45.96 286.96 46.54 285.12 46.86ZM287.38 31.1V46.98H288.84V31.1H287.38ZM288.24 31.1V32.42H294.94V38.66H288.24V39.98H296.4V31.1H288.24ZM292.1 39.12L290.86 39.36C291.78 43.58 293.64 46.96 296.76 48.54C296.98 48.16 297.42 47.6 297.76 47.3C294.78 45.98 292.96 42.86 292.1 39.12ZM296.08 40.44C295.24 41.4 293.74 42.66 292.66 43.44L293.6 44.2C294.72 43.46 296.14 42.34 297.26 41.3L296.08 40.44ZM280.12 31.08V48.62H281.54V32.44H285.24V31.08H280.12ZM284.8 31.08V31.5C284.34 32.88 283.52 35.3 282.72 37.12C284.28 38.68 284.7 40 284.7 41.1C284.72 41.72 284.6 42.24 284.26 42.46C284.06 42.58 283.82 42.64 283.56 42.66C283.2 42.68 282.76 42.68 282.24 42.62C282.48 43.02 282.6 43.62 282.62 43.98C283.12 44.02 283.68 44.02 284.14 43.96C284.56 43.92 284.94 43.8 285.24 43.6C285.84 43.18 286.1 42.36 286.1 41.26C286.1 40.02 285.72 38.6 284.1 36.94C284.84 35.36 285.68 33.3 286.32 31.64L285.3 31.02L285.08 31.08H284.8ZM306.84 37.46C305.9 40.28 304.16 44.18 302.74 46.64L304.12 47.08C305.6 44.66 307.34 40.92 308.6 37.9L306.84 37.46ZM300.28 46.18L300.48 47.76C304.24 47.6 309.84 47.3 315.08 47L315.12 45.56C309.76 45.82 303.94 46.06 300.28 46.18ZM310.68 41.84C312.46 43.96 314.54 46.88 315.48 48.7L317 47.88C316 46.06 313.94 43.28 312.12 41.18L310.68 41.84ZM304.82 30.8C303.66 33.76 301.68 36.64 299.48 38.44C299.9 38.68 300.6 39.22 300.92 39.52C303.04 37.54 305.14 34.48 306.48 31.26L304.82 30.8ZM311.98 30.78L310.5 31.4C312.04 34.2 314.54 37.6 316.4 39.5C316.7 39.12 317.26 38.54 317.66 38.22C315.82 36.56 313.3 33.4 311.98 30.78ZM320.26 31.5V32.94H335.34V31.5H320.26ZM320.38 35.04V36.38H332.44V35.04H320.38ZM334.74 31.5V46.36C334.74 46.74 334.62 46.84 334.24 46.86C333.82 46.88 332.46 46.88 331.06 46.84C331.3 47.28 331.52 48.02 331.6 48.48C333.38 48.48 334.64 48.46 335.34 48.2C336.04 47.92 336.24 47.4 336.24 46.36V31.5H334.74ZM321.66 38.54V46.42H323.12V38.54H321.66ZM322.86 38.54V39.88H329.58V43.62H322.86V44.94H331.06V38.54H322.86Z" fill="white"/>
<path d="M79 0H0V79H79V0Z" fill="#FCFDFF"/>
<path d="M23.7402 37.2801H26.6802V25.5001H29.6202V37.2801H32.5702V25.5001H35.5102V37.2801H38.4502V22.5601H23.7402V37.2801Z" fill="#7FC9F6"/>
<path d="M6.91016 37.2801H21.6302V34.3301H9.86016V25.5001H21.6302V22.5601H6.91016V37.2801Z" fill="#7FC9F6"/>
<path fill-rule="evenodd" clip-rule="evenodd" d="M33.9102 51.2601L35.1502 50.7701C35.6902 52.0601 36.0202 52.9101 36.1402 53.3101L34.8502 53.6901C34.5302 52.7201 34.2102 51.9101 33.9102 51.2601ZM32.0002 51.4901L33.3602 51.1801C33.7302 52.4401 33.9802 53.5301 34.1302 54.4501L32.7502 54.6601C32.5702 53.6801 32.3202 52.6201 32.0002 51.4901ZM30.2102 51.5201L31.6202 51.4701C31.7602 53.1101 31.8202 54.4301 31.8102 55.4401L30.4302 55.3801C30.4602 53.8601 30.3902 52.5701 30.2102 51.5201ZM28.3002 52.8401C27.2602 53.5501 26.0402 54.2401 24.6502 54.9201L23.9402 53.4901C24.5302 53.2401 25.0402 53.0201 25.4602 52.8301V48.9001H24.3902V47.3901H25.4602V44.0801H24.3902V42.5701H28.0202V44.0801H26.9202V47.3901H27.9002V48.9001H26.9202V51.9801C27.1502 51.8201 27.3502 51.6701 27.5302 51.5401L28.3702 52.6201C28.4802 52.2101 28.5802 51.7701 28.6702 51.3101L30.1502 51.7201C29.7402 53.4401 29.1002 54.8801 28.2402 56.0401C27.8402 55.5901 27.4602 55.2901 27.1002 55.1301C27.5402 54.5301 27.8902 53.9301 28.1302 53.3401C28.1702 53.1701 28.2302 53.0001 28.3002 52.8401ZM32.2602 46.9301H30.0602V46.1201H32.2602V46.9301ZM32.2602 44.7901H30.0602V44.0901C30.0602 43.9901 30.1102 43.9301 30.2202 43.9201H32.2602V44.7901ZM30.0602 49.0701V48.2601H32.2602V49.0701H30.0602ZM28.5902 49.6301V50.2401C28.5902 50.4301 28.6702 50.5201 28.8402 50.5201H36.0602C36.1902 50.5201 36.2502 50.5601 36.2502 50.6401C36.2902 52.3001 36.2802 53.3701 36.2002 53.8601C36.1402 54.2301 36.0002 54.5301 35.7702 54.7801C35.6702 54.8801 35.4902 54.9401 35.2402 54.9501C35.0202 54.9501 34.4802 54.8701 33.6002 54.7101L33.7502 56.3101C35.3502 56.4301 36.3702 56.3001 36.8302 55.9101C37.2302 55.5701 37.4602 55.1401 37.5402 54.6001C37.7002 53.7101 37.7702 51.9801 37.7502 49.4301C37.7602 49.2101 37.6702 49.0901 37.4702 49.0801H33.7302V48.2701H37.0202V46.9401H33.7302V46.1301H36.9602V44.8001H33.7302V43.9301H37.3102V42.4801H28.9202C28.7002 42.4801 28.5902 42.5901 28.5902 42.8201V49.6301V49.6301ZM13.7702 51.3401V56.1901H15.3002V51.3401H18.1402C18.2302 51.3401 18.2702 51.3801 18.2702 51.4601V53.9301C18.2702 54.1201 18.1402 54.2801 17.8702 54.3901C17.5002 54.5201 16.8002 54.4301 15.7702 54.1301L15.8102 55.8701C17.3002 56.1601 18.3902 56.1201 19.0802 55.7801C19.5502 55.5401 19.7902 55.1901 19.7902 54.7301V50.2101C19.7902 49.9601 19.6602 49.8301 19.4102 49.8301H15.3002V48.6701H13.7702V49.8301H11.6802C12.1302 49.4201 12.6402 48.8901 13.2002 48.2401C13.2102 48.2101 13.2302 48.1801 13.2602 48.1601H20.6702V46.6501H14.3702C14.5202 46.4101 14.6802 46.1601 14.8602 45.9001L13.7902 45.1801C14.0202 45.0901 14.3002 45.0001 14.6202 44.9101C16.0202 45.3201 17.5302 45.8301 19.1502 46.4501L19.5602 44.9801C18.6402 44.6401 17.7502 44.3101 16.9002 44.0001C17.3902 43.7801 17.9102 43.5301 18.4702 43.2701L17.7902 41.8701C16.7402 42.4301 15.7202 42.9101 14.7102 43.3001C12.7002 42.6901 10.8502 42.2601 9.16016 42.0201L8.82016 43.5201C9.74016 43.6501 10.7402 43.8601 11.8302 44.1301C10.5202 44.4201 9.08016 44.5801 7.52016 44.6201L7.86016 46.1301C9.23016 46.1401 10.8302 45.9301 12.6402 45.4901C12.9002 45.4201 13.2002 45.3401 13.5302 45.2601C13.1902 45.7801 12.8802 46.2401 12.6002 46.6501H7.40016V48.1601H11.3502C10.3902 49.0801 9.36016 49.8601 8.27016 50.5101C7.82016 50.7301 7.36016 50.9601 6.91016 51.1901L7.75016 52.5201C8.29016 52.2401 8.84016 51.9201 9.38016 51.5901V55.7401H10.9002V51.4501C10.9002 51.3801 10.9402 51.3401 11.0202 51.3301H13.7702V51.3401Z" fill="#7FC9F6"/>
<path fill-rule="evenodd" clip-rule="evenodd" d="M69.2302 52.8202L63.7102 53.6702L63.3702 52.1302L69.2302 51.2202V42.2602H70.7602V50.9902L71.8702 50.8102L72.0902 52.3702L70.7602 52.6002V56.2002H69.2302V52.8202ZM64.4302 47.8302L65.5002 46.7302C66.3602 47.4402 67.2402 48.3202 68.1302 49.3602L67.0002 50.3602C66.2002 49.4702 65.3502 48.6202 64.4302 47.8302ZM64.9502 44.0002C66.0802 45.0702 67.0002 46.0702 67.7302 47.0102L68.9102 46.0302C68.1602 45.0802 67.2102 44.0602 66.0502 42.9502L64.9502 44.0002ZM62.2302 49.8702C62.7402 50.5102 63.2002 51.1102 63.6102 51.6702L64.7502 50.6302C63.9502 49.6502 63.1102 48.7002 62.2302 47.8102V47.6402H64.1802V46.0702H62.2302V43.9502C62.9202 43.8202 63.5602 43.6602 64.1502 43.4802L63.8502 41.9102C62.5702 42.3102 60.8302 42.6002 58.6402 42.8002L58.8502 44.3702C59.4802 44.3302 60.1002 44.2702 60.7002 44.2002V46.0802H58.4202V47.6502H60.6302C59.9802 49.3602 59.0702 50.8702 57.9202 52.1802L59.3302 52.8202C59.7602 52.2602 60.2102 51.5302 60.7102 50.6402V56.1402H62.2402V49.8702H62.2302ZM48.1702 45.2202V44.3502C48.1602 44.1102 48.2802 43.9902 48.5302 43.9902H52.4602C52.6802 43.9902 52.7902 44.1002 52.8002 44.3302V45.2302H48.1702V45.2202ZM52.8002 46.6702V47.4502C52.8002 47.7002 52.6702 47.8402 52.4202 47.8502H48.1702V46.6802H52.8002V46.6702ZM44.1902 43.8302C44.3502 43.8302 44.4302 43.9102 44.4302 44.0602V46.1602H42.8202V44.0602C42.8202 43.9102 42.8902 43.8302 43.0402 43.8302H44.1902ZM44.4302 53.5702C44.4302 53.7602 44.3402 53.8602 44.1502 53.8602H42.8202V51.3402H44.4302V53.5702ZM44.4302 49.9502H42.8202V47.5502H44.4302V49.9502ZM42.8202 55.2502H45.3702C45.4402 55.2502 45.5102 55.2402 45.5802 55.2202L45.7102 56.4402C47.7802 56.1002 49.4902 55.6402 50.8302 55.0502L50.2102 53.7402C49.5002 54.0602 48.8902 54.2902 48.3702 54.4402C48.3002 54.4502 48.2402 54.4702 48.1802 54.5002V49.2902H49.1402C49.8002 51.9002 50.9002 53.8402 52.4402 55.1402C52.8802 55.5202 53.4302 55.9302 54.0702 56.3802L55.2402 55.2102C53.8202 54.4002 52.7902 53.5902 52.1502 52.7502C53.1902 52.0402 54.0402 51.3402 54.7102 50.6602L53.8102 49.5202C53.2402 50.1102 52.4302 50.7802 51.3802 51.5202C51.0202 50.7802 50.7502 50.0402 50.5602 49.3102H53.8202C54.1202 49.3102 54.2802 49.1502 54.2802 48.8402V42.9902C54.2802 42.7102 54.1302 42.5602 53.8302 42.5502H47.1402C46.8702 42.5502 46.7202 42.7002 46.7102 42.9902V54.8002C46.4302 54.8302 46.1302 54.8802 45.8102 54.9502C45.8202 54.8902 45.8302 54.8302 45.8402 54.7602V42.9002C45.8402 42.5902 45.6902 42.4402 45.3802 42.4402H41.8402C41.5602 42.4402 41.4202 42.5902 41.4102 42.8802V56.1302H42.8202V55.2502V55.2502Z" fill="#7FC9F6"/>
<path d="M40.5596 37.2801H55.2696V34.3301H43.4996V31.3901H55.2696V28.4501H43.4996V25.5001H55.2696V22.5601H40.5596V37.2801Z" fill="#7FC9F6"/>
<path d="M72.0901 22.5601H57.3701V25.5001H69.1401V28.4501H57.3701V37.2801H60.3201V31.3901H63.2601L68.2301 37.2801H72.0901L67.1101 31.3901H72.0901V22.5601Z" fill="#7FC9F6"/>
</svg>
