<svg width="42" height="50" viewBox="0 0 42 50" fill="none" xmlns="http://www.w3.org/2000/svg">
<path d="M41.0672 20.5358C41.0676 16.7147 40.0018 12.9693 37.9897 9.72095C35.9776 6.47257 33.099 3.85005 29.6777 2.14844C26.2564 0.446823 22.4282 -0.266386 18.6237 0.0890281C14.8192 0.444443 11.1893 1.85438 8.1424 4.16025C5.0955 6.46612 2.75246 9.57643 1.37683 13.1413C0.00119542 16.7062 -0.352437 20.5842 0.35571 24.339C1.06386 28.0939 2.80569 31.5767 5.38526 34.3957C7.96484 37.2146 11.2798 39.2579 14.9573 40.2956L20.5361 50L26.1124 40.2956C30.4169 39.0799 34.2069 36.4921 36.9062 32.9256C39.6054 29.359 41.0665 25.0087 41.0672 20.5358Z" fill="url(#paint0_linear_391_2810)"/>
<defs>
<linearGradient id="paint0_linear_391_2810" x1="3.5" y1="4.5" x2="36" y2="50" gradientUnits="userSpaceOnUse">
<stop stop-color="#4995D9"/>
<stop offset="1" stop-color="#005CAF"/>
</linearGradient>
</defs>
</svg>
