<svg width="27" height="16" viewBox="0 0 27 16" fill="none" xmlns="http://www.w3.org/2000/svg">
<path d="M25.9282 7.99849C25.6993 7.70487 20.3046 0.844565 13.4542 0.697754H13.0138C6.16346 0.844565 0.768779 7.70487 0.539853 7.99849C0.480516 8.0736 0.448242 8.16653 0.448242 8.26225C0.448242 8.35797 0.480516 8.4509 0.539853 8.52601C0.768779 8.82212 6.16346 15.6824 13.0138 15.8267H13.2328H13.4542C20.3046 15.6824 25.6993 8.82212 25.9282 8.52352C25.9857 8.44809 26.0168 8.35586 26.0168 8.26101C26.0168 8.16615 25.9857 8.07392 25.9282 7.99849ZM19.9413 8.27469C19.9388 10.0208 19.2566 11.6974 18.0392 12.9492C16.8217 14.201 15.1648 14.9296 13.4194 14.9807H13.0461C11.342 14.8718 9.74323 14.118 8.57489 12.8726C7.40655 11.6272 6.75629 9.98359 6.75629 8.27594C6.75629 6.56828 7.40655 4.92472 8.57489 3.6793C9.74323 2.43389 11.342 1.6801 13.0461 1.57116H13.4194C15.1644 1.62223 16.8209 2.35052 18.0383 3.60177C19.2556 4.85302 19.9381 6.52897 19.9413 8.27469ZM1.43565 8.27469C2.14482 7.43613 4.53112 4.79104 7.73856 3.07659C6.40772 4.48007 5.66588 6.34055 5.66588 8.27469C5.66588 10.2088 6.40772 12.0693 7.73856 13.4728C4.52863 11.7583 2.14482 9.1033 1.43565 8.27469ZM18.7295 13.4728C20.0603 12.0693 20.8021 10.2088 20.8021 8.27469C20.8021 6.34055 20.0603 4.48007 18.7295 3.07659C21.9469 4.77113 24.3232 7.42368 25.0324 8.27469C24.3232 9.1033 21.9469 11.7583 18.7295 13.4604V13.4728Z" fill="white"/>
<path d="M9.75452 4.56934C9.41002 4.56934 9.07326 4.6715 8.78682 4.8629C8.50038 5.05429 8.27712 5.32632 8.14529 5.6446C8.01345 5.96287 7.97896 6.3131 8.04616 6.65098C8.11337 6.98886 8.27927 7.29922 8.52287 7.54282C8.76647 7.78642 9.07683 7.95232 9.41471 8.01952C9.75259 8.08673 10.1028 8.05223 10.4211 7.9204C10.7394 7.78856 11.0114 7.5653 11.2028 7.27886C11.3942 6.99242 11.4963 6.65566 11.4963 6.31116C11.4963 5.8492 11.3128 5.40617 10.9862 5.07951C10.6595 4.75286 10.2165 4.56934 9.75452 4.56934ZM9.75452 7.28161C9.56347 7.28161 9.3767 7.22492 9.21788 7.11872C9.05906 7.01253 8.93531 6.86159 8.86231 6.68503C8.78931 6.50847 8.77034 6.31422 8.80779 6.12687C8.84525 5.93952 8.93745 5.76749 9.07272 5.63257C9.20799 5.49764 9.38025 5.4059 9.5677 5.36893C9.75515 5.33196 9.94935 5.35142 10.1257 5.42488C10.3021 5.49833 10.4527 5.62247 10.5585 5.78157C10.6643 5.94067 10.7205 6.12757 10.72 6.31863C10.7187 6.57383 10.6164 6.81812 10.4355 6.9981C10.2545 7.17809 10.0097 7.27912 9.75452 7.27912V7.28161Z" fill="white"/>
<path d="M13.2498 4.21436C12.2782 4.21803 11.3428 4.58307 10.6255 5.23842C10.8125 5.45973 10.9174 5.7388 10.9224 6.02849C10.9141 6.09568 10.9006 6.16212 10.8822 6.22726C11.3406 5.67437 11.9795 5.30103 12.6862 5.17303C13.3929 5.04503 14.1221 5.17057 14.7454 5.52754C15.3686 5.8845 15.8458 6.44999 16.093 7.12435C16.3401 7.7987 16.3413 8.53866 16.0964 9.21382C15.8514 9.88898 15.376 10.456 14.754 10.815C14.1319 11.174 13.4031 11.3019 12.696 11.1762C11.9888 11.0505 11.3487 10.6793 10.8885 10.1279C10.4283 9.57651 10.1774 8.88037 10.1801 8.16216C10.1818 7.78196 10.2552 7.4055 10.3965 7.05255C10.1775 7.22758 9.90694 7.32571 9.6266 7.33184C9.55498 7.32415 9.48423 7.30983 9.41525 7.28907C9.34685 7.57512 9.31139 7.86805 9.30957 8.16216C9.31156 8.94043 9.54413 9.70067 9.97791 10.3468C10.4117 10.993 11.0272 11.4962 11.7468 11.7927C12.4663 12.0893 13.2576 12.166 14.0208 12.0131C14.7839 11.8602 15.4846 11.4847 16.0344 10.9338C16.5842 10.383 16.9584 9.68155 17.1098 8.91815C17.2612 8.15474 17.183 7.3636 16.8851 6.64462C16.5871 5.92563 16.0828 5.31105 15.4358 4.87851C14.7888 4.44597 14.0281 4.21486 13.2498 4.21436Z" fill="white"/>
</svg>
