<svg width="19" height="23" viewBox="0 0 19 23" fill="none" xmlns="http://www.w3.org/2000/svg">
<path d="M13.1442 22.6564C12.7809 22.6564 12.2907 22.4996 11.9 21.8079C11.4944 21.0962 11.3178 19.8347 11.1336 18.4959C10.9793 17.3961 10.8226 16.2565 10.5364 15.4229C10.4294 15.1093 10.1457 14.2807 9.57095 14.3081H9.49879C8.93892 14.3081 8.6652 15.1143 8.5582 15.4229C8.26826 16.4246 8.06513 17.4494 7.95105 18.486C7.76443 19.8247 7.59025 21.0863 7.18217 21.7979C6.75418 22.5444 6.22416 22.6639 5.85589 22.644C5.39804 22.6191 4.9352 22.3504 4.47984 21.8477C4.14888 21.4763 3.87621 21.0568 3.67114 20.6036C2.8052 18.5731 2.69074 16.8984 2.59867 15.5547C2.58374 15.3208 2.56882 15.1019 2.54892 14.8879V14.8481C2.54892 13.4173 1.98656 11.7849 1.4441 10.2074C0.916579 8.67206 0.371625 7.08701 0.296976 5.5965C0.207396 3.84224 0.794651 2.46122 2.06618 1.36636C2.7417 0.817473 3.55357 0.46228 4.41516 0.338683C5.296 0.200421 6.19798 0.316076 7.01544 0.67211L7.04282 0.687039L7.29165 0.826399C8.0058 1.21209 8.74483 1.60773 9.49381 1.5729H9.55353C10.3 1.60027 11.0465 1.20462 11.7557 0.826399L12.0045 0.687039L12.0344 0.67211C12.8518 0.315942 13.7538 0.200282 14.6347 0.338683C15.4961 0.462763 16.3079 0.817901 16.9836 1.36636C18.2626 2.45624 18.8399 3.83726 18.7529 5.5965C18.6782 7.0895 18.1333 8.67206 17.6057 10.2074C17.0608 11.7849 16.5009 13.4173 16.5009 14.8481C16.5021 14.8613 16.5021 14.8746 16.5009 14.8879C16.4835 15.1019 16.4686 15.3208 16.4512 15.5547C16.3591 16.8984 16.2446 18.5731 15.3787 20.6036C15.1727 21.0569 14.8992 21.4764 14.5675 21.8477C14.1146 22.3454 13.6518 22.6191 13.1914 22.644L13.1442 22.6564ZM12.7236 21.3277C12.8705 21.5765 13.0173 21.6984 13.1616 21.691C13.5771 21.6686 14.2191 20.8997 14.5202 20.2253C15.3215 18.3466 15.4235 16.8288 15.5155 15.4975C15.533 15.2686 15.5479 15.0496 15.5653 14.8356C15.5653 13.2531 16.155 11.5511 16.7199 9.90378C17.2176 8.43319 17.7501 6.9178 17.8172 5.55917C17.8919 4.10599 17.4365 3.01114 16.3865 2.11535C15.8422 1.67975 15.191 1.39805 14.5009 1.29958C13.8107 1.20111 13.1068 1.28948 12.4624 1.55548L12.2135 1.68486C11.467 2.09294 10.5961 2.55577 9.63315 2.55577H9.41916C8.4537 2.55577 7.59771 2.09294 6.83629 1.68486L6.58745 1.55548C5.94305 1.28948 5.23911 1.20111 4.54896 1.29958C3.8588 1.39805 3.20767 1.67975 2.66337 2.11535C1.61579 3.01114 1.17038 4.10599 1.23259 5.55917C1.30226 6.91282 1.82481 8.43319 2.32994 9.90378C2.89728 11.5511 3.48203 13.2531 3.487 14.8356C3.50442 15.0496 3.51935 15.2686 3.53428 15.4975C3.62635 16.8362 3.73086 18.3541 4.52961 20.2253C4.82821 20.8997 5.47269 21.6686 5.88575 21.691C6.03256 21.691 6.17937 21.5765 6.32618 21.3277C6.63971 20.7777 6.80891 19.551 6.97314 18.3641C7.0905 17.2633 7.30449 16.1751 7.61264 15.1118C7.74711 14.6547 7.97599 14.2308 8.28449 13.8677C8.44184 13.6996 8.63201 13.5656 8.84324 13.474C9.05446 13.3824 9.28224 13.3351 9.51248 13.3351C9.74271 13.3351 9.97049 13.3824 10.1817 13.474C10.3929 13.5656 10.5831 13.6996 10.7405 13.8677C11.0499 14.2302 11.2789 14.6543 11.4123 15.1118C11.7283 16.035 11.8926 17.2194 12.0518 18.3641C12.2384 19.551 12.4101 20.7777 12.7236 21.3277Z" fill="white"/>
<path d="M9.64278 4.76541H9.42879C7.90593 4.76541 6.73643 4.13586 5.79585 3.63074C5.69273 3.56547 5.61816 3.46357 5.58714 3.34554C5.55612 3.22751 5.57097 3.10211 5.62868 2.99458C5.68638 2.88705 5.78268 2.80536 5.89818 2.76596C6.01368 2.72656 6.13982 2.73238 6.25121 2.78223C7.09724 3.23759 8.1473 3.80243 9.42879 3.80243H9.64278C10.9218 3.80243 11.9743 3.23759 12.8179 2.78223C12.9293 2.73238 13.0554 2.72656 13.1709 2.76596C13.2864 2.80536 13.3827 2.88705 13.4404 2.99458C13.4981 3.10211 13.513 3.22751 13.4819 3.34554C13.4509 3.46357 13.3764 3.56547 13.2732 3.63074C12.3351 4.13586 11.1656 4.76541 9.64278 4.76541Z" fill="white"/>
</svg>
