<svg width="23" height="25" viewBox="0 0 23 25" fill="none" xmlns="http://www.w3.org/2000/svg">
<path d="M19.0393 14.3369C18.8953 14.2663 18.7614 14.1767 18.6411 14.0707C18.6425 13.9901 18.6705 13.9123 18.7207 13.8492C18.7913 13.7606 18.8251 13.6483 18.815 13.5355C18.8049 13.4226 18.7517 13.3181 18.6665 13.2434C18.5813 13.1688 18.4706 13.1299 18.3575 13.1347C18.2443 13.1395 18.1374 13.1878 18.0588 13.2694C17.8522 13.5102 17.7454 13.8209 17.7602 14.1379C17.7694 14.2661 17.8046 14.3911 17.8637 14.5054C17.9227 14.6196 18.0043 14.7206 18.1036 14.8023C18.2687 14.9287 18.4473 15.0364 18.6361 15.1233C19.3304 15.4791 19.6315 15.718 19.4623 16.3674C19.2931 17.0169 18.1459 17.4822 17.0436 17.9376C15.7845 18.4577 14.1223 19.3709 13.423 20.4707C12.7509 20.182 12.0984 19.8495 11.4697 19.4754C10.2329 18.6635 9.18915 17.5904 8.41186 16.3316C7.63457 15.0728 7.14265 13.6589 6.97074 12.1895C6.75923 10.2187 7.1499 8.19319 7.52813 6.23485C7.67245 5.48835 7.82176 4.72442 7.93622 3.96299C7.96857 3.74401 7.99844 3.52255 8.01834 3.30109C8.97885 3.54993 9.63079 3.85599 10.6535 4.71696C11.3106 5.33998 11.8147 6.10643 12.1266 6.95648C12.7487 8.69833 14.4756 8.99693 16.0035 9.27314C16.3568 9.33784 16.7151 9.42494 17.066 9.48217C17.1755 9.50208 17.2128 9.52944 17.1655 9.6663C17.0704 9.8998 16.9633 10.1282 16.8445 10.3506C16.5385 10.9105 16.2523 11.4405 16.6604 11.7839C16.8984 11.9506 17.1601 12.0807 17.4368 12.1696C17.6682 12.2343 17.6159 12.391 17.6159 12.391C17.1484 12.9202 16.611 13.3832 16.0184 13.7671C15.9686 13.796 15.9249 13.8345 15.8899 13.8803C15.855 13.9261 15.8294 13.9783 15.8146 14.034C15.7998 14.0897 15.7961 14.1477 15.8038 14.2048C15.8114 14.2619 15.8302 14.317 15.8591 14.3668C15.8881 14.4166 15.9265 14.4603 15.9723 14.4953C16.0181 14.5302 16.0703 14.5558 16.126 14.5706C16.1817 14.5854 16.2398 14.5891 16.2969 14.5814C16.354 14.5738 16.409 14.555 16.4588 14.5261C17.1531 14.0743 17.779 13.5255 18.3176 12.8962C18.4141 12.7797 18.4766 12.6388 18.4981 12.4891C18.5196 12.3394 18.4994 12.1866 18.4396 12.0477C18.3968 11.8977 18.3349 11.7538 18.2554 11.6197C17.9916 11.4311 17.7037 11.2787 17.3994 11.1668C17.4567 11.0399 17.5487 10.8682 17.6184 10.7438C17.8523 10.3133 18.0713 9.90518 18.0514 9.55433C18.0514 9.40005 17.9693 8.80782 17.4019 8.63363C16.9922 8.52724 16.5768 8.44416 16.1577 8.3848C14.6797 8.11605 13.4031 7.88713 12.9552 6.64295C12.5859 5.6505 11.9893 4.75827 11.2134 4.03765C10.3143 3.22045 9.21713 2.65257 8.03078 2.39036C8.00844 1.94221 7.89408 1.50343 7.69484 1.10138C7.64172 0.997767 7.54961 0.919514 7.43878 0.883815C7.32795 0.848116 7.20747 0.857905 7.10386 0.911032C7.00025 0.964158 6.922 1.05627 6.8863 1.1671C6.8506 1.27793 6.86039 1.3984 6.91351 1.50202C7.26686 2.19627 7.16234 3.06469 7.06032 3.82613C6.9583 4.58757 6.79904 5.31914 6.65721 6.06565C6.26653 8.08868 5.86343 10.1789 6.08987 12.2865C6.2757 13.8851 6.80984 15.4235 7.65466 16.7932C8.49948 18.163 9.6344 19.3308 10.9795 20.2144C12.2237 21.0256 13.3185 21.2322 14.3238 22.1056C15.1002 22.7849 15.2843 23.5065 14.3935 24.0788C14.3445 24.1101 14.3021 24.1506 14.2688 24.1982C14.2354 24.2458 14.2118 24.2995 14.1992 24.3562C14.1866 24.4129 14.1853 24.4716 14.1954 24.5288C14.2054 24.586 14.2267 24.6407 14.2579 24.6897C14.2891 24.7388 14.3296 24.7811 14.3772 24.8145C14.4248 24.8478 14.4785 24.8715 14.5352 24.8841C14.592 24.8967 14.6506 24.898 14.7078 24.8879C14.7651 24.8778 14.8198 24.8566 14.8688 24.8254C16.2647 23.9295 16.113 22.5087 14.9011 21.4511C14.6614 21.2432 14.405 21.0551 14.1347 20.8888C14.6996 19.9133 16.1926 19.2589 17.3696 18.7712C18.7282 18.2113 20.0122 17.6813 20.3009 16.6212C20.6965 15.1855 19.6166 14.6355 19.0393 14.3369Z" fill="white"/>
<path d="M12.087 23.0038C10.0615 22.755 3.62664 19.7366 3.49227 14.6454C3.4201 11.8659 4.0173 10.139 4.64685 8.30757C5.2525 6.69877 5.6619 5.02279 5.86615 3.31594C5.86912 3.25579 5.88439 3.1969 5.91102 3.14289C5.93764 3.08888 5.97507 3.04089 6.02098 3.00191C6.06688 2.96294 6.12028 2.93379 6.17789 2.91627C6.23551 2.89875 6.29609 2.89323 6.35592 2.90005C6.41576 2.90687 6.47355 2.92587 6.52574 2.95591C6.57793 2.98595 6.62341 3.02637 6.65936 3.07468C6.69531 3.12298 6.72099 3.17815 6.73478 3.23676C6.74858 3.29538 6.75021 3.35621 6.73957 3.41548C6.52364 5.1839 6.09589 6.91995 5.46553 8.58627C4.86086 10.3281 4.29102 11.9953 4.35821 14.6155C4.47516 19.1095 10.4024 21.8965 12.1866 22.1254C12.2452 22.1307 12.302 22.1481 12.3535 22.1766C12.405 22.205 12.4499 22.2439 12.4855 22.2908C12.5211 22.3376 12.5465 22.3913 12.5602 22.4486C12.5738 22.5058 12.5754 22.5652 12.5648 22.6231C12.4429 23.0984 12.087 23.0063 12.087 23.0038Z" fill="white"/>
<path d="M1.2227 15.2153C1.10411 15.2126 0.991338 15.1634 0.908875 15.0781C0.826412 14.9928 0.780916 14.8785 0.782255 14.7599C0.782255 13.2669 0.906665 12.1048 2.0961 10.3306C2.48677 9.75083 2.84261 9.33527 3.13872 8.82018C3.42842 8.37783 3.57123 7.85538 3.54681 7.32717C3.54093 7.26982 3.5464 7.21188 3.56291 7.15664C3.57942 7.10141 3.60666 7.04996 3.64306 7.00525C3.67945 6.96054 3.72429 6.92343 3.77502 6.89605C3.82576 6.86867 3.88138 6.85156 3.93873 6.84568C3.99608 6.83979 4.05402 6.84526 4.10926 6.86177C4.16449 6.87829 4.21594 6.90553 4.26065 6.94192C4.30536 6.97831 4.34247 7.02315 4.36985 7.07389C4.39723 7.12462 4.41435 7.18024 4.42023 7.23759C4.46675 7.95046 4.28362 8.65947 3.89768 9.26063C3.57419 9.82051 3.15116 10.3132 2.82768 10.8134C1.70792 12.4806 1.6681 13.4709 1.66064 14.7649C1.66132 14.8824 1.61579 14.9955 1.53386 15.0797C1.45194 15.164 1.34019 15.2126 1.2227 15.2153Z" fill="white"/>
<path d="M3.93487 22.7077H3.4372C3.30521 22.7077 3.17863 22.6553 3.0853 22.562C2.99197 22.4687 2.93953 22.3421 2.93953 22.2101C2.93953 22.0781 2.99197 21.9515 3.0853 21.8582C3.17863 21.7648 3.30521 21.7124 3.4372 21.7124H3.93487C4.06686 21.7124 4.19345 21.7648 4.28678 21.8582C4.38011 21.9515 4.43254 22.0781 4.43254 22.2101C4.43254 22.3421 4.38011 22.4687 4.28678 22.562C4.19345 22.6553 4.06686 22.7077 3.93487 22.7077ZM1.44651 22.7077H0.948843C0.816852 22.7077 0.690275 22.6553 0.596943 22.562C0.503612 22.4687 0.451172 22.3421 0.451172 22.2101C0.451172 22.0781 0.503612 21.9515 0.596943 21.8582C0.690275 21.7648 0.816852 21.7124 0.948843 21.7124H1.44651C1.5785 21.7124 1.7051 21.7648 1.79843 21.8582C1.89176 21.9515 1.94418 22.0781 1.94418 22.2101C1.94418 22.3421 1.89176 22.4687 1.79843 22.562C1.7051 22.6553 1.5785 22.7077 1.44651 22.7077Z" fill="white"/>
<path d="M2.41662 24.1336C2.28463 24.1336 2.15803 24.0812 2.0647 23.9878C1.97137 23.8945 1.91895 23.7679 1.91895 23.6359V23.2726C1.91895 23.1407 1.97137 23.0141 2.0647 22.9207C2.15803 22.8274 2.28463 22.775 2.41662 22.775C2.54861 22.775 2.67518 22.8274 2.76852 22.9207C2.86185 23.0141 2.91429 23.1407 2.91429 23.2726V23.6359C2.91429 23.7679 2.86185 23.8945 2.76852 23.9878C2.67518 24.0812 2.54861 24.1336 2.41662 24.1336ZM2.41662 21.7796C2.28463 21.7796 2.15803 21.7272 2.0647 21.6339C1.97137 21.5405 1.91895 21.414 1.91895 21.282V20.7843C1.91895 20.6523 1.97137 20.5257 2.0647 20.4324C2.15803 20.339 2.28463 20.2866 2.41662 20.2866C2.54861 20.2866 2.67518 20.339 2.76852 20.4324C2.86185 20.5257 2.91429 20.6523 2.91429 20.7843V21.282C2.91429 21.3473 2.9014 21.412 2.87639 21.4724C2.85138 21.5328 2.81473 21.5876 2.76852 21.6339C2.7223 21.6801 2.66745 21.7167 2.60707 21.7417C2.54669 21.7668 2.48197 21.7796 2.41662 21.7796Z" fill="white"/>
<path d="M16.5511 2.78355H16.0534C15.9214 2.78355 15.7948 2.73112 15.7015 2.63779C15.6082 2.54446 15.5557 2.41787 15.5557 2.28588C15.5557 2.15389 15.6082 2.02731 15.7015 1.93398C15.7948 1.84065 15.9214 1.78821 16.0534 1.78821H16.5511C16.6831 1.78821 16.8096 1.84065 16.903 1.93398C16.9963 2.02731 17.0487 2.15389 17.0487 2.28588C17.0487 2.41787 16.9963 2.54446 16.903 2.63779C16.8096 2.73112 16.6831 2.78355 16.5511 2.78355ZM14.0627 2.78355H13.5651C13.4331 2.78355 13.3065 2.73112 13.2131 2.63779C13.1198 2.54446 13.0674 2.41787 13.0674 2.28588C13.0674 2.15389 13.1198 2.02731 13.2131 1.93398C13.3065 1.84065 13.4331 1.78821 13.5651 1.78821H14.0627C14.1947 1.78821 14.3213 1.84065 14.4146 1.93398C14.508 2.02731 14.5604 2.15389 14.5604 2.28588C14.5604 2.41787 14.508 2.54446 14.4146 2.63779C14.3213 2.73112 14.1947 2.78355 14.0627 2.78355Z" fill="white"/>
<path d="M15.0328 4.21178C14.9008 4.21178 14.7742 4.15936 14.6809 4.06603C14.5876 3.97269 14.5352 3.8461 14.5352 3.71411V3.34833C14.5352 3.21634 14.5876 3.08975 14.6809 2.99642C14.7742 2.90308 14.9008 2.85066 15.0328 2.85066C15.1648 2.85066 15.2914 2.90308 15.3847 2.99642C15.4781 3.08975 15.5305 3.21634 15.5305 3.34833V3.71411C15.5305 3.8461 15.4781 3.97269 15.3847 4.06603C15.2914 4.15936 15.1648 4.21178 15.0328 4.21178ZM15.0328 1.85532C14.9008 1.85532 14.7742 1.80288 14.6809 1.70955C14.5876 1.61621 14.5352 1.48964 14.5352 1.35765V0.859976C14.5352 0.727985 14.5876 0.601393 14.6809 0.508061C14.7742 0.41473 14.9008 0.362305 15.0328 0.362305C15.1648 0.362305 15.2914 0.41473 15.3847 0.508061C15.4781 0.601393 15.5305 0.727985 15.5305 0.859976V1.35765C15.5305 1.48964 15.4781 1.61621 15.3847 1.70955C15.2914 1.80288 15.1648 1.85532 15.0328 1.85532Z" fill="white"/>
<path d="M21.9378 7.27H21.4401C21.3081 7.27 21.1815 7.21756 21.0882 7.12423C20.9949 7.0309 20.9425 6.90432 20.9425 6.77233C20.9425 6.64034 20.9949 6.51375 21.0882 6.42041C21.1815 6.32708 21.3081 6.27466 21.4401 6.27466H21.9378C22.0698 6.27466 22.1964 6.32708 22.2897 6.42041C22.383 6.51375 22.4355 6.64034 22.4355 6.77233C22.4355 6.90432 22.383 7.0309 22.2897 7.12423C22.1964 7.21756 22.0698 7.27 21.9378 7.27ZM19.4494 7.27H18.9518C18.8198 7.27 18.6932 7.21756 18.5999 7.12423C18.5065 7.0309 18.4541 6.90432 18.4541 6.77233C18.4541 6.64034 18.5065 6.51375 18.5999 6.42041C18.6932 6.32708 18.8198 6.27466 18.9518 6.27466H19.4494C19.5814 6.27466 19.708 6.32708 19.8013 6.42041C19.8947 6.51375 19.9471 6.64034 19.9471 6.77233C19.9471 6.90432 19.8947 7.0309 19.8013 7.12423C19.708 7.21756 19.5814 7.27 19.4494 7.27Z" fill="white"/>
<path d="M20.4195 8.69837C20.2876 8.69837 20.161 8.64593 20.0676 8.5526C19.9743 8.45927 19.9219 8.33269 19.9219 8.2007V7.83739C19.9219 7.7054 19.9743 7.57882 20.0676 7.48549C20.161 7.39216 20.2876 7.33972 20.4195 7.33972C20.5515 7.33972 20.6781 7.39216 20.7715 7.48549C20.8648 7.57882 20.9172 7.7054 20.9172 7.83739V8.2007C20.9172 8.33269 20.8648 8.45927 20.7715 8.5526C20.6781 8.64593 20.5515 8.69837 20.4195 8.69837ZM20.4195 6.34189C20.2876 6.34189 20.161 6.28946 20.0676 6.19613C19.9743 6.1028 19.9219 5.97621 19.9219 5.84422V5.34655C19.9219 5.21456 19.9743 5.08798 20.0676 4.99465C20.161 4.90132 20.2876 4.84888 20.4195 4.84888C20.5515 4.84888 20.6781 4.90132 20.7715 4.99465C20.8648 5.08798 20.9172 5.21456 20.9172 5.34655V5.84422C20.9172 5.97621 20.8648 6.1028 20.7715 6.19613C20.6781 6.28946 20.5515 6.34189 20.4195 6.34189Z" fill="white"/>
</svg>
