<svg width="42" height="50" viewBox="0 0 42 50" fill="none" xmlns="http://www.w3.org/2000/svg">
<path d="M41.0678 20.5354C41.0681 16.7144 40.0022 12.9691 37.9901 9.72083C35.978 6.47254 33.0994 3.85012 29.6782 2.14852C26.257 0.446929 22.4289 -0.266329 18.6245 0.0889797C14.8201 0.444288 11.1902 1.85407 8.14328 4.15974C5.09634 6.46542 2.75317 9.57552 1.37734 13.1402C0.00150263 16.7049 -0.352422 20.5828 0.355386 24.3376C1.06319 28.0925 2.80465 31.5754 5.38387 34.3946C7.96309 37.2137 11.2778 39.2573 14.955 40.2954L20.5339 50L26.1128 40.2954C30.4172 39.0794 34.2069 36.4915 36.9062 32.925C39.6054 29.3584 41.0667 25.0082 41.0678 20.5354Z" fill="url(#paint0_linear_10_4486)"/>
<defs>
<linearGradient id="paint0_linear_10_4486" x1="1.92265" y1="4.51807" x2="50.3981" y2="19.2053" gradientUnits="userSpaceOnUse">
<stop stop-color="#D6BD7D"/>
<stop offset="1" stop-color="#846232"/>
</linearGradient>
</defs>
</svg>
